<?xml version="1.0" encoding="utf-8" standalone="no"?>
<!DOCTYPE svg PUBLIC "-//W3C//DTD SVG 1.1//EN"
  "http://www.w3.org/Graphics/SVG/1.1/DTD/svg11.dtd">
<svg xmlns:xlink="http://www.w3.org/1999/xlink" width="720pt" height="432pt" viewBox="0 0 720 432" xmlns="http://www.w3.org/2000/svg" version="1.1">
 <metadata>
  <rdf:RDF xmlns:dc="http://purl.org/dc/elements/1.1/" xmlns:cc="http://creativecommons.org/ns#" xmlns:rdf="http://www.w3.org/1999/02/22-rdf-syntax-ns#">
   <cc:Work>
    <dc:type rdf:resource="http://purl.org/dc/dcmitype/StillImage"/>
    <dc:date>2024-07-15T19:21:03.079665</dc:date>
    <dc:format>image/svg+xml</dc:format>
    <dc:creator>
     <cc:Agent>
      <dc:title>Matplotlib v3.8.4, https://matplotlib.org/</dc:title>
     </cc:Agent>
    </dc:creator>
   </cc:Work>
  </rdf:RDF>
 </metadata>
 <defs>
  <style type="text/css">*{stroke-linejoin: round; stroke-linecap: butt}</style>
 </defs>
 <g id="figure_1">
  <g id="patch_1">
   <path d="M 0 432 
L 720 432 
L 720 0 
L 0 0 
z
" style="fill: #ffffff"/>
  </g>
  <g id="axes_1">
   <g id="patch_2">
    <path d="M 90 384.48 
L 648 384.48 
L 648 51.84 
L 90 51.84 
z
" style="fill: #ffffff"/>
   </g>
   <g id="matplotlib.axis_1">
    <g id="xtick_1">
     <g id="line2d_1">
      <path d="M 103.834711 384.48 
L 103.834711 51.84 
" clip-path="url(#pa5bacf5793)" style="fill: none; stroke: #b0b0b0; stroke-width: 0.8; stroke-linecap: square"/>
     </g>
     <g id="line2d_2">
      <defs>
       <path id="mb72ddcff97" d="M 0 0 
L 0 3.5 
" style="stroke: #000000; stroke-width: 0.8"/>
      </defs>
      <g>
       <use xlink:href="#mb72ddcff97" x="103.834711" y="384.48" style="stroke: #000000; stroke-width: 0.8"/>
      </g>
     </g>
     <g id="text_1">
      <!-- 0 -->
      <g transform="translate(100.653461 399.078438) scale(0.1 -0.1)">
       <defs>
        <path id="DejaVuSans-30" d="M 2034 4250 
Q 1547 4250 1301 3770 
Q 1056 3291 1056 2328 
Q 1056 1369 1301 889 
Q 1547 409 2034 409 
Q 2525 409 2770 889 
Q 3016 1369 3016 2328 
Q 3016 3291 2770 3770 
Q 2525 4250 2034 4250 
z
M 2034 4750 
Q 2819 4750 3233 4129 
Q 3647 3509 3647 2328 
Q 3647 1150 3233 529 
Q 2819 -91 2034 -91 
Q 1250 -91 836 529 
Q 422 1150 422 2328 
Q 422 3509 836 4129 
Q 1250 4750 2034 4750 
z
" transform="scale(0.015625)"/>
       </defs>
       <use xlink:href="#DejaVuSans-30"/>
      </g>
     </g>
    </g>
    <g id="xtick_2">
     <g id="line2d_3">
      <path d="M 219.123967 384.48 
L 219.123967 51.84 
" clip-path="url(#pa5bacf5793)" style="fill: none; stroke: #b0b0b0; stroke-width: 0.8; stroke-linecap: square"/>
     </g>
     <g id="line2d_4">
      <g>
       <use xlink:href="#mb72ddcff97" x="219.123967" y="384.48" style="stroke: #000000; stroke-width: 0.8"/>
      </g>
     </g>
     <g id="text_2">
      <!-- 10 -->
      <g transform="translate(212.761467 399.078438) scale(0.1 -0.1)">
       <defs>
        <path id="DejaVuSans-31" d="M 794 531 
L 1825 531 
L 1825 4091 
L 703 3866 
L 703 4441 
L 1819 4666 
L 2450 4666 
L 2450 531 
L 3481 531 
L 3481 0 
L 794 0 
L 794 531 
z
" transform="scale(0.015625)"/>
       </defs>
       <use xlink:href="#DejaVuSans-31"/>
       <use xlink:href="#DejaVuSans-30" x="63.623047"/>
      </g>
     </g>
    </g>
    <g id="xtick_3">
     <g id="line2d_5">
      <path d="M 334.413223 384.48 
L 334.413223 51.84 
" clip-path="url(#pa5bacf5793)" style="fill: none; stroke: #b0b0b0; stroke-width: 0.8; stroke-linecap: square"/>
     </g>
     <g id="line2d_6">
      <g>
       <use xlink:href="#mb72ddcff97" x="334.413223" y="384.48" style="stroke: #000000; stroke-width: 0.8"/>
      </g>
     </g>
     <g id="text_3">
      <!-- 20 -->
      <g transform="translate(328.050723 399.078438) scale(0.1 -0.1)">
       <defs>
        <path id="DejaVuSans-32" d="M 1228 531 
L 3431 531 
L 3431 0 
L 469 0 
L 469 531 
Q 828 903 1448 1529 
Q 2069 2156 2228 2338 
Q 2531 2678 2651 2914 
Q 2772 3150 2772 3378 
Q 2772 3750 2511 3984 
Q 2250 4219 1831 4219 
Q 1534 4219 1204 4116 
Q 875 4013 500 3803 
L 500 4441 
Q 881 4594 1212 4672 
Q 1544 4750 1819 4750 
Q 2544 4750 2975 4387 
Q 3406 4025 3406 3419 
Q 3406 3131 3298 2873 
Q 3191 2616 2906 2266 
Q 2828 2175 2409 1742 
Q 1991 1309 1228 531 
z
" transform="scale(0.015625)"/>
       </defs>
       <use xlink:href="#DejaVuSans-32"/>
       <use xlink:href="#DejaVuSans-30" x="63.623047"/>
      </g>
     </g>
    </g>
    <g id="xtick_4">
     <g id="line2d_7">
      <path d="M 449.702479 384.48 
L 449.702479 51.84 
" clip-path="url(#pa5bacf5793)" style="fill: none; stroke: #b0b0b0; stroke-width: 0.8; stroke-linecap: square"/>
     </g>
     <g id="line2d_8">
      <g>
       <use xlink:href="#mb72ddcff97" x="449.702479" y="384.48" style="stroke: #000000; stroke-width: 0.8"/>
      </g>
     </g>
     <g id="text_4">
      <!-- 30 -->
      <g transform="translate(443.339979 399.078438) scale(0.1 -0.1)">
       <defs>
        <path id="DejaVuSans-33" d="M 2597 2516 
Q 3050 2419 3304 2112 
Q 3559 1806 3559 1356 
Q 3559 666 3084 287 
Q 2609 -91 1734 -91 
Q 1441 -91 1130 -33 
Q 819 25 488 141 
L 488 750 
Q 750 597 1062 519 
Q 1375 441 1716 441 
Q 2309 441 2620 675 
Q 2931 909 2931 1356 
Q 2931 1769 2642 2001 
Q 2353 2234 1838 2234 
L 1294 2234 
L 1294 2753 
L 1863 2753 
Q 2328 2753 2575 2939 
Q 2822 3125 2822 3475 
Q 2822 3834 2567 4026 
Q 2313 4219 1838 4219 
Q 1578 4219 1281 4162 
Q 984 4106 628 3988 
L 628 4550 
Q 988 4650 1302 4700 
Q 1616 4750 1894 4750 
Q 2613 4750 3031 4423 
Q 3450 4097 3450 3541 
Q 3450 3153 3228 2886 
Q 3006 2619 2597 2516 
z
" transform="scale(0.015625)"/>
       </defs>
       <use xlink:href="#DejaVuSans-33"/>
       <use xlink:href="#DejaVuSans-30" x="63.623047"/>
      </g>
     </g>
    </g>
    <g id="xtick_5">
     <g id="line2d_9">
      <path d="M 564.991736 384.48 
L 564.991736 51.84 
" clip-path="url(#pa5bacf5793)" style="fill: none; stroke: #b0b0b0; stroke-width: 0.8; stroke-linecap: square"/>
     </g>
     <g id="line2d_10">
      <g>
       <use xlink:href="#mb72ddcff97" x="564.991736" y="384.48" style="stroke: #000000; stroke-width: 0.8"/>
      </g>
     </g>
     <g id="text_5">
      <!-- 40 -->
      <g transform="translate(558.629236 399.078438) scale(0.1 -0.1)">
       <defs>
        <path id="DejaVuSans-34" d="M 2419 4116 
L 825 1625 
L 2419 1625 
L 2419 4116 
z
M 2253 4666 
L 3047 4666 
L 3047 1625 
L 3713 1625 
L 3713 1100 
L 3047 1100 
L 3047 0 
L 2419 0 
L 2419 1100 
L 313 1100 
L 313 1709 
L 2253 4666 
z
" transform="scale(0.015625)"/>
       </defs>
       <use xlink:href="#DejaVuSans-34"/>
       <use xlink:href="#DejaVuSans-30" x="63.623047"/>
      </g>
     </g>
    </g>
    <g id="text_6">
     <!-- Tamanho das Entradas (n) -->
     <g transform="translate(303.444531 412.756563) scale(0.1 -0.1)">
      <defs>
       <path id="DejaVuSans-54" d="M -19 4666 
L 3928 4666 
L 3928 4134 
L 2272 4134 
L 2272 0 
L 1638 0 
L 1638 4134 
L -19 4134 
L -19 4666 
z
" transform="scale(0.015625)"/>
       <path id="DejaVuSans-61" d="M 2194 1759 
Q 1497 1759 1228 1600 
Q 959 1441 959 1056 
Q 959 750 1161 570 
Q 1363 391 1709 391 
Q 2188 391 2477 730 
Q 2766 1069 2766 1631 
L 2766 1759 
L 2194 1759 
z
M 3341 1997 
L 3341 0 
L 2766 0 
L 2766 531 
Q 2569 213 2275 61 
Q 1981 -91 1556 -91 
Q 1019 -91 701 211 
Q 384 513 384 1019 
Q 384 1609 779 1909 
Q 1175 2209 1959 2209 
L 2766 2209 
L 2766 2266 
Q 2766 2663 2505 2880 
Q 2244 3097 1772 3097 
Q 1472 3097 1187 3025 
Q 903 2953 641 2809 
L 641 3341 
Q 956 3463 1253 3523 
Q 1550 3584 1831 3584 
Q 2591 3584 2966 3190 
Q 3341 2797 3341 1997 
z
" transform="scale(0.015625)"/>
       <path id="DejaVuSans-6d" d="M 3328 2828 
Q 3544 3216 3844 3400 
Q 4144 3584 4550 3584 
Q 5097 3584 5394 3201 
Q 5691 2819 5691 2113 
L 5691 0 
L 5113 0 
L 5113 2094 
Q 5113 2597 4934 2840 
Q 4756 3084 4391 3084 
Q 3944 3084 3684 2787 
Q 3425 2491 3425 1978 
L 3425 0 
L 2847 0 
L 2847 2094 
Q 2847 2600 2669 2842 
Q 2491 3084 2119 3084 
Q 1678 3084 1418 2786 
Q 1159 2488 1159 1978 
L 1159 0 
L 581 0 
L 581 3500 
L 1159 3500 
L 1159 2956 
Q 1356 3278 1631 3431 
Q 1906 3584 2284 3584 
Q 2666 3584 2933 3390 
Q 3200 3197 3328 2828 
z
" transform="scale(0.015625)"/>
       <path id="DejaVuSans-6e" d="M 3513 2113 
L 3513 0 
L 2938 0 
L 2938 2094 
Q 2938 2591 2744 2837 
Q 2550 3084 2163 3084 
Q 1697 3084 1428 2787 
Q 1159 2491 1159 1978 
L 1159 0 
L 581 0 
L 581 3500 
L 1159 3500 
L 1159 2956 
Q 1366 3272 1645 3428 
Q 1925 3584 2291 3584 
Q 2894 3584 3203 3211 
Q 3513 2838 3513 2113 
z
" transform="scale(0.015625)"/>
       <path id="DejaVuSans-68" d="M 3513 2113 
L 3513 0 
L 2938 0 
L 2938 2094 
Q 2938 2591 2744 2837 
Q 2550 3084 2163 3084 
Q 1697 3084 1428 2787 
Q 1159 2491 1159 1978 
L 1159 0 
L 581 0 
L 581 4863 
L 1159 4863 
L 1159 2956 
Q 1366 3272 1645 3428 
Q 1925 3584 2291 3584 
Q 2894 3584 3203 3211 
Q 3513 2838 3513 2113 
z
" transform="scale(0.015625)"/>
       <path id="DejaVuSans-6f" d="M 1959 3097 
Q 1497 3097 1228 2736 
Q 959 2375 959 1747 
Q 959 1119 1226 758 
Q 1494 397 1959 397 
Q 2419 397 2687 759 
Q 2956 1122 2956 1747 
Q 2956 2369 2687 2733 
Q 2419 3097 1959 3097 
z
M 1959 3584 
Q 2709 3584 3137 3096 
Q 3566 2609 3566 1747 
Q 3566 888 3137 398 
Q 2709 -91 1959 -91 
Q 1206 -91 779 398 
Q 353 888 353 1747 
Q 353 2609 779 3096 
Q 1206 3584 1959 3584 
z
" transform="scale(0.015625)"/>
       <path id="DejaVuSans-20" transform="scale(0.015625)"/>
       <path id="DejaVuSans-64" d="M 2906 2969 
L 2906 4863 
L 3481 4863 
L 3481 0 
L 2906 0 
L 2906 525 
Q 2725 213 2448 61 
Q 2172 -91 1784 -91 
Q 1150 -91 751 415 
Q 353 922 353 1747 
Q 353 2572 751 3078 
Q 1150 3584 1784 3584 
Q 2172 3584 2448 3432 
Q 2725 3281 2906 2969 
z
M 947 1747 
Q 947 1113 1208 752 
Q 1469 391 1925 391 
Q 2381 391 2643 752 
Q 2906 1113 2906 1747 
Q 2906 2381 2643 2742 
Q 2381 3103 1925 3103 
Q 1469 3103 1208 2742 
Q 947 2381 947 1747 
z
" transform="scale(0.015625)"/>
       <path id="DejaVuSans-73" d="M 2834 3397 
L 2834 2853 
Q 2591 2978 2328 3040 
Q 2066 3103 1784 3103 
Q 1356 3103 1142 2972 
Q 928 2841 928 2578 
Q 928 2378 1081 2264 
Q 1234 2150 1697 2047 
L 1894 2003 
Q 2506 1872 2764 1633 
Q 3022 1394 3022 966 
Q 3022 478 2636 193 
Q 2250 -91 1575 -91 
Q 1294 -91 989 -36 
Q 684 19 347 128 
L 347 722 
Q 666 556 975 473 
Q 1284 391 1588 391 
Q 1994 391 2212 530 
Q 2431 669 2431 922 
Q 2431 1156 2273 1281 
Q 2116 1406 1581 1522 
L 1381 1569 
Q 847 1681 609 1914 
Q 372 2147 372 2553 
Q 372 3047 722 3315 
Q 1072 3584 1716 3584 
Q 2034 3584 2315 3537 
Q 2597 3491 2834 3397 
z
" transform="scale(0.015625)"/>
       <path id="DejaVuSans-45" d="M 628 4666 
L 3578 4666 
L 3578 4134 
L 1259 4134 
L 1259 2753 
L 3481 2753 
L 3481 2222 
L 1259 2222 
L 1259 531 
L 3634 531 
L 3634 0 
L 628 0 
L 628 4666 
z
" transform="scale(0.015625)"/>
       <path id="DejaVuSans-74" d="M 1172 4494 
L 1172 3500 
L 2356 3500 
L 2356 3053 
L 1172 3053 
L 1172 1153 
Q 1172 725 1289 603 
Q 1406 481 1766 481 
L 2356 481 
L 2356 0 
L 1766 0 
Q 1100 0 847 248 
Q 594 497 594 1153 
L 594 3053 
L 172 3053 
L 172 3500 
L 594 3500 
L 594 4494 
L 1172 4494 
z
" transform="scale(0.015625)"/>
       <path id="DejaVuSans-72" d="M 2631 2963 
Q 2534 3019 2420 3045 
Q 2306 3072 2169 3072 
Q 1681 3072 1420 2755 
Q 1159 2438 1159 1844 
L 1159 0 
L 581 0 
L 581 3500 
L 1159 3500 
L 1159 2956 
Q 1341 3275 1631 3429 
Q 1922 3584 2338 3584 
Q 2397 3584 2469 3576 
Q 2541 3569 2628 3553 
L 2631 2963 
z
" transform="scale(0.015625)"/>
       <path id="DejaVuSans-28" d="M 1984 4856 
Q 1566 4138 1362 3434 
Q 1159 2731 1159 2009 
Q 1159 1288 1364 580 
Q 1569 -128 1984 -844 
L 1484 -844 
Q 1016 -109 783 600 
Q 550 1309 550 2009 
Q 550 2706 781 3412 
Q 1013 4119 1484 4856 
L 1984 4856 
z
" transform="scale(0.015625)"/>
       <path id="DejaVuSans-29" d="M 513 4856 
L 1013 4856 
Q 1481 4119 1714 3412 
Q 1947 2706 1947 2009 
Q 1947 1309 1714 600 
Q 1481 -109 1013 -844 
L 513 -844 
Q 928 -128 1133 580 
Q 1338 1288 1338 2009 
Q 1338 2731 1133 3434 
Q 928 4138 513 4856 
z
" transform="scale(0.015625)"/>
      </defs>
      <use xlink:href="#DejaVuSans-54"/>
      <use xlink:href="#DejaVuSans-61" x="44.583984"/>
      <use xlink:href="#DejaVuSans-6d" x="105.863281"/>
      <use xlink:href="#DejaVuSans-61" x="203.275391"/>
      <use xlink:href="#DejaVuSans-6e" x="264.554688"/>
      <use xlink:href="#DejaVuSans-68" x="327.933594"/>
      <use xlink:href="#DejaVuSans-6f" x="391.3125"/>
      <use xlink:href="#DejaVuSans-20" x="452.494141"/>
      <use xlink:href="#DejaVuSans-64" x="484.28125"/>
      <use xlink:href="#DejaVuSans-61" x="547.757812"/>
      <use xlink:href="#DejaVuSans-73" x="609.037109"/>
      <use xlink:href="#DejaVuSans-20" x="661.136719"/>
      <use xlink:href="#DejaVuSans-45" x="692.923828"/>
      <use xlink:href="#DejaVuSans-6e" x="756.107422"/>
      <use xlink:href="#DejaVuSans-74" x="819.486328"/>
      <use xlink:href="#DejaVuSans-72" x="858.695312"/>
      <use xlink:href="#DejaVuSans-61" x="899.808594"/>
      <use xlink:href="#DejaVuSans-64" x="961.087891"/>
      <use xlink:href="#DejaVuSans-61" x="1024.564453"/>
      <use xlink:href="#DejaVuSans-73" x="1085.84375"/>
      <use xlink:href="#DejaVuSans-20" x="1137.943359"/>
      <use xlink:href="#DejaVuSans-28" x="1169.730469"/>
      <use xlink:href="#DejaVuSans-6e" x="1208.744141"/>
      <use xlink:href="#DejaVuSans-29" x="1272.123047"/>
     </g>
    </g>
   </g>
   <g id="matplotlib.axis_2">
    <g id="ytick_1">
     <g id="line2d_11">
      <path d="M 90 369.360017 
L 648 369.360017 
" clip-path="url(#pa5bacf5793)" style="fill: none; stroke: #b0b0b0; stroke-width: 0.8; stroke-linecap: square"/>
     </g>
     <g id="line2d_12">
      <defs>
       <path id="m9475aca4f4" d="M 0 0 
L -3.5 0 
" style="stroke: #000000; stroke-width: 0.8"/>
      </defs>
      <g>
       <use xlink:href="#m9475aca4f4" x="90" y="369.360017" style="stroke: #000000; stroke-width: 0.8"/>
      </g>
     </g>
     <g id="text_7">
      <!-- 0 -->
      <g transform="translate(76.6375 373.159236) scale(0.1 -0.1)">
       <use xlink:href="#DejaVuSans-30"/>
      </g>
     </g>
    </g>
    <g id="ytick_2">
     <g id="line2d_13">
      <path d="M 90 330.476715 
L 648 330.476715 
" clip-path="url(#pa5bacf5793)" style="fill: none; stroke: #b0b0b0; stroke-width: 0.8; stroke-linecap: square"/>
     </g>
     <g id="line2d_14">
      <g>
       <use xlink:href="#m9475aca4f4" x="90" y="330.476715" style="stroke: #000000; stroke-width: 0.8"/>
      </g>
     </g>
     <g id="text_8">
      <!-- 2 -->
      <g transform="translate(76.6375 334.275934) scale(0.1 -0.1)">
       <use xlink:href="#DejaVuSans-32"/>
      </g>
     </g>
    </g>
    <g id="ytick_3">
     <g id="line2d_15">
      <path d="M 90 291.593413 
L 648 291.593413 
" clip-path="url(#pa5bacf5793)" style="fill: none; stroke: #b0b0b0; stroke-width: 0.8; stroke-linecap: square"/>
     </g>
     <g id="line2d_16">
      <g>
       <use xlink:href="#m9475aca4f4" x="90" y="291.593413" style="stroke: #000000; stroke-width: 0.8"/>
      </g>
     </g>
     <g id="text_9">
      <!-- 4 -->
      <g transform="translate(76.6375 295.392632) scale(0.1 -0.1)">
       <use xlink:href="#DejaVuSans-34"/>
      </g>
     </g>
    </g>
    <g id="ytick_4">
     <g id="line2d_17">
      <path d="M 90 252.710111 
L 648 252.710111 
" clip-path="url(#pa5bacf5793)" style="fill: none; stroke: #b0b0b0; stroke-width: 0.8; stroke-linecap: square"/>
     </g>
     <g id="line2d_18">
      <g>
       <use xlink:href="#m9475aca4f4" x="90" y="252.710111" style="stroke: #000000; stroke-width: 0.8"/>
      </g>
     </g>
     <g id="text_10">
      <!-- 6 -->
      <g transform="translate(76.6375 256.509329) scale(0.1 -0.1)">
       <defs>
        <path id="DejaVuSans-36" d="M 2113 2584 
Q 1688 2584 1439 2293 
Q 1191 2003 1191 1497 
Q 1191 994 1439 701 
Q 1688 409 2113 409 
Q 2538 409 2786 701 
Q 3034 994 3034 1497 
Q 3034 2003 2786 2293 
Q 2538 2584 2113 2584 
z
M 3366 4563 
L 3366 3988 
Q 3128 4100 2886 4159 
Q 2644 4219 2406 4219 
Q 1781 4219 1451 3797 
Q 1122 3375 1075 2522 
Q 1259 2794 1537 2939 
Q 1816 3084 2150 3084 
Q 2853 3084 3261 2657 
Q 3669 2231 3669 1497 
Q 3669 778 3244 343 
Q 2819 -91 2113 -91 
Q 1303 -91 875 529 
Q 447 1150 447 2328 
Q 447 3434 972 4092 
Q 1497 4750 2381 4750 
Q 2619 4750 2861 4703 
Q 3103 4656 3366 4563 
z
" transform="scale(0.015625)"/>
       </defs>
       <use xlink:href="#DejaVuSans-36"/>
      </g>
     </g>
    </g>
    <g id="ytick_5">
     <g id="line2d_19">
      <path d="M 90 213.826808 
L 648 213.826808 
" clip-path="url(#pa5bacf5793)" style="fill: none; stroke: #b0b0b0; stroke-width: 0.8; stroke-linecap: square"/>
     </g>
     <g id="line2d_20">
      <g>
       <use xlink:href="#m9475aca4f4" x="90" y="213.826808" style="stroke: #000000; stroke-width: 0.8"/>
      </g>
     </g>
     <g id="text_11">
      <!-- 8 -->
      <g transform="translate(76.6375 217.626027) scale(0.1 -0.1)">
       <defs>
        <path id="DejaVuSans-38" d="M 2034 2216 
Q 1584 2216 1326 1975 
Q 1069 1734 1069 1313 
Q 1069 891 1326 650 
Q 1584 409 2034 409 
Q 2484 409 2743 651 
Q 3003 894 3003 1313 
Q 3003 1734 2745 1975 
Q 2488 2216 2034 2216 
z
M 1403 2484 
Q 997 2584 770 2862 
Q 544 3141 544 3541 
Q 544 4100 942 4425 
Q 1341 4750 2034 4750 
Q 2731 4750 3128 4425 
Q 3525 4100 3525 3541 
Q 3525 3141 3298 2862 
Q 3072 2584 2669 2484 
Q 3125 2378 3379 2068 
Q 3634 1759 3634 1313 
Q 3634 634 3220 271 
Q 2806 -91 2034 -91 
Q 1263 -91 848 271 
Q 434 634 434 1313 
Q 434 1759 690 2068 
Q 947 2378 1403 2484 
z
M 1172 3481 
Q 1172 3119 1398 2916 
Q 1625 2713 2034 2713 
Q 2441 2713 2670 2916 
Q 2900 3119 2900 3481 
Q 2900 3844 2670 4047 
Q 2441 4250 2034 4250 
Q 1625 4250 1398 4047 
Q 1172 3844 1172 3481 
z
" transform="scale(0.015625)"/>
       </defs>
       <use xlink:href="#DejaVuSans-38"/>
      </g>
     </g>
    </g>
    <g id="ytick_6">
     <g id="line2d_21">
      <path d="M 90 174.943506 
L 648 174.943506 
" clip-path="url(#pa5bacf5793)" style="fill: none; stroke: #b0b0b0; stroke-width: 0.8; stroke-linecap: square"/>
     </g>
     <g id="line2d_22">
      <g>
       <use xlink:href="#m9475aca4f4" x="90" y="174.943506" style="stroke: #000000; stroke-width: 0.8"/>
      </g>
     </g>
     <g id="text_12">
      <!-- 10 -->
      <g transform="translate(70.275 178.742725) scale(0.1 -0.1)">
       <use xlink:href="#DejaVuSans-31"/>
       <use xlink:href="#DejaVuSans-30" x="63.623047"/>
      </g>
     </g>
    </g>
    <g id="ytick_7">
     <g id="line2d_23">
      <path d="M 90 136.060204 
L 648 136.060204 
" clip-path="url(#pa5bacf5793)" style="fill: none; stroke: #b0b0b0; stroke-width: 0.8; stroke-linecap: square"/>
     </g>
     <g id="line2d_24">
      <g>
       <use xlink:href="#m9475aca4f4" x="90" y="136.060204" style="stroke: #000000; stroke-width: 0.8"/>
      </g>
     </g>
     <g id="text_13">
      <!-- 12 -->
      <g transform="translate(70.275 139.859422) scale(0.1 -0.1)">
       <use xlink:href="#DejaVuSans-31"/>
       <use xlink:href="#DejaVuSans-32" x="63.623047"/>
      </g>
     </g>
    </g>
    <g id="ytick_8">
     <g id="line2d_25">
      <path d="M 90 97.176901 
L 648 97.176901 
" clip-path="url(#pa5bacf5793)" style="fill: none; stroke: #b0b0b0; stroke-width: 0.8; stroke-linecap: square"/>
     </g>
     <g id="line2d_26">
      <g>
       <use xlink:href="#m9475aca4f4" x="90" y="97.176901" style="stroke: #000000; stroke-width: 0.8"/>
      </g>
     </g>
     <g id="text_14">
      <!-- 14 -->
      <g transform="translate(70.275 100.97612) scale(0.1 -0.1)">
       <use xlink:href="#DejaVuSans-31"/>
       <use xlink:href="#DejaVuSans-34" x="63.623047"/>
      </g>
     </g>
    </g>
    <g id="ytick_9">
     <g id="line2d_27">
      <path d="M 90 58.293599 
L 648 58.293599 
" clip-path="url(#pa5bacf5793)" style="fill: none; stroke: #b0b0b0; stroke-width: 0.8; stroke-linecap: square"/>
     </g>
     <g id="line2d_28">
      <g>
       <use xlink:href="#m9475aca4f4" x="90" y="58.293599" style="stroke: #000000; stroke-width: 0.8"/>
      </g>
     </g>
     <g id="text_15">
      <!-- 16 -->
      <g transform="translate(70.275 62.092818) scale(0.1 -0.1)">
       <use xlink:href="#DejaVuSans-31"/>
       <use xlink:href="#DejaVuSans-36" x="63.623047"/>
      </g>
     </g>
    </g>
    <g id="text_16">
     <!-- Tempo médio (segundos) -->
     <g transform="translate(64.195312 281.224844) rotate(-90) scale(0.1 -0.1)">
      <defs>
       <path id="DejaVuSans-65" d="M 3597 1894 
L 3597 1613 
L 953 1613 
Q 991 1019 1311 708 
Q 1631 397 2203 397 
Q 2534 397 2845 478 
Q 3156 559 3463 722 
L 3463 178 
Q 3153 47 2828 -22 
Q 2503 -91 2169 -91 
Q 1331 -91 842 396 
Q 353 884 353 1716 
Q 353 2575 817 3079 
Q 1281 3584 2069 3584 
Q 2775 3584 3186 3129 
Q 3597 2675 3597 1894 
z
M 3022 2063 
Q 3016 2534 2758 2815 
Q 2500 3097 2075 3097 
Q 1594 3097 1305 2825 
Q 1016 2553 972 2059 
L 3022 2063 
z
" transform="scale(0.015625)"/>
       <path id="DejaVuSans-70" d="M 1159 525 
L 1159 -1331 
L 581 -1331 
L 581 3500 
L 1159 3500 
L 1159 2969 
Q 1341 3281 1617 3432 
Q 1894 3584 2278 3584 
Q 2916 3584 3314 3078 
Q 3713 2572 3713 1747 
Q 3713 922 3314 415 
Q 2916 -91 2278 -91 
Q 1894 -91 1617 61 
Q 1341 213 1159 525 
z
M 3116 1747 
Q 3116 2381 2855 2742 
Q 2594 3103 2138 3103 
Q 1681 3103 1420 2742 
Q 1159 2381 1159 1747 
Q 1159 1113 1420 752 
Q 1681 391 2138 391 
Q 2594 391 2855 752 
Q 3116 1113 3116 1747 
z
" transform="scale(0.015625)"/>
       <path id="DejaVuSans-e9" d="M 3597 1894 
L 3597 1613 
L 953 1613 
Q 991 1019 1311 708 
Q 1631 397 2203 397 
Q 2534 397 2845 478 
Q 3156 559 3463 722 
L 3463 178 
Q 3153 47 2828 -22 
Q 2503 -91 2169 -91 
Q 1331 -91 842 396 
Q 353 884 353 1716 
Q 353 2575 817 3079 
Q 1281 3584 2069 3584 
Q 2775 3584 3186 3129 
Q 3597 2675 3597 1894 
z
M 3022 2063 
Q 3016 2534 2758 2815 
Q 2500 3097 2075 3097 
Q 1594 3097 1305 2825 
Q 1016 2553 972 2059 
L 3022 2063 
z
M 2469 5119 
L 3091 5119 
L 2072 3944 
L 1594 3944 
L 2469 5119 
z
" transform="scale(0.015625)"/>
       <path id="DejaVuSans-69" d="M 603 3500 
L 1178 3500 
L 1178 0 
L 603 0 
L 603 3500 
z
M 603 4863 
L 1178 4863 
L 1178 4134 
L 603 4134 
L 603 4863 
z
" transform="scale(0.015625)"/>
       <path id="DejaVuSans-67" d="M 2906 1791 
Q 2906 2416 2648 2759 
Q 2391 3103 1925 3103 
Q 1463 3103 1205 2759 
Q 947 2416 947 1791 
Q 947 1169 1205 825 
Q 1463 481 1925 481 
Q 2391 481 2648 825 
Q 2906 1169 2906 1791 
z
M 3481 434 
Q 3481 -459 3084 -895 
Q 2688 -1331 1869 -1331 
Q 1566 -1331 1297 -1286 
Q 1028 -1241 775 -1147 
L 775 -588 
Q 1028 -725 1275 -790 
Q 1522 -856 1778 -856 
Q 2344 -856 2625 -561 
Q 2906 -266 2906 331 
L 2906 616 
Q 2728 306 2450 153 
Q 2172 0 1784 0 
Q 1141 0 747 490 
Q 353 981 353 1791 
Q 353 2603 747 3093 
Q 1141 3584 1784 3584 
Q 2172 3584 2450 3431 
Q 2728 3278 2906 2969 
L 2906 3500 
L 3481 3500 
L 3481 434 
z
" transform="scale(0.015625)"/>
       <path id="DejaVuSans-75" d="M 544 1381 
L 544 3500 
L 1119 3500 
L 1119 1403 
Q 1119 906 1312 657 
Q 1506 409 1894 409 
Q 2359 409 2629 706 
Q 2900 1003 2900 1516 
L 2900 3500 
L 3475 3500 
L 3475 0 
L 2900 0 
L 2900 538 
Q 2691 219 2414 64 
Q 2138 -91 1772 -91 
Q 1169 -91 856 284 
Q 544 659 544 1381 
z
M 1991 3584 
L 1991 3584 
z
" transform="scale(0.015625)"/>
      </defs>
      <use xlink:href="#DejaVuSans-54"/>
      <use xlink:href="#DejaVuSans-65" x="44.083984"/>
      <use xlink:href="#DejaVuSans-6d" x="105.607422"/>
      <use xlink:href="#DejaVuSans-70" x="203.019531"/>
      <use xlink:href="#DejaVuSans-6f" x="266.496094"/>
      <use xlink:href="#DejaVuSans-20" x="327.677734"/>
      <use xlink:href="#DejaVuSans-6d" x="359.464844"/>
      <use xlink:href="#DejaVuSans-e9" x="456.876953"/>
      <use xlink:href="#DejaVuSans-64" x="518.400391"/>
      <use xlink:href="#DejaVuSans-69" x="581.876953"/>
      <use xlink:href="#DejaVuSans-6f" x="609.660156"/>
      <use xlink:href="#DejaVuSans-20" x="670.841797"/>
      <use xlink:href="#DejaVuSans-28" x="702.628906"/>
      <use xlink:href="#DejaVuSans-73" x="741.642578"/>
      <use xlink:href="#DejaVuSans-65" x="793.742188"/>
      <use xlink:href="#DejaVuSans-67" x="855.265625"/>
      <use xlink:href="#DejaVuSans-75" x="918.742188"/>
      <use xlink:href="#DejaVuSans-6e" x="982.121094"/>
      <use xlink:href="#DejaVuSans-64" x="1045.5"/>
      <use xlink:href="#DejaVuSans-6f" x="1108.976562"/>
      <use xlink:href="#DejaVuSans-73" x="1170.158203"/>
      <use xlink:href="#DejaVuSans-29" x="1222.257812"/>
     </g>
    </g>
   </g>
   <g id="line2d_29">
    <path d="M 115.363636 369.359599 
L 126.892562 369.359722 
L 138.421488 369.359559 
L 149.950413 369.359588 
L 161.479339 369.359651 
L 173.008264 369.359675 
L 184.53719 369.359677 
L 196.066116 369.359554 
L 207.595041 369.359669 
L 219.123967 369.359575 
L 230.652893 369.359511 
L 242.181818 369.359522 
L 253.710744 369.359645 
L 265.239669 369.359435 
L 276.768595 369.359249 
L 288.297521 369.359147 
L 299.826446 369.358794 
L 311.355372 369.358425 
L 322.884298 369.357576 
L 334.413223 369.356776 
L 345.942149 369.354142 
L 357.471074 369.354029 
L 369 369.347187 
L 380.528926 369.34022 
L 392.057851 369.322612 
L 403.586777 369.296168 
L 415.115702 369.263119 
L 426.644628 369.201593 
L 438.173554 369.101066 
L 449.702479 368.940908 
L 461.231405 368.668054 
L 472.760331 368.249568 
L 484.289256 367.55655 
L 495.818182 366.435 
L 507.347107 365.275811 
L 518.876033 364.964141 
L 530.404959 360.744284 
L 541.933884 357.184233 
L 553.46281 353.554237 
L 564.991736 343.450181 
L 576.520661 300.67825 
L 588.049587 298.844546 
L 599.578512 260.347264 
L 611.107438 191.447219 
L 622.636364 67.012551 
" clip-path="url(#pa5bacf5793)" style="fill: none; stroke: #1f77b4; stroke-width: 1.5; stroke-linecap: square"/>
    <defs>
     <path id="meda5b2b97c" d="M 0 3 
C 0.795609 3 1.55874 2.683901 2.12132 2.12132 
C 2.683901 1.55874 3 0.795609 3 0 
C 3 -0.795609 2.683901 -1.55874 2.12132 -2.12132 
C 1.55874 -2.683901 0.795609 -3 0 -3 
C -0.795609 -3 -1.55874 -2.683901 -2.12132 -2.12132 
C -2.683901 -1.55874 -3 -0.795609 -3 0 
C -3 0.795609 -2.683901 1.55874 -2.12132 2.12132 
C -1.55874 2.683901 -0.795609 3 0 3 
z
" style="stroke: #1f77b4"/>
    </defs>
    <g clip-path="url(#pa5bacf5793)">
     <use xlink:href="#meda5b2b97c" x="115.363636" y="369.359599" style="fill: #1f77b4; stroke: #1f77b4"/>
     <use xlink:href="#meda5b2b97c" x="126.892562" y="369.359722" style="fill: #1f77b4; stroke: #1f77b4"/>
     <use xlink:href="#meda5b2b97c" x="138.421488" y="369.359559" style="fill: #1f77b4; stroke: #1f77b4"/>
     <use xlink:href="#meda5b2b97c" x="149.950413" y="369.359588" style="fill: #1f77b4; stroke: #1f77b4"/>
     <use xlink:href="#meda5b2b97c" x="161.479339" y="369.359651" style="fill: #1f77b4; stroke: #1f77b4"/>
     <use xlink:href="#meda5b2b97c" x="173.008264" y="369.359675" style="fill: #1f77b4; stroke: #1f77b4"/>
     <use xlink:href="#meda5b2b97c" x="184.53719" y="369.359677" style="fill: #1f77b4; stroke: #1f77b4"/>
     <use xlink:href="#meda5b2b97c" x="196.066116" y="369.359554" style="fill: #1f77b4; stroke: #1f77b4"/>
     <use xlink:href="#meda5b2b97c" x="207.595041" y="369.359669" style="fill: #1f77b4; stroke: #1f77b4"/>
     <use xlink:href="#meda5b2b97c" x="219.123967" y="369.359575" style="fill: #1f77b4; stroke: #1f77b4"/>
     <use xlink:href="#meda5b2b97c" x="230.652893" y="369.359511" style="fill: #1f77b4; stroke: #1f77b4"/>
     <use xlink:href="#meda5b2b97c" x="242.181818" y="369.359522" style="fill: #1f77b4; stroke: #1f77b4"/>
     <use xlink:href="#meda5b2b97c" x="253.710744" y="369.359645" style="fill: #1f77b4; stroke: #1f77b4"/>
     <use xlink:href="#meda5b2b97c" x="265.239669" y="369.359435" style="fill: #1f77b4; stroke: #1f77b4"/>
     <use xlink:href="#meda5b2b97c" x="276.768595" y="369.359249" style="fill: #1f77b4; stroke: #1f77b4"/>
     <use xlink:href="#meda5b2b97c" x="288.297521" y="369.359147" style="fill: #1f77b4; stroke: #1f77b4"/>
     <use xlink:href="#meda5b2b97c" x="299.826446" y="369.358794" style="fill: #1f77b4; stroke: #1f77b4"/>
     <use xlink:href="#meda5b2b97c" x="311.355372" y="369.358425" style="fill: #1f77b4; stroke: #1f77b4"/>
     <use xlink:href="#meda5b2b97c" x="322.884298" y="369.357576" style="fill: #1f77b4; stroke: #1f77b4"/>
     <use xlink:href="#meda5b2b97c" x="334.413223" y="369.356776" style="fill: #1f77b4; stroke: #1f77b4"/>
     <use xlink:href="#meda5b2b97c" x="345.942149" y="369.354142" style="fill: #1f77b4; stroke: #1f77b4"/>
     <use xlink:href="#meda5b2b97c" x="357.471074" y="369.354029" style="fill: #1f77b4; stroke: #1f77b4"/>
     <use xlink:href="#meda5b2b97c" x="369" y="369.347187" style="fill: #1f77b4; stroke: #1f77b4"/>
     <use xlink:href="#meda5b2b97c" x="380.528926" y="369.34022" style="fill: #1f77b4; stroke: #1f77b4"/>
     <use xlink:href="#meda5b2b97c" x="392.057851" y="369.322612" style="fill: #1f77b4; stroke: #1f77b4"/>
     <use xlink:href="#meda5b2b97c" x="403.586777" y="369.296168" style="fill: #1f77b4; stroke: #1f77b4"/>
     <use xlink:href="#meda5b2b97c" x="415.115702" y="369.263119" style="fill: #1f77b4; stroke: #1f77b4"/>
     <use xlink:href="#meda5b2b97c" x="426.644628" y="369.201593" style="fill: #1f77b4; stroke: #1f77b4"/>
     <use xlink:href="#meda5b2b97c" x="438.173554" y="369.101066" style="fill: #1f77b4; stroke: #1f77b4"/>
     <use xlink:href="#meda5b2b97c" x="449.702479" y="368.940908" style="fill: #1f77b4; stroke: #1f77b4"/>
     <use xlink:href="#meda5b2b97c" x="461.231405" y="368.668054" style="fill: #1f77b4; stroke: #1f77b4"/>
     <use xlink:href="#meda5b2b97c" x="472.760331" y="368.249568" style="fill: #1f77b4; stroke: #1f77b4"/>
     <use xlink:href="#meda5b2b97c" x="484.289256" y="367.55655" style="fill: #1f77b4; stroke: #1f77b4"/>
     <use xlink:href="#meda5b2b97c" x="495.818182" y="366.435" style="fill: #1f77b4; stroke: #1f77b4"/>
     <use xlink:href="#meda5b2b97c" x="507.347107" y="365.275811" style="fill: #1f77b4; stroke: #1f77b4"/>
     <use xlink:href="#meda5b2b97c" x="518.876033" y="364.964141" style="fill: #1f77b4; stroke: #1f77b4"/>
     <use xlink:href="#meda5b2b97c" x="530.404959" y="360.744284" style="fill: #1f77b4; stroke: #1f77b4"/>
     <use xlink:href="#meda5b2b97c" x="541.933884" y="357.184233" style="fill: #1f77b4; stroke: #1f77b4"/>
     <use xlink:href="#meda5b2b97c" x="553.46281" y="353.554237" style="fill: #1f77b4; stroke: #1f77b4"/>
     <use xlink:href="#meda5b2b97c" x="564.991736" y="343.450181" style="fill: #1f77b4; stroke: #1f77b4"/>
     <use xlink:href="#meda5b2b97c" x="576.520661" y="300.67825" style="fill: #1f77b4; stroke: #1f77b4"/>
     <use xlink:href="#meda5b2b97c" x="588.049587" y="298.844546" style="fill: #1f77b4; stroke: #1f77b4"/>
     <use xlink:href="#meda5b2b97c" x="599.578512" y="260.347264" style="fill: #1f77b4; stroke: #1f77b4"/>
     <use xlink:href="#meda5b2b97c" x="611.107438" y="191.447219" style="fill: #1f77b4; stroke: #1f77b4"/>
     <use xlink:href="#meda5b2b97c" x="622.636364" y="67.012551" style="fill: #1f77b4; stroke: #1f77b4"/>
    </g>
   </g>
   <g id="line2d_30">
    <path d="M 115.363636 369.359948 
L 126.892562 369.359889 
L 138.421488 369.36 
L 149.950413 369.359942 
L 161.479339 369.359921 
L 173.008264 369.359901 
L 184.53719 369.359861 
L 196.066116 369.359954 
L 207.595041 369.359882 
L 219.123967 369.359969 
L 230.652893 369.359964 
L 242.181818 369.359893 
L 253.710744 369.359723 
L 265.239669 369.359927 
L 276.768595 369.35993 
L 288.297521 369.359801 
L 299.826446 369.359867 
L 311.355372 369.35971 
L 322.884298 369.359129 
L 334.413223 369.358575 
L 345.942149 369.359106 
L 357.471074 369.354797 
L 369 369.354218 
L 380.528926 369.353245 
L 392.057851 369.355577 
L 403.586777 369.358962 
L 415.115702 369.35279 
L 426.644628 369.350328 
L 438.173554 369.352889 
L 449.702479 369.347589 
L 461.231405 369.350729 
L 472.760331 369.346918 
L 484.289256 369.353826 
L 495.818182 369.346042 
L 507.347107 369.351278 
L 518.876033 369.345096 
L 530.404959 369.355032 
L 541.933884 369.35212 
L 553.46281 369.34248 
L 564.991736 369.35772 
L 576.520661 369.345611 
L 588.049587 369.278602 
L 599.578512 369.300617 
L 611.107438 369.345384 
L 622.636364 369.326008 
" clip-path="url(#pa5bacf5793)" style="fill: none; stroke: #ff7f0e; stroke-width: 1.5; stroke-linecap: square"/>
    <defs>
     <path id="mcb5d2eb0f7" d="M 0 3 
C 0.795609 3 1.55874 2.683901 2.12132 2.12132 
C 2.683901 1.55874 3 0.795609 3 0 
C 3 -0.795609 2.683901 -1.55874 2.12132 -2.12132 
C 1.55874 -2.683901 0.795609 -3 0 -3 
C -0.795609 -3 -1.55874 -2.683901 -2.12132 -2.12132 
C -2.683901 -1.55874 -3 -0.795609 -3 0 
C -3 0.795609 -2.683901 1.55874 -2.12132 2.12132 
C -1.55874 2.683901 -0.795609 3 0 3 
z
" style="stroke: #ff7f0e"/>
    </defs>
    <g clip-path="url(#pa5bacf5793)">
     <use xlink:href="#mcb5d2eb0f7" x="115.363636" y="369.359948" style="fill: #ff7f0e; stroke: #ff7f0e"/>
     <use xlink:href="#mcb5d2eb0f7" x="126.892562" y="369.359889" style="fill: #ff7f0e; stroke: #ff7f0e"/>
     <use xlink:href="#mcb5d2eb0f7" x="138.421488" y="369.36" style="fill: #ff7f0e; stroke: #ff7f0e"/>
     <use xlink:href="#mcb5d2eb0f7" x="149.950413" y="369.359942" style="fill: #ff7f0e; stroke: #ff7f0e"/>
     <use xlink:href="#mcb5d2eb0f7" x="161.479339" y="369.359921" style="fill: #ff7f0e; stroke: #ff7f0e"/>
     <use xlink:href="#mcb5d2eb0f7" x="173.008264" y="369.359901" style="fill: #ff7f0e; stroke: #ff7f0e"/>
     <use xlink:href="#mcb5d2eb0f7" x="184.53719" y="369.359861" style="fill: #ff7f0e; stroke: #ff7f0e"/>
     <use xlink:href="#mcb5d2eb0f7" x="196.066116" y="369.359954" style="fill: #ff7f0e; stroke: #ff7f0e"/>
     <use xlink:href="#mcb5d2eb0f7" x="207.595041" y="369.359882" style="fill: #ff7f0e; stroke: #ff7f0e"/>
     <use xlink:href="#mcb5d2eb0f7" x="219.123967" y="369.359969" style="fill: #ff7f0e; stroke: #ff7f0e"/>
     <use xlink:href="#mcb5d2eb0f7" x="230.652893" y="369.359964" style="fill: #ff7f0e; stroke: #ff7f0e"/>
     <use xlink:href="#mcb5d2eb0f7" x="242.181818" y="369.359893" style="fill: #ff7f0e; stroke: #ff7f0e"/>
     <use xlink:href="#mcb5d2eb0f7" x="253.710744" y="369.359723" style="fill: #ff7f0e; stroke: #ff7f0e"/>
     <use xlink:href="#mcb5d2eb0f7" x="265.239669" y="369.359927" style="fill: #ff7f0e; stroke: #ff7f0e"/>
     <use xlink:href="#mcb5d2eb0f7" x="276.768595" y="369.35993" style="fill: #ff7f0e; stroke: #ff7f0e"/>
     <use xlink:href="#mcb5d2eb0f7" x="288.297521" y="369.359801" style="fill: #ff7f0e; stroke: #ff7f0e"/>
     <use xlink:href="#mcb5d2eb0f7" x="299.826446" y="369.359867" style="fill: #ff7f0e; stroke: #ff7f0e"/>
     <use xlink:href="#mcb5d2eb0f7" x="311.355372" y="369.35971" style="fill: #ff7f0e; stroke: #ff7f0e"/>
     <use xlink:href="#mcb5d2eb0f7" x="322.884298" y="369.359129" style="fill: #ff7f0e; stroke: #ff7f0e"/>
     <use xlink:href="#mcb5d2eb0f7" x="334.413223" y="369.358575" style="fill: #ff7f0e; stroke: #ff7f0e"/>
     <use xlink:href="#mcb5d2eb0f7" x="345.942149" y="369.359106" style="fill: #ff7f0e; stroke: #ff7f0e"/>
     <use xlink:href="#mcb5d2eb0f7" x="357.471074" y="369.354797" style="fill: #ff7f0e; stroke: #ff7f0e"/>
     <use xlink:href="#mcb5d2eb0f7" x="369" y="369.354218" style="fill: #ff7f0e; stroke: #ff7f0e"/>
     <use xlink:href="#mcb5d2eb0f7" x="380.528926" y="369.353245" style="fill: #ff7f0e; stroke: #ff7f0e"/>
     <use xlink:href="#mcb5d2eb0f7" x="392.057851" y="369.355577" style="fill: #ff7f0e; stroke: #ff7f0e"/>
     <use xlink:href="#mcb5d2eb0f7" x="403.586777" y="369.358962" style="fill: #ff7f0e; stroke: #ff7f0e"/>
     <use xlink:href="#mcb5d2eb0f7" x="415.115702" y="369.35279" style="fill: #ff7f0e; stroke: #ff7f0e"/>
     <use xlink:href="#mcb5d2eb0f7" x="426.644628" y="369.350328" style="fill: #ff7f0e; stroke: #ff7f0e"/>
     <use xlink:href="#mcb5d2eb0f7" x="438.173554" y="369.352889" style="fill: #ff7f0e; stroke: #ff7f0e"/>
     <use xlink:href="#mcb5d2eb0f7" x="449.702479" y="369.347589" style="fill: #ff7f0e; stroke: #ff7f0e"/>
     <use xlink:href="#mcb5d2eb0f7" x="461.231405" y="369.350729" style="fill: #ff7f0e; stroke: #ff7f0e"/>
     <use xlink:href="#mcb5d2eb0f7" x="472.760331" y="369.346918" style="fill: #ff7f0e; stroke: #ff7f0e"/>
     <use xlink:href="#mcb5d2eb0f7" x="484.289256" y="369.353826" style="fill: #ff7f0e; stroke: #ff7f0e"/>
     <use xlink:href="#mcb5d2eb0f7" x="495.818182" y="369.346042" style="fill: #ff7f0e; stroke: #ff7f0e"/>
     <use xlink:href="#mcb5d2eb0f7" x="507.347107" y="369.351278" style="fill: #ff7f0e; stroke: #ff7f0e"/>
     <use xlink:href="#mcb5d2eb0f7" x="518.876033" y="369.345096" style="fill: #ff7f0e; stroke: #ff7f0e"/>
     <use xlink:href="#mcb5d2eb0f7" x="530.404959" y="369.355032" style="fill: #ff7f0e; stroke: #ff7f0e"/>
     <use xlink:href="#mcb5d2eb0f7" x="541.933884" y="369.35212" style="fill: #ff7f0e; stroke: #ff7f0e"/>
     <use xlink:href="#mcb5d2eb0f7" x="553.46281" y="369.34248" style="fill: #ff7f0e; stroke: #ff7f0e"/>
     <use xlink:href="#mcb5d2eb0f7" x="564.991736" y="369.35772" style="fill: #ff7f0e; stroke: #ff7f0e"/>
     <use xlink:href="#mcb5d2eb0f7" x="576.520661" y="369.345611" style="fill: #ff7f0e; stroke: #ff7f0e"/>
     <use xlink:href="#mcb5d2eb0f7" x="588.049587" y="369.278602" style="fill: #ff7f0e; stroke: #ff7f0e"/>
     <use xlink:href="#mcb5d2eb0f7" x="599.578512" y="369.300617" style="fill: #ff7f0e; stroke: #ff7f0e"/>
     <use xlink:href="#mcb5d2eb0f7" x="611.107438" y="369.345384" style="fill: #ff7f0e; stroke: #ff7f0e"/>
     <use xlink:href="#mcb5d2eb0f7" x="622.636364" y="369.326008" style="fill: #ff7f0e; stroke: #ff7f0e"/>
    </g>
   </g>
   <g id="line2d_31">
    <path d="M 115.363636 369.359943 
L 126.892562 369.359934 
L 138.421488 369.359942 
L 149.950413 369.359941 
L 161.479339 369.359937 
L 173.008264 369.359931 
L 184.53719 369.359927 
L 196.066116 369.359914 
L 207.595041 369.359916 
L 219.123967 369.3599 
L 230.652893 369.359881 
L 242.181818 369.35984 
L 253.710744 369.359773 
L 265.239669 369.359711 
L 276.768595 369.359551 
L 288.297521 369.359323 
L 299.826446 369.359006 
L 311.355372 369.358481 
L 322.884298 369.357103 
L 334.413223 369.355699 
L 345.942149 369.35358 
L 357.471074 369.349111 
L 369 369.341723 
L 380.528926 369.333707 
L 392.057851 369.318427 
L 403.586777 369.295326 
L 415.115702 369.255741 
L 426.644628 369.19217 
L 438.173554 369.093814 
L 449.702479 368.928221 
L 461.231405 368.658723 
L 472.760331 368.235497 
L 484.289256 367.54933 
L 495.818182 366.420711 
L 507.347107 365.266751 
L 518.876033 364.949075 
L 530.404959 360.737602 
L 541.933884 357.175416 
L 553.46281 353.535035 
L 564.991736 343.44626 
L 576.520661 300.660312 
L 588.049587 298.74947 
L 599.578512 260.268506 
L 611.107438 191.402004 
L 622.636364 66.96 
" clip-path="url(#pa5bacf5793)" style="fill: none; stroke: #2ca02c; stroke-width: 1.5; stroke-linecap: square"/>
    <defs>
     <path id="m1994fcbff0" d="M 0 3 
C 0.795609 3 1.55874 2.683901 2.12132 2.12132 
C 2.683901 1.55874 3 0.795609 3 0 
C 3 -0.795609 2.683901 -1.55874 2.12132 -2.12132 
C 1.55874 -2.683901 0.795609 -3 0 -3 
C -0.795609 -3 -1.55874 -2.683901 -2.12132 -2.12132 
C -2.683901 -1.55874 -3 -0.795609 -3 0 
C -3 0.795609 -2.683901 1.55874 -2.12132 2.12132 
C -1.55874 2.683901 -0.795609 3 0 3 
z
" style="stroke: #2ca02c"/>
    </defs>
    <g clip-path="url(#pa5bacf5793)">
     <use xlink:href="#m1994fcbff0" x="115.363636" y="369.359943" style="fill: #2ca02c; stroke: #2ca02c"/>
     <use xlink:href="#m1994fcbff0" x="126.892562" y="369.359934" style="fill: #2ca02c; stroke: #2ca02c"/>
     <use xlink:href="#m1994fcbff0" x="138.421488" y="369.359942" style="fill: #2ca02c; stroke: #2ca02c"/>
     <use xlink:href="#m1994fcbff0" x="149.950413" y="369.359941" style="fill: #2ca02c; stroke: #2ca02c"/>
     <use xlink:href="#m1994fcbff0" x="161.479339" y="369.359937" style="fill: #2ca02c; stroke: #2ca02c"/>
     <use xlink:href="#m1994fcbff0" x="173.008264" y="369.359931" style="fill: #2ca02c; stroke: #2ca02c"/>
     <use xlink:href="#m1994fcbff0" x="184.53719" y="369.359927" style="fill: #2ca02c; stroke: #2ca02c"/>
     <use xlink:href="#m1994fcbff0" x="196.066116" y="369.359914" style="fill: #2ca02c; stroke: #2ca02c"/>
     <use xlink:href="#m1994fcbff0" x="207.595041" y="369.359916" style="fill: #2ca02c; stroke: #2ca02c"/>
     <use xlink:href="#m1994fcbff0" x="219.123967" y="369.3599" style="fill: #2ca02c; stroke: #2ca02c"/>
     <use xlink:href="#m1994fcbff0" x="230.652893" y="369.359881" style="fill: #2ca02c; stroke: #2ca02c"/>
     <use xlink:href="#m1994fcbff0" x="242.181818" y="369.35984" style="fill: #2ca02c; stroke: #2ca02c"/>
     <use xlink:href="#m1994fcbff0" x="253.710744" y="369.359773" style="fill: #2ca02c; stroke: #2ca02c"/>
     <use xlink:href="#m1994fcbff0" x="265.239669" y="369.359711" style="fill: #2ca02c; stroke: #2ca02c"/>
     <use xlink:href="#m1994fcbff0" x="276.768595" y="369.359551" style="fill: #2ca02c; stroke: #2ca02c"/>
     <use xlink:href="#m1994fcbff0" x="288.297521" y="369.359323" style="fill: #2ca02c; stroke: #2ca02c"/>
     <use xlink:href="#m1994fcbff0" x="299.826446" y="369.359006" style="fill: #2ca02c; stroke: #2ca02c"/>
     <use xlink:href="#m1994fcbff0" x="311.355372" y="369.358481" style="fill: #2ca02c; stroke: #2ca02c"/>
     <use xlink:href="#m1994fcbff0" x="322.884298" y="369.357103" style="fill: #2ca02c; stroke: #2ca02c"/>
     <use xlink:href="#m1994fcbff0" x="334.413223" y="369.355699" style="fill: #2ca02c; stroke: #2ca02c"/>
     <use xlink:href="#m1994fcbff0" x="345.942149" y="369.35358" style="fill: #2ca02c; stroke: #2ca02c"/>
     <use xlink:href="#m1994fcbff0" x="357.471074" y="369.349111" style="fill: #2ca02c; stroke: #2ca02c"/>
     <use xlink:href="#m1994fcbff0" x="369" y="369.341723" style="fill: #2ca02c; stroke: #2ca02c"/>
     <use xlink:href="#m1994fcbff0" x="380.528926" y="369.333707" style="fill: #2ca02c; stroke: #2ca02c"/>
     <use xlink:href="#m1994fcbff0" x="392.057851" y="369.318427" style="fill: #2ca02c; stroke: #2ca02c"/>
     <use xlink:href="#m1994fcbff0" x="403.586777" y="369.295326" style="fill: #2ca02c; stroke: #2ca02c"/>
     <use xlink:href="#m1994fcbff0" x="415.115702" y="369.255741" style="fill: #2ca02c; stroke: #2ca02c"/>
     <use xlink:href="#m1994fcbff0" x="426.644628" y="369.19217" style="fill: #2ca02c; stroke: #2ca02c"/>
     <use xlink:href="#m1994fcbff0" x="438.173554" y="369.093814" style="fill: #2ca02c; stroke: #2ca02c"/>
     <use xlink:href="#m1994fcbff0" x="449.702479" y="368.928221" style="fill: #2ca02c; stroke: #2ca02c"/>
     <use xlink:href="#m1994fcbff0" x="461.231405" y="368.658723" style="fill: #2ca02c; stroke: #2ca02c"/>
     <use xlink:href="#m1994fcbff0" x="472.760331" y="368.235497" style="fill: #2ca02c; stroke: #2ca02c"/>
     <use xlink:href="#m1994fcbff0" x="484.289256" y="367.54933" style="fill: #2ca02c; stroke: #2ca02c"/>
     <use xlink:href="#m1994fcbff0" x="495.818182" y="366.420711" style="fill: #2ca02c; stroke: #2ca02c"/>
     <use xlink:href="#m1994fcbff0" x="507.347107" y="365.266751" style="fill: #2ca02c; stroke: #2ca02c"/>
     <use xlink:href="#m1994fcbff0" x="518.876033" y="364.949075" style="fill: #2ca02c; stroke: #2ca02c"/>
     <use xlink:href="#m1994fcbff0" x="530.404959" y="360.737602" style="fill: #2ca02c; stroke: #2ca02c"/>
     <use xlink:href="#m1994fcbff0" x="541.933884" y="357.175416" style="fill: #2ca02c; stroke: #2ca02c"/>
     <use xlink:href="#m1994fcbff0" x="553.46281" y="353.535035" style="fill: #2ca02c; stroke: #2ca02c"/>
     <use xlink:href="#m1994fcbff0" x="564.991736" y="343.44626" style="fill: #2ca02c; stroke: #2ca02c"/>
     <use xlink:href="#m1994fcbff0" x="576.520661" y="300.660312" style="fill: #2ca02c; stroke: #2ca02c"/>
     <use xlink:href="#m1994fcbff0" x="588.049587" y="298.74947" style="fill: #2ca02c; stroke: #2ca02c"/>
     <use xlink:href="#m1994fcbff0" x="599.578512" y="260.268506" style="fill: #2ca02c; stroke: #2ca02c"/>
     <use xlink:href="#m1994fcbff0" x="611.107438" y="191.402004" style="fill: #2ca02c; stroke: #2ca02c"/>
     <use xlink:href="#m1994fcbff0" x="622.636364" y="66.96" style="fill: #2ca02c; stroke: #2ca02c"/>
    </g>
   </g>
   <g id="patch_3">
    <path d="M 90 384.48 
L 90 51.84 
" style="fill: none; stroke: #000000; stroke-width: 0.8; stroke-linejoin: miter; stroke-linecap: square"/>
   </g>
   <g id="patch_4">
    <path d="M 648 384.48 
L 648 51.84 
" style="fill: none; stroke: #000000; stroke-width: 0.8; stroke-linejoin: miter; stroke-linecap: square"/>
   </g>
   <g id="patch_5">
    <path d="M 90 384.48 
L 648 384.48 
" style="fill: none; stroke: #000000; stroke-width: 0.8; stroke-linejoin: miter; stroke-linecap: square"/>
   </g>
   <g id="patch_6">
    <path d="M 90 51.84 
L 648 51.84 
" style="fill: none; stroke: #000000; stroke-width: 0.8; stroke-linejoin: miter; stroke-linecap: square"/>
   </g>
   <g id="text_17">
    <!-- Tempo médio pelo Número de Entradas (Alt) -->
    <g transform="translate(235.5375 45.84) scale(0.12 -0.12)">
     <defs>
      <path id="DejaVuSans-6c" d="M 603 4863 
L 1178 4863 
L 1178 0 
L 603 0 
L 603 4863 
z
" transform="scale(0.015625)"/>
      <path id="DejaVuSans-4e" d="M 628 4666 
L 1478 4666 
L 3547 763 
L 3547 4666 
L 4159 4666 
L 4159 0 
L 3309 0 
L 1241 3903 
L 1241 0 
L 628 0 
L 628 4666 
z
" transform="scale(0.015625)"/>
      <path id="DejaVuSans-fa" d="M 544 1381 
L 544 3500 
L 1119 3500 
L 1119 1403 
Q 1119 906 1312 657 
Q 1506 409 1894 409 
Q 2359 409 2629 706 
Q 2900 1003 2900 1516 
L 2900 3500 
L 3475 3500 
L 3475 0 
L 2900 0 
L 2900 538 
Q 2691 219 2414 64 
Q 2138 -91 1772 -91 
Q 1169 -91 856 284 
Q 544 659 544 1381 
z
M 1991 3584 
L 1991 3584 
z
M 2419 5119 
L 3041 5119 
L 2022 3944 
L 1544 3944 
L 2419 5119 
z
" transform="scale(0.015625)"/>
      <path id="DejaVuSans-41" d="M 2188 4044 
L 1331 1722 
L 3047 1722 
L 2188 4044 
z
M 1831 4666 
L 2547 4666 
L 4325 0 
L 3669 0 
L 3244 1197 
L 1141 1197 
L 716 0 
L 50 0 
L 1831 4666 
z
" transform="scale(0.015625)"/>
     </defs>
     <use xlink:href="#DejaVuSans-54"/>
     <use xlink:href="#DejaVuSans-65" x="44.083984"/>
     <use xlink:href="#DejaVuSans-6d" x="105.607422"/>
     <use xlink:href="#DejaVuSans-70" x="203.019531"/>
     <use xlink:href="#DejaVuSans-6f" x="266.496094"/>
     <use xlink:href="#DejaVuSans-20" x="327.677734"/>
     <use xlink:href="#DejaVuSans-6d" x="359.464844"/>
     <use xlink:href="#DejaVuSans-e9" x="456.876953"/>
     <use xlink:href="#DejaVuSans-64" x="518.400391"/>
     <use xlink:href="#DejaVuSans-69" x="581.876953"/>
     <use xlink:href="#DejaVuSans-6f" x="609.660156"/>
     <use xlink:href="#DejaVuSans-20" x="670.841797"/>
     <use xlink:href="#DejaVuSans-70" x="702.628906"/>
     <use xlink:href="#DejaVuSans-65" x="766.105469"/>
     <use xlink:href="#DejaVuSans-6c" x="827.628906"/>
     <use xlink:href="#DejaVuSans-6f" x="855.412109"/>
     <use xlink:href="#DejaVuSans-20" x="916.59375"/>
     <use xlink:href="#DejaVuSans-4e" x="948.380859"/>
     <use xlink:href="#DejaVuSans-fa" x="1023.185547"/>
     <use xlink:href="#DejaVuSans-6d" x="1086.564453"/>
     <use xlink:href="#DejaVuSans-65" x="1183.976562"/>
     <use xlink:href="#DejaVuSans-72" x="1245.5"/>
     <use xlink:href="#DejaVuSans-6f" x="1284.363281"/>
     <use xlink:href="#DejaVuSans-20" x="1345.544922"/>
     <use xlink:href="#DejaVuSans-64" x="1377.332031"/>
     <use xlink:href="#DejaVuSans-65" x="1440.808594"/>
     <use xlink:href="#DejaVuSans-20" x="1502.332031"/>
     <use xlink:href="#DejaVuSans-45" x="1534.119141"/>
     <use xlink:href="#DejaVuSans-6e" x="1597.302734"/>
     <use xlink:href="#DejaVuSans-74" x="1660.681641"/>
     <use xlink:href="#DejaVuSans-72" x="1699.890625"/>
     <use xlink:href="#DejaVuSans-61" x="1741.003906"/>
     <use xlink:href="#DejaVuSans-64" x="1802.283203"/>
     <use xlink:href="#DejaVuSans-61" x="1865.759766"/>
     <use xlink:href="#DejaVuSans-73" x="1927.039062"/>
     <use xlink:href="#DejaVuSans-20" x="1979.138672"/>
     <use xlink:href="#DejaVuSans-28" x="2010.925781"/>
     <use xlink:href="#DejaVuSans-41" x="2049.939453"/>
     <use xlink:href="#DejaVuSans-6c" x="2118.347656"/>
     <use xlink:href="#DejaVuSans-74" x="2146.130859"/>
     <use xlink:href="#DejaVuSans-29" x="2185.339844"/>
    </g>
   </g>
   <g id="legend_1">
    <g id="patch_7">
     <path d="M 97 104.674375 
L 220.904688 104.674375 
Q 222.904688 104.674375 222.904688 102.674375 
L 222.904688 58.84 
Q 222.904688 56.84 220.904688 56.84 
L 97 56.84 
Q 95 56.84 95 58.84 
L 95 102.674375 
Q 95 104.674375 97 104.674375 
z
" style="fill: #ffffff; opacity: 0.8; stroke: #cccccc; stroke-linejoin: miter"/>
    </g>
    <g id="line2d_32">
     <path d="M 99 65.338437 
L 109 65.338437 
L 119 65.338437 
" style="fill: none; stroke: #1f77b4; stroke-width: 1.5; stroke-linecap: square"/>
     <g>
      <use xlink:href="#meda5b2b97c" x="109" y="65.338437" style="fill: #1f77b4; stroke: #1f77b4"/>
     </g>
    </g>
    <g id="text_18">
     <!-- Tempo de Usuário -->
     <g transform="translate(127 68.838437) scale(0.1 -0.1)">
      <defs>
       <path id="DejaVuSans-55" d="M 556 4666 
L 1191 4666 
L 1191 1831 
Q 1191 1081 1462 751 
Q 1734 422 2344 422 
Q 2950 422 3222 751 
Q 3494 1081 3494 1831 
L 3494 4666 
L 4128 4666 
L 4128 1753 
Q 4128 841 3676 375 
Q 3225 -91 2344 -91 
Q 1459 -91 1007 375 
Q 556 841 556 1753 
L 556 4666 
z
" transform="scale(0.015625)"/>
       <path id="DejaVuSans-e1" d="M 2194 1759 
Q 1497 1759 1228 1600 
Q 959 1441 959 1056 
Q 959 750 1161 570 
Q 1363 391 1709 391 
Q 2188 391 2477 730 
Q 2766 1069 2766 1631 
L 2766 1759 
L 2194 1759 
z
M 3341 1997 
L 3341 0 
L 2766 0 
L 2766 531 
Q 2569 213 2275 61 
Q 1981 -91 1556 -91 
Q 1019 -91 701 211 
Q 384 513 384 1019 
Q 384 1609 779 1909 
Q 1175 2209 1959 2209 
L 2766 2209 
L 2766 2266 
Q 2766 2663 2505 2880 
Q 2244 3097 1772 3097 
Q 1472 3097 1187 3025 
Q 903 2953 641 2809 
L 641 3341 
Q 956 3463 1253 3523 
Q 1550 3584 1831 3584 
Q 2591 3584 2966 3190 
Q 3341 2797 3341 1997 
z
M 2291 5119 
L 2913 5119 
L 1894 3944 
L 1416 3944 
L 2291 5119 
z
" transform="scale(0.015625)"/>
      </defs>
      <use xlink:href="#DejaVuSans-54"/>
      <use xlink:href="#DejaVuSans-65" x="44.083984"/>
      <use xlink:href="#DejaVuSans-6d" x="105.607422"/>
      <use xlink:href="#DejaVuSans-70" x="203.019531"/>
      <use xlink:href="#DejaVuSans-6f" x="266.496094"/>
      <use xlink:href="#DejaVuSans-20" x="327.677734"/>
      <use xlink:href="#DejaVuSans-64" x="359.464844"/>
      <use xlink:href="#DejaVuSans-65" x="422.941406"/>
      <use xlink:href="#DejaVuSans-20" x="484.464844"/>
      <use xlink:href="#DejaVuSans-55" x="516.251953"/>
      <use xlink:href="#DejaVuSans-73" x="589.445312"/>
      <use xlink:href="#DejaVuSans-75" x="641.544922"/>
      <use xlink:href="#DejaVuSans-e1" x="704.923828"/>
      <use xlink:href="#DejaVuSans-72" x="766.203125"/>
      <use xlink:href="#DejaVuSans-69" x="807.316406"/>
      <use xlink:href="#DejaVuSans-6f" x="835.099609"/>
     </g>
    </g>
    <g id="line2d_33">
     <path d="M 99 80.016563 
L 109 80.016563 
L 119 80.016563 
" style="fill: none; stroke: #ff7f0e; stroke-width: 1.5; stroke-linecap: square"/>
     <g>
      <use xlink:href="#mcb5d2eb0f7" x="109" y="80.016563" style="fill: #ff7f0e; stroke: #ff7f0e"/>
     </g>
    </g>
    <g id="text_19">
     <!-- Tempo de Sistema -->
     <g transform="translate(127 83.516563) scale(0.1 -0.1)">
      <defs>
       <path id="DejaVuSans-53" d="M 3425 4513 
L 3425 3897 
Q 3066 4069 2747 4153 
Q 2428 4238 2131 4238 
Q 1616 4238 1336 4038 
Q 1056 3838 1056 3469 
Q 1056 3159 1242 3001 
Q 1428 2844 1947 2747 
L 2328 2669 
Q 3034 2534 3370 2195 
Q 3706 1856 3706 1288 
Q 3706 609 3251 259 
Q 2797 -91 1919 -91 
Q 1588 -91 1214 -16 
Q 841 59 441 206 
L 441 856 
Q 825 641 1194 531 
Q 1563 422 1919 422 
Q 2459 422 2753 634 
Q 3047 847 3047 1241 
Q 3047 1584 2836 1778 
Q 2625 1972 2144 2069 
L 1759 2144 
Q 1053 2284 737 2584 
Q 422 2884 422 3419 
Q 422 4038 858 4394 
Q 1294 4750 2059 4750 
Q 2388 4750 2728 4690 
Q 3069 4631 3425 4513 
z
" transform="scale(0.015625)"/>
      </defs>
      <use xlink:href="#DejaVuSans-54"/>
      <use xlink:href="#DejaVuSans-65" x="44.083984"/>
      <use xlink:href="#DejaVuSans-6d" x="105.607422"/>
      <use xlink:href="#DejaVuSans-70" x="203.019531"/>
      <use xlink:href="#DejaVuSans-6f" x="266.496094"/>
      <use xlink:href="#DejaVuSans-20" x="327.677734"/>
      <use xlink:href="#DejaVuSans-64" x="359.464844"/>
      <use xlink:href="#DejaVuSans-65" x="422.941406"/>
      <use xlink:href="#DejaVuSans-20" x="484.464844"/>
      <use xlink:href="#DejaVuSans-53" x="516.251953"/>
      <use xlink:href="#DejaVuSans-69" x="579.728516"/>
      <use xlink:href="#DejaVuSans-73" x="607.511719"/>
      <use xlink:href="#DejaVuSans-74" x="659.611328"/>
      <use xlink:href="#DejaVuSans-65" x="698.820312"/>
      <use xlink:href="#DejaVuSans-6d" x="760.34375"/>
      <use xlink:href="#DejaVuSans-61" x="857.755859"/>
     </g>
    </g>
    <g id="line2d_34">
     <path d="M 99 95.094688 
L 109 95.094688 
L 119 95.094688 
" style="fill: none; stroke: #2ca02c; stroke-width: 1.5; stroke-linecap: square"/>
     <g>
      <use xlink:href="#m1994fcbff0" x="109" y="95.094688" style="fill: #2ca02c; stroke: #2ca02c"/>
     </g>
    </g>
    <g id="text_20">
     <!-- Tempo de Relógio -->
     <g transform="translate(127 98.594688) scale(0.1 -0.1)">
      <defs>
       <path id="DejaVuSans-52" d="M 2841 2188 
Q 3044 2119 3236 1894 
Q 3428 1669 3622 1275 
L 4263 0 
L 3584 0 
L 2988 1197 
Q 2756 1666 2539 1819 
Q 2322 1972 1947 1972 
L 1259 1972 
L 1259 0 
L 628 0 
L 628 4666 
L 2053 4666 
Q 2853 4666 3247 4331 
Q 3641 3997 3641 3322 
Q 3641 2881 3436 2590 
Q 3231 2300 2841 2188 
z
M 1259 4147 
L 1259 2491 
L 2053 2491 
Q 2509 2491 2742 2702 
Q 2975 2913 2975 3322 
Q 2975 3731 2742 3939 
Q 2509 4147 2053 4147 
L 1259 4147 
z
" transform="scale(0.015625)"/>
       <path id="DejaVuSans-f3" d="M 1959 3097 
Q 1497 3097 1228 2736 
Q 959 2375 959 1747 
Q 959 1119 1226 758 
Q 1494 397 1959 397 
Q 2419 397 2687 759 
Q 2956 1122 2956 1747 
Q 2956 2369 2687 2733 
Q 2419 3097 1959 3097 
z
M 1959 3584 
Q 2709 3584 3137 3096 
Q 3566 2609 3566 1747 
Q 3566 888 3137 398 
Q 2709 -91 1959 -91 
Q 1206 -91 779 398 
Q 353 888 353 1747 
Q 353 2609 779 3096 
Q 1206 3584 1959 3584 
z
M 2394 5119 
L 3016 5119 
L 1997 3944 
L 1519 3944 
L 2394 5119 
z
" transform="scale(0.015625)"/>
      </defs>
      <use xlink:href="#DejaVuSans-54"/>
      <use xlink:href="#DejaVuSans-65" x="44.083984"/>
      <use xlink:href="#DejaVuSans-6d" x="105.607422"/>
      <use xlink:href="#DejaVuSans-70" x="203.019531"/>
      <use xlink:href="#DejaVuSans-6f" x="266.496094"/>
      <use xlink:href="#DejaVuSans-20" x="327.677734"/>
      <use xlink:href="#DejaVuSans-64" x="359.464844"/>
      <use xlink:href="#DejaVuSans-65" x="422.941406"/>
      <use xlink:href="#DejaVuSans-20" x="484.464844"/>
      <use xlink:href="#DejaVuSans-52" x="516.251953"/>
      <use xlink:href="#DejaVuSans-65" x="581.234375"/>
      <use xlink:href="#DejaVuSans-6c" x="642.757812"/>
      <use xlink:href="#DejaVuSans-f3" x="670.541016"/>
      <use xlink:href="#DejaVuSans-67" x="731.722656"/>
      <use xlink:href="#DejaVuSans-69" x="795.199219"/>
      <use xlink:href="#DejaVuSans-6f" x="822.982422"/>
     </g>
    </g>
   </g>
  </g>
 </g>
 <defs>
  <clipPath id="pa5bacf5793">
   <rect x="90" y="51.84" width="558" height="332.64"/>
  </clipPath>
 </defs>
</svg>
