<?xml version="1.0" encoding="utf-8" standalone="no"?>
<!DOCTYPE svg PUBLIC "-//W3C//DTD SVG 1.1//EN"
  "http://www.w3.org/Graphics/SVG/1.1/DTD/svg11.dtd">
<svg xmlns:xlink="http://www.w3.org/1999/xlink" width="720pt" height="432pt" viewBox="0 0 720 432" xmlns="http://www.w3.org/2000/svg" version="1.1">
 <metadata>
  <rdf:RDF xmlns:dc="http://purl.org/dc/elements/1.1/" xmlns:cc="http://creativecommons.org/ns#" xmlns:rdf="http://www.w3.org/1999/02/22-rdf-syntax-ns#">
   <cc:Work>
    <dc:type rdf:resource="http://purl.org/dc/dcmitype/StillImage"/>
    <dc:date>2024-07-15T19:21:03.163785</dc:date>
    <dc:format>image/svg+xml</dc:format>
    <dc:creator>
     <cc:Agent>
      <dc:title>Matplotlib v3.8.4, https://matplotlib.org/</dc:title>
     </cc:Agent>
    </dc:creator>
   </cc:Work>
  </rdf:RDF>
 </metadata>
 <defs>
  <style type="text/css">*{stroke-linejoin: round; stroke-linecap: butt}</style>
 </defs>
 <g id="figure_1">
  <g id="patch_1">
   <path d="M 0 432 
L 720 432 
L 720 0 
L 0 0 
z
" style="fill: #ffffff"/>
  </g>
  <g id="axes_1">
   <g id="patch_2">
    <path d="M 90 384.48 
L 648 384.48 
L 648 51.84 
L 90 51.84 
z
" style="fill: #ffffff"/>
   </g>
   <g id="matplotlib.axis_1">
    <g id="xtick_1">
     <g id="line2d_1">
      <path d="M 171.727273 384.48 
L 171.727273 51.84 
" clip-path="url(#p3fd9da37a4)" style="fill: none; stroke: #b0b0b0; stroke-width: 0.8; stroke-linecap: square"/>
     </g>
     <g id="line2d_2">
      <defs>
       <path id="m63d5d7eb88" d="M 0 0 
L 0 3.5 
" style="stroke: #000000; stroke-width: 0.8"/>
      </defs>
      <g>
       <use xlink:href="#m63d5d7eb88" x="171.727273" y="384.48" style="stroke: #000000; stroke-width: 0.8"/>
      </g>
     </g>
     <g id="text_1">
      <!-- 20000 -->
      <g transform="translate(155.821023 399.078438) scale(0.1 -0.1)">
       <defs>
        <path id="DejaVuSans-32" d="M 1228 531 
L 3431 531 
L 3431 0 
L 469 0 
L 469 531 
Q 828 903 1448 1529 
Q 2069 2156 2228 2338 
Q 2531 2678 2651 2914 
Q 2772 3150 2772 3378 
Q 2772 3750 2511 3984 
Q 2250 4219 1831 4219 
Q 1534 4219 1204 4116 
Q 875 4013 500 3803 
L 500 4441 
Q 881 4594 1212 4672 
Q 1544 4750 1819 4750 
Q 2544 4750 2975 4387 
Q 3406 4025 3406 3419 
Q 3406 3131 3298 2873 
Q 3191 2616 2906 2266 
Q 2828 2175 2409 1742 
Q 1991 1309 1228 531 
z
" transform="scale(0.015625)"/>
        <path id="DejaVuSans-30" d="M 2034 4250 
Q 1547 4250 1301 3770 
Q 1056 3291 1056 2328 
Q 1056 1369 1301 889 
Q 1547 409 2034 409 
Q 2525 409 2770 889 
Q 3016 1369 3016 2328 
Q 3016 3291 2770 3770 
Q 2525 4250 2034 4250 
z
M 2034 4750 
Q 2819 4750 3233 4129 
Q 3647 3509 3647 2328 
Q 3647 1150 3233 529 
Q 2819 -91 2034 -91 
Q 1250 -91 836 529 
Q 422 1150 422 2328 
Q 422 3509 836 4129 
Q 1250 4750 2034 4750 
z
" transform="scale(0.015625)"/>
       </defs>
       <use xlink:href="#DejaVuSans-32"/>
       <use xlink:href="#DejaVuSans-30" x="63.623047"/>
       <use xlink:href="#DejaVuSans-30" x="127.246094"/>
       <use xlink:href="#DejaVuSans-30" x="190.869141"/>
       <use xlink:href="#DejaVuSans-30" x="254.492188"/>
      </g>
     </g>
    </g>
    <g id="xtick_2">
     <g id="line2d_3">
      <path d="M 284.454545 384.48 
L 284.454545 51.84 
" clip-path="url(#p3fd9da37a4)" style="fill: none; stroke: #b0b0b0; stroke-width: 0.8; stroke-linecap: square"/>
     </g>
     <g id="line2d_4">
      <g>
       <use xlink:href="#m63d5d7eb88" x="284.454545" y="384.48" style="stroke: #000000; stroke-width: 0.8"/>
      </g>
     </g>
     <g id="text_2">
      <!-- 40000 -->
      <g transform="translate(268.548295 399.078438) scale(0.1 -0.1)">
       <defs>
        <path id="DejaVuSans-34" d="M 2419 4116 
L 825 1625 
L 2419 1625 
L 2419 4116 
z
M 2253 4666 
L 3047 4666 
L 3047 1625 
L 3713 1625 
L 3713 1100 
L 3047 1100 
L 3047 0 
L 2419 0 
L 2419 1100 
L 313 1100 
L 313 1709 
L 2253 4666 
z
" transform="scale(0.015625)"/>
       </defs>
       <use xlink:href="#DejaVuSans-34"/>
       <use xlink:href="#DejaVuSans-30" x="63.623047"/>
       <use xlink:href="#DejaVuSans-30" x="127.246094"/>
       <use xlink:href="#DejaVuSans-30" x="190.869141"/>
       <use xlink:href="#DejaVuSans-30" x="254.492188"/>
      </g>
     </g>
    </g>
    <g id="xtick_3">
     <g id="line2d_5">
      <path d="M 397.181818 384.48 
L 397.181818 51.84 
" clip-path="url(#p3fd9da37a4)" style="fill: none; stroke: #b0b0b0; stroke-width: 0.8; stroke-linecap: square"/>
     </g>
     <g id="line2d_6">
      <g>
       <use xlink:href="#m63d5d7eb88" x="397.181818" y="384.48" style="stroke: #000000; stroke-width: 0.8"/>
      </g>
     </g>
     <g id="text_3">
      <!-- 60000 -->
      <g transform="translate(381.275568 399.078438) scale(0.1 -0.1)">
       <defs>
        <path id="DejaVuSans-36" d="M 2113 2584 
Q 1688 2584 1439 2293 
Q 1191 2003 1191 1497 
Q 1191 994 1439 701 
Q 1688 409 2113 409 
Q 2538 409 2786 701 
Q 3034 994 3034 1497 
Q 3034 2003 2786 2293 
Q 2538 2584 2113 2584 
z
M 3366 4563 
L 3366 3988 
Q 3128 4100 2886 4159 
Q 2644 4219 2406 4219 
Q 1781 4219 1451 3797 
Q 1122 3375 1075 2522 
Q 1259 2794 1537 2939 
Q 1816 3084 2150 3084 
Q 2853 3084 3261 2657 
Q 3669 2231 3669 1497 
Q 3669 778 3244 343 
Q 2819 -91 2113 -91 
Q 1303 -91 875 529 
Q 447 1150 447 2328 
Q 447 3434 972 4092 
Q 1497 4750 2381 4750 
Q 2619 4750 2861 4703 
Q 3103 4656 3366 4563 
z
" transform="scale(0.015625)"/>
       </defs>
       <use xlink:href="#DejaVuSans-36"/>
       <use xlink:href="#DejaVuSans-30" x="63.623047"/>
       <use xlink:href="#DejaVuSans-30" x="127.246094"/>
       <use xlink:href="#DejaVuSans-30" x="190.869141"/>
       <use xlink:href="#DejaVuSans-30" x="254.492188"/>
      </g>
     </g>
    </g>
    <g id="xtick_4">
     <g id="line2d_7">
      <path d="M 509.909091 384.48 
L 509.909091 51.84 
" clip-path="url(#p3fd9da37a4)" style="fill: none; stroke: #b0b0b0; stroke-width: 0.8; stroke-linecap: square"/>
     </g>
     <g id="line2d_8">
      <g>
       <use xlink:href="#m63d5d7eb88" x="509.909091" y="384.48" style="stroke: #000000; stroke-width: 0.8"/>
      </g>
     </g>
     <g id="text_4">
      <!-- 80000 -->
      <g transform="translate(494.002841 399.078438) scale(0.1 -0.1)">
       <defs>
        <path id="DejaVuSans-38" d="M 2034 2216 
Q 1584 2216 1326 1975 
Q 1069 1734 1069 1313 
Q 1069 891 1326 650 
Q 1584 409 2034 409 
Q 2484 409 2743 651 
Q 3003 894 3003 1313 
Q 3003 1734 2745 1975 
Q 2488 2216 2034 2216 
z
M 1403 2484 
Q 997 2584 770 2862 
Q 544 3141 544 3541 
Q 544 4100 942 4425 
Q 1341 4750 2034 4750 
Q 2731 4750 3128 4425 
Q 3525 4100 3525 3541 
Q 3525 3141 3298 2862 
Q 3072 2584 2669 2484 
Q 3125 2378 3379 2068 
Q 3634 1759 3634 1313 
Q 3634 634 3220 271 
Q 2806 -91 2034 -91 
Q 1263 -91 848 271 
Q 434 634 434 1313 
Q 434 1759 690 2068 
Q 947 2378 1403 2484 
z
M 1172 3481 
Q 1172 3119 1398 2916 
Q 1625 2713 2034 2713 
Q 2441 2713 2670 2916 
Q 2900 3119 2900 3481 
Q 2900 3844 2670 4047 
Q 2441 4250 2034 4250 
Q 1625 4250 1398 4047 
Q 1172 3844 1172 3481 
z
" transform="scale(0.015625)"/>
       </defs>
       <use xlink:href="#DejaVuSans-38"/>
       <use xlink:href="#DejaVuSans-30" x="63.623047"/>
       <use xlink:href="#DejaVuSans-30" x="127.246094"/>
       <use xlink:href="#DejaVuSans-30" x="190.869141"/>
       <use xlink:href="#DejaVuSans-30" x="254.492188"/>
      </g>
     </g>
    </g>
    <g id="xtick_5">
     <g id="line2d_9">
      <path d="M 622.636364 384.48 
L 622.636364 51.84 
" clip-path="url(#p3fd9da37a4)" style="fill: none; stroke: #b0b0b0; stroke-width: 0.8; stroke-linecap: square"/>
     </g>
     <g id="line2d_10">
      <g>
       <use xlink:href="#m63d5d7eb88" x="622.636364" y="384.48" style="stroke: #000000; stroke-width: 0.8"/>
      </g>
     </g>
     <g id="text_5">
      <!-- 100000 -->
      <g transform="translate(603.548864 399.078438) scale(0.1 -0.1)">
       <defs>
        <path id="DejaVuSans-31" d="M 794 531 
L 1825 531 
L 1825 4091 
L 703 3866 
L 703 4441 
L 1819 4666 
L 2450 4666 
L 2450 531 
L 3481 531 
L 3481 0 
L 794 0 
L 794 531 
z
" transform="scale(0.015625)"/>
       </defs>
       <use xlink:href="#DejaVuSans-31"/>
       <use xlink:href="#DejaVuSans-30" x="63.623047"/>
       <use xlink:href="#DejaVuSans-30" x="127.246094"/>
       <use xlink:href="#DejaVuSans-30" x="190.869141"/>
       <use xlink:href="#DejaVuSans-30" x="254.492188"/>
       <use xlink:href="#DejaVuSans-30" x="318.115234"/>
      </g>
     </g>
    </g>
    <g id="text_6">
     <!-- Tamanho das Entradas (n) -->
     <g transform="translate(303.444531 412.756563) scale(0.1 -0.1)">
      <defs>
       <path id="DejaVuSans-54" d="M -19 4666 
L 3928 4666 
L 3928 4134 
L 2272 4134 
L 2272 0 
L 1638 0 
L 1638 4134 
L -19 4134 
L -19 4666 
z
" transform="scale(0.015625)"/>
       <path id="DejaVuSans-61" d="M 2194 1759 
Q 1497 1759 1228 1600 
Q 959 1441 959 1056 
Q 959 750 1161 570 
Q 1363 391 1709 391 
Q 2188 391 2477 730 
Q 2766 1069 2766 1631 
L 2766 1759 
L 2194 1759 
z
M 3341 1997 
L 3341 0 
L 2766 0 
L 2766 531 
Q 2569 213 2275 61 
Q 1981 -91 1556 -91 
Q 1019 -91 701 211 
Q 384 513 384 1019 
Q 384 1609 779 1909 
Q 1175 2209 1959 2209 
L 2766 2209 
L 2766 2266 
Q 2766 2663 2505 2880 
Q 2244 3097 1772 3097 
Q 1472 3097 1187 3025 
Q 903 2953 641 2809 
L 641 3341 
Q 956 3463 1253 3523 
Q 1550 3584 1831 3584 
Q 2591 3584 2966 3190 
Q 3341 2797 3341 1997 
z
" transform="scale(0.015625)"/>
       <path id="DejaVuSans-6d" d="M 3328 2828 
Q 3544 3216 3844 3400 
Q 4144 3584 4550 3584 
Q 5097 3584 5394 3201 
Q 5691 2819 5691 2113 
L 5691 0 
L 5113 0 
L 5113 2094 
Q 5113 2597 4934 2840 
Q 4756 3084 4391 3084 
Q 3944 3084 3684 2787 
Q 3425 2491 3425 1978 
L 3425 0 
L 2847 0 
L 2847 2094 
Q 2847 2600 2669 2842 
Q 2491 3084 2119 3084 
Q 1678 3084 1418 2786 
Q 1159 2488 1159 1978 
L 1159 0 
L 581 0 
L 581 3500 
L 1159 3500 
L 1159 2956 
Q 1356 3278 1631 3431 
Q 1906 3584 2284 3584 
Q 2666 3584 2933 3390 
Q 3200 3197 3328 2828 
z
" transform="scale(0.015625)"/>
       <path id="DejaVuSans-6e" d="M 3513 2113 
L 3513 0 
L 2938 0 
L 2938 2094 
Q 2938 2591 2744 2837 
Q 2550 3084 2163 3084 
Q 1697 3084 1428 2787 
Q 1159 2491 1159 1978 
L 1159 0 
L 581 0 
L 581 3500 
L 1159 3500 
L 1159 2956 
Q 1366 3272 1645 3428 
Q 1925 3584 2291 3584 
Q 2894 3584 3203 3211 
Q 3513 2838 3513 2113 
z
" transform="scale(0.015625)"/>
       <path id="DejaVuSans-68" d="M 3513 2113 
L 3513 0 
L 2938 0 
L 2938 2094 
Q 2938 2591 2744 2837 
Q 2550 3084 2163 3084 
Q 1697 3084 1428 2787 
Q 1159 2491 1159 1978 
L 1159 0 
L 581 0 
L 581 4863 
L 1159 4863 
L 1159 2956 
Q 1366 3272 1645 3428 
Q 1925 3584 2291 3584 
Q 2894 3584 3203 3211 
Q 3513 2838 3513 2113 
z
" transform="scale(0.015625)"/>
       <path id="DejaVuSans-6f" d="M 1959 3097 
Q 1497 3097 1228 2736 
Q 959 2375 959 1747 
Q 959 1119 1226 758 
Q 1494 397 1959 397 
Q 2419 397 2687 759 
Q 2956 1122 2956 1747 
Q 2956 2369 2687 2733 
Q 2419 3097 1959 3097 
z
M 1959 3584 
Q 2709 3584 3137 3096 
Q 3566 2609 3566 1747 
Q 3566 888 3137 398 
Q 2709 -91 1959 -91 
Q 1206 -91 779 398 
Q 353 888 353 1747 
Q 353 2609 779 3096 
Q 1206 3584 1959 3584 
z
" transform="scale(0.015625)"/>
       <path id="DejaVuSans-20" transform="scale(0.015625)"/>
       <path id="DejaVuSans-64" d="M 2906 2969 
L 2906 4863 
L 3481 4863 
L 3481 0 
L 2906 0 
L 2906 525 
Q 2725 213 2448 61 
Q 2172 -91 1784 -91 
Q 1150 -91 751 415 
Q 353 922 353 1747 
Q 353 2572 751 3078 
Q 1150 3584 1784 3584 
Q 2172 3584 2448 3432 
Q 2725 3281 2906 2969 
z
M 947 1747 
Q 947 1113 1208 752 
Q 1469 391 1925 391 
Q 2381 391 2643 752 
Q 2906 1113 2906 1747 
Q 2906 2381 2643 2742 
Q 2381 3103 1925 3103 
Q 1469 3103 1208 2742 
Q 947 2381 947 1747 
z
" transform="scale(0.015625)"/>
       <path id="DejaVuSans-73" d="M 2834 3397 
L 2834 2853 
Q 2591 2978 2328 3040 
Q 2066 3103 1784 3103 
Q 1356 3103 1142 2972 
Q 928 2841 928 2578 
Q 928 2378 1081 2264 
Q 1234 2150 1697 2047 
L 1894 2003 
Q 2506 1872 2764 1633 
Q 3022 1394 3022 966 
Q 3022 478 2636 193 
Q 2250 -91 1575 -91 
Q 1294 -91 989 -36 
Q 684 19 347 128 
L 347 722 
Q 666 556 975 473 
Q 1284 391 1588 391 
Q 1994 391 2212 530 
Q 2431 669 2431 922 
Q 2431 1156 2273 1281 
Q 2116 1406 1581 1522 
L 1381 1569 
Q 847 1681 609 1914 
Q 372 2147 372 2553 
Q 372 3047 722 3315 
Q 1072 3584 1716 3584 
Q 2034 3584 2315 3537 
Q 2597 3491 2834 3397 
z
" transform="scale(0.015625)"/>
       <path id="DejaVuSans-45" d="M 628 4666 
L 3578 4666 
L 3578 4134 
L 1259 4134 
L 1259 2753 
L 3481 2753 
L 3481 2222 
L 1259 2222 
L 1259 531 
L 3634 531 
L 3634 0 
L 628 0 
L 628 4666 
z
" transform="scale(0.015625)"/>
       <path id="DejaVuSans-74" d="M 1172 4494 
L 1172 3500 
L 2356 3500 
L 2356 3053 
L 1172 3053 
L 1172 1153 
Q 1172 725 1289 603 
Q 1406 481 1766 481 
L 2356 481 
L 2356 0 
L 1766 0 
Q 1100 0 847 248 
Q 594 497 594 1153 
L 594 3053 
L 172 3053 
L 172 3500 
L 594 3500 
L 594 4494 
L 1172 4494 
z
" transform="scale(0.015625)"/>
       <path id="DejaVuSans-72" d="M 2631 2963 
Q 2534 3019 2420 3045 
Q 2306 3072 2169 3072 
Q 1681 3072 1420 2755 
Q 1159 2438 1159 1844 
L 1159 0 
L 581 0 
L 581 3500 
L 1159 3500 
L 1159 2956 
Q 1341 3275 1631 3429 
Q 1922 3584 2338 3584 
Q 2397 3584 2469 3576 
Q 2541 3569 2628 3553 
L 2631 2963 
z
" transform="scale(0.015625)"/>
       <path id="DejaVuSans-28" d="M 1984 4856 
Q 1566 4138 1362 3434 
Q 1159 2731 1159 2009 
Q 1159 1288 1364 580 
Q 1569 -128 1984 -844 
L 1484 -844 
Q 1016 -109 783 600 
Q 550 1309 550 2009 
Q 550 2706 781 3412 
Q 1013 4119 1484 4856 
L 1984 4856 
z
" transform="scale(0.015625)"/>
       <path id="DejaVuSans-29" d="M 513 4856 
L 1013 4856 
Q 1481 4119 1714 3412 
Q 1947 2706 1947 2009 
Q 1947 1309 1714 600 
Q 1481 -109 1013 -844 
L 513 -844 
Q 928 -128 1133 580 
Q 1338 1288 1338 2009 
Q 1338 2731 1133 3434 
Q 928 4138 513 4856 
z
" transform="scale(0.015625)"/>
      </defs>
      <use xlink:href="#DejaVuSans-54"/>
      <use xlink:href="#DejaVuSans-61" x="44.583984"/>
      <use xlink:href="#DejaVuSans-6d" x="105.863281"/>
      <use xlink:href="#DejaVuSans-61" x="203.275391"/>
      <use xlink:href="#DejaVuSans-6e" x="264.554688"/>
      <use xlink:href="#DejaVuSans-68" x="327.933594"/>
      <use xlink:href="#DejaVuSans-6f" x="391.3125"/>
      <use xlink:href="#DejaVuSans-20" x="452.494141"/>
      <use xlink:href="#DejaVuSans-64" x="484.28125"/>
      <use xlink:href="#DejaVuSans-61" x="547.757812"/>
      <use xlink:href="#DejaVuSans-73" x="609.037109"/>
      <use xlink:href="#DejaVuSans-20" x="661.136719"/>
      <use xlink:href="#DejaVuSans-45" x="692.923828"/>
      <use xlink:href="#DejaVuSans-6e" x="756.107422"/>
      <use xlink:href="#DejaVuSans-74" x="819.486328"/>
      <use xlink:href="#DejaVuSans-72" x="858.695312"/>
      <use xlink:href="#DejaVuSans-61" x="899.808594"/>
      <use xlink:href="#DejaVuSans-64" x="961.087891"/>
      <use xlink:href="#DejaVuSans-61" x="1024.564453"/>
      <use xlink:href="#DejaVuSans-73" x="1085.84375"/>
      <use xlink:href="#DejaVuSans-20" x="1137.943359"/>
      <use xlink:href="#DejaVuSans-28" x="1169.730469"/>
      <use xlink:href="#DejaVuSans-6e" x="1208.744141"/>
      <use xlink:href="#DejaVuSans-29" x="1272.123047"/>
     </g>
    </g>
   </g>
   <g id="matplotlib.axis_2">
    <g id="ytick_1">
     <g id="line2d_11">
      <path d="M 90 369.36 
L 648 369.36 
" clip-path="url(#p3fd9da37a4)" style="fill: none; stroke: #b0b0b0; stroke-width: 0.8; stroke-linecap: square"/>
     </g>
     <g id="line2d_12">
      <defs>
       <path id="m79711e61fd" d="M 0 0 
L -3.5 0 
" style="stroke: #000000; stroke-width: 0.8"/>
      </defs>
      <g>
       <use xlink:href="#m79711e61fd" x="90" y="369.36" style="stroke: #000000; stroke-width: 0.8"/>
      </g>
     </g>
     <g id="text_7">
      <!-- 0.0000 -->
      <g transform="translate(48.009375 373.159219) scale(0.1 -0.1)">
       <defs>
        <path id="DejaVuSans-2e" d="M 684 794 
L 1344 794 
L 1344 0 
L 684 0 
L 684 794 
z
" transform="scale(0.015625)"/>
       </defs>
       <use xlink:href="#DejaVuSans-30"/>
       <use xlink:href="#DejaVuSans-2e" x="63.623047"/>
       <use xlink:href="#DejaVuSans-30" x="95.410156"/>
       <use xlink:href="#DejaVuSans-30" x="159.033203"/>
       <use xlink:href="#DejaVuSans-30" x="222.65625"/>
       <use xlink:href="#DejaVuSans-30" x="286.279297"/>
      </g>
     </g>
    </g>
    <g id="ytick_2">
     <g id="line2d_13">
      <path d="M 90 309.216802 
L 648 309.216802 
" clip-path="url(#p3fd9da37a4)" style="fill: none; stroke: #b0b0b0; stroke-width: 0.8; stroke-linecap: square"/>
     </g>
     <g id="line2d_14">
      <g>
       <use xlink:href="#m79711e61fd" x="90" y="309.216802" style="stroke: #000000; stroke-width: 0.8"/>
      </g>
     </g>
     <g id="text_8">
      <!-- 0.0002 -->
      <g transform="translate(48.009375 313.016021) scale(0.1 -0.1)">
       <use xlink:href="#DejaVuSans-30"/>
       <use xlink:href="#DejaVuSans-2e" x="63.623047"/>
       <use xlink:href="#DejaVuSans-30" x="95.410156"/>
       <use xlink:href="#DejaVuSans-30" x="159.033203"/>
       <use xlink:href="#DejaVuSans-30" x="222.65625"/>
       <use xlink:href="#DejaVuSans-32" x="286.279297"/>
      </g>
     </g>
    </g>
    <g id="ytick_3">
     <g id="line2d_15">
      <path d="M 90 249.073604 
L 648 249.073604 
" clip-path="url(#p3fd9da37a4)" style="fill: none; stroke: #b0b0b0; stroke-width: 0.8; stroke-linecap: square"/>
     </g>
     <g id="line2d_16">
      <g>
       <use xlink:href="#m79711e61fd" x="90" y="249.073604" style="stroke: #000000; stroke-width: 0.8"/>
      </g>
     </g>
     <g id="text_9">
      <!-- 0.0004 -->
      <g transform="translate(48.009375 252.872823) scale(0.1 -0.1)">
       <use xlink:href="#DejaVuSans-30"/>
       <use xlink:href="#DejaVuSans-2e" x="63.623047"/>
       <use xlink:href="#DejaVuSans-30" x="95.410156"/>
       <use xlink:href="#DejaVuSans-30" x="159.033203"/>
       <use xlink:href="#DejaVuSans-30" x="222.65625"/>
       <use xlink:href="#DejaVuSans-34" x="286.279297"/>
      </g>
     </g>
    </g>
    <g id="ytick_4">
     <g id="line2d_17">
      <path d="M 90 188.930406 
L 648 188.930406 
" clip-path="url(#p3fd9da37a4)" style="fill: none; stroke: #b0b0b0; stroke-width: 0.8; stroke-linecap: square"/>
     </g>
     <g id="line2d_18">
      <g>
       <use xlink:href="#m79711e61fd" x="90" y="188.930406" style="stroke: #000000; stroke-width: 0.8"/>
      </g>
     </g>
     <g id="text_10">
      <!-- 0.0006 -->
      <g transform="translate(48.009375 192.729624) scale(0.1 -0.1)">
       <use xlink:href="#DejaVuSans-30"/>
       <use xlink:href="#DejaVuSans-2e" x="63.623047"/>
       <use xlink:href="#DejaVuSans-30" x="95.410156"/>
       <use xlink:href="#DejaVuSans-30" x="159.033203"/>
       <use xlink:href="#DejaVuSans-30" x="222.65625"/>
       <use xlink:href="#DejaVuSans-36" x="286.279297"/>
      </g>
     </g>
    </g>
    <g id="ytick_5">
     <g id="line2d_19">
      <path d="M 90 128.787208 
L 648 128.787208 
" clip-path="url(#p3fd9da37a4)" style="fill: none; stroke: #b0b0b0; stroke-width: 0.8; stroke-linecap: square"/>
     </g>
     <g id="line2d_20">
      <g>
       <use xlink:href="#m79711e61fd" x="90" y="128.787208" style="stroke: #000000; stroke-width: 0.8"/>
      </g>
     </g>
     <g id="text_11">
      <!-- 0.0008 -->
      <g transform="translate(48.009375 132.586426) scale(0.1 -0.1)">
       <use xlink:href="#DejaVuSans-30"/>
       <use xlink:href="#DejaVuSans-2e" x="63.623047"/>
       <use xlink:href="#DejaVuSans-30" x="95.410156"/>
       <use xlink:href="#DejaVuSans-30" x="159.033203"/>
       <use xlink:href="#DejaVuSans-30" x="222.65625"/>
       <use xlink:href="#DejaVuSans-38" x="286.279297"/>
      </g>
     </g>
    </g>
    <g id="ytick_6">
     <g id="line2d_21">
      <path d="M 90 68.64401 
L 648 68.64401 
" clip-path="url(#p3fd9da37a4)" style="fill: none; stroke: #b0b0b0; stroke-width: 0.8; stroke-linecap: square"/>
     </g>
     <g id="line2d_22">
      <g>
       <use xlink:href="#m79711e61fd" x="90" y="68.64401" style="stroke: #000000; stroke-width: 0.8"/>
      </g>
     </g>
     <g id="text_12">
      <!-- 0.0010 -->
      <g transform="translate(48.009375 72.443228) scale(0.1 -0.1)">
       <use xlink:href="#DejaVuSans-30"/>
       <use xlink:href="#DejaVuSans-2e" x="63.623047"/>
       <use xlink:href="#DejaVuSans-30" x="95.410156"/>
       <use xlink:href="#DejaVuSans-30" x="159.033203"/>
       <use xlink:href="#DejaVuSans-31" x="222.65625"/>
       <use xlink:href="#DejaVuSans-30" x="286.279297"/>
      </g>
     </g>
    </g>
    <g id="text_13">
     <!-- Tempo médio (segundos) -->
     <g transform="translate(41.929687 281.224844) rotate(-90) scale(0.1 -0.1)">
      <defs>
       <path id="DejaVuSans-65" d="M 3597 1894 
L 3597 1613 
L 953 1613 
Q 991 1019 1311 708 
Q 1631 397 2203 397 
Q 2534 397 2845 478 
Q 3156 559 3463 722 
L 3463 178 
Q 3153 47 2828 -22 
Q 2503 -91 2169 -91 
Q 1331 -91 842 396 
Q 353 884 353 1716 
Q 353 2575 817 3079 
Q 1281 3584 2069 3584 
Q 2775 3584 3186 3129 
Q 3597 2675 3597 1894 
z
M 3022 2063 
Q 3016 2534 2758 2815 
Q 2500 3097 2075 3097 
Q 1594 3097 1305 2825 
Q 1016 2553 972 2059 
L 3022 2063 
z
" transform="scale(0.015625)"/>
       <path id="DejaVuSans-70" d="M 1159 525 
L 1159 -1331 
L 581 -1331 
L 581 3500 
L 1159 3500 
L 1159 2969 
Q 1341 3281 1617 3432 
Q 1894 3584 2278 3584 
Q 2916 3584 3314 3078 
Q 3713 2572 3713 1747 
Q 3713 922 3314 415 
Q 2916 -91 2278 -91 
Q 1894 -91 1617 61 
Q 1341 213 1159 525 
z
M 3116 1747 
Q 3116 2381 2855 2742 
Q 2594 3103 2138 3103 
Q 1681 3103 1420 2742 
Q 1159 2381 1159 1747 
Q 1159 1113 1420 752 
Q 1681 391 2138 391 
Q 2594 391 2855 752 
Q 3116 1113 3116 1747 
z
" transform="scale(0.015625)"/>
       <path id="DejaVuSans-e9" d="M 3597 1894 
L 3597 1613 
L 953 1613 
Q 991 1019 1311 708 
Q 1631 397 2203 397 
Q 2534 397 2845 478 
Q 3156 559 3463 722 
L 3463 178 
Q 3153 47 2828 -22 
Q 2503 -91 2169 -91 
Q 1331 -91 842 396 
Q 353 884 353 1716 
Q 353 2575 817 3079 
Q 1281 3584 2069 3584 
Q 2775 3584 3186 3129 
Q 3597 2675 3597 1894 
z
M 3022 2063 
Q 3016 2534 2758 2815 
Q 2500 3097 2075 3097 
Q 1594 3097 1305 2825 
Q 1016 2553 972 2059 
L 3022 2063 
z
M 2469 5119 
L 3091 5119 
L 2072 3944 
L 1594 3944 
L 2469 5119 
z
" transform="scale(0.015625)"/>
       <path id="DejaVuSans-69" d="M 603 3500 
L 1178 3500 
L 1178 0 
L 603 0 
L 603 3500 
z
M 603 4863 
L 1178 4863 
L 1178 4134 
L 603 4134 
L 603 4863 
z
" transform="scale(0.015625)"/>
       <path id="DejaVuSans-67" d="M 2906 1791 
Q 2906 2416 2648 2759 
Q 2391 3103 1925 3103 
Q 1463 3103 1205 2759 
Q 947 2416 947 1791 
Q 947 1169 1205 825 
Q 1463 481 1925 481 
Q 2391 481 2648 825 
Q 2906 1169 2906 1791 
z
M 3481 434 
Q 3481 -459 3084 -895 
Q 2688 -1331 1869 -1331 
Q 1566 -1331 1297 -1286 
Q 1028 -1241 775 -1147 
L 775 -588 
Q 1028 -725 1275 -790 
Q 1522 -856 1778 -856 
Q 2344 -856 2625 -561 
Q 2906 -266 2906 331 
L 2906 616 
Q 2728 306 2450 153 
Q 2172 0 1784 0 
Q 1141 0 747 490 
Q 353 981 353 1791 
Q 353 2603 747 3093 
Q 1141 3584 1784 3584 
Q 2172 3584 2450 3431 
Q 2728 3278 2906 2969 
L 2906 3500 
L 3481 3500 
L 3481 434 
z
" transform="scale(0.015625)"/>
       <path id="DejaVuSans-75" d="M 544 1381 
L 544 3500 
L 1119 3500 
L 1119 1403 
Q 1119 906 1312 657 
Q 1506 409 1894 409 
Q 2359 409 2629 706 
Q 2900 1003 2900 1516 
L 2900 3500 
L 3475 3500 
L 3475 0 
L 2900 0 
L 2900 538 
Q 2691 219 2414 64 
Q 2138 -91 1772 -91 
Q 1169 -91 856 284 
Q 544 659 544 1381 
z
M 1991 3584 
L 1991 3584 
z
" transform="scale(0.015625)"/>
      </defs>
      <use xlink:href="#DejaVuSans-54"/>
      <use xlink:href="#DejaVuSans-65" x="44.083984"/>
      <use xlink:href="#DejaVuSans-6d" x="105.607422"/>
      <use xlink:href="#DejaVuSans-70" x="203.019531"/>
      <use xlink:href="#DejaVuSans-6f" x="266.496094"/>
      <use xlink:href="#DejaVuSans-20" x="327.677734"/>
      <use xlink:href="#DejaVuSans-6d" x="359.464844"/>
      <use xlink:href="#DejaVuSans-e9" x="456.876953"/>
      <use xlink:href="#DejaVuSans-64" x="518.400391"/>
      <use xlink:href="#DejaVuSans-69" x="581.876953"/>
      <use xlink:href="#DejaVuSans-6f" x="609.660156"/>
      <use xlink:href="#DejaVuSans-20" x="670.841797"/>
      <use xlink:href="#DejaVuSans-28" x="702.628906"/>
      <use xlink:href="#DejaVuSans-73" x="741.642578"/>
      <use xlink:href="#DejaVuSans-65" x="793.742188"/>
      <use xlink:href="#DejaVuSans-67" x="855.265625"/>
      <use xlink:href="#DejaVuSans-75" x="918.742188"/>
      <use xlink:href="#DejaVuSans-6e" x="982.121094"/>
      <use xlink:href="#DejaVuSans-64" x="1045.5"/>
      <use xlink:href="#DejaVuSans-6f" x="1108.976562"/>
      <use xlink:href="#DejaVuSans-73" x="1170.158203"/>
      <use xlink:href="#DejaVuSans-29" x="1222.257812"/>
     </g>
    </g>
   </g>
   <g id="line2d_23">
    <path d="M 115.363636 338.872411 
L 126.636364 336.416563 
L 137.909091 333.213938 
L 149.181818 328.983866 
L 160.454545 325.475513 
L 171.727273 318.523962 
L 183 307.237088 
L 194.272727 298.812029 
L 205.545455 302.78148 
L 216.818182 291.715131 
L 228.090909 282.48315 
L 239.363636 286.723246 
L 250.636364 270.033508 
L 261.909091 274.423962 
L 273.181818 244.11179 
L 284.454545 238.09747 
L 295.727273 251.028258 
L 307 241.67599 
L 318.272727 262.395322 
L 329.545455 235.511313 
L 340.818182 255.057852 
L 352.090909 211.754749 
L 363.363636 207.274081 
L 374.636364 191.396277 
L 385.909091 203.48506 
L 397.181818 179.848783 
L 408.454545 197.500811 
L 419.727273 186.013461 
L 431 169.353795 
L 442.272727 199.665967 
L 453.545455 175.84926 
L 464.818182 145.687446 
L 476.090909 167.338998 
L 487.363636 140.966205 
L 498.636364 182.61537 
L 509.909091 141.417279 
L 521.181818 115.345203 
L 532.454545 140.094129 
L 543.727273 106.774797 
L 555 118.11179 
L 566.272727 131.914654 
L 577.545455 103.43685 
L 588.818182 92.701289 
L 600.090909 91.107494 
L 611.363636 114.022053 
L 622.636364 106.925155 
" clip-path="url(#p3fd9da37a4)" style="fill: none; stroke: #1f77b4; stroke-width: 1.5; stroke-linecap: square"/>
    <defs>
     <path id="me978f9b86a" d="M 0 3 
C 0.795609 3 1.55874 2.683901 2.12132 2.12132 
C 2.683901 1.55874 3 0.795609 3 0 
C 3 -0.795609 2.683901 -1.55874 2.12132 -2.12132 
C 1.55874 -2.683901 0.795609 -3 0 -3 
C -0.795609 -3 -1.55874 -2.683901 -2.12132 -2.12132 
C -2.683901 -1.55874 -3 -0.795609 -3 0 
C -3 0.795609 -2.683901 1.55874 -2.12132 2.12132 
C -1.55874 2.683901 -0.795609 3 0 3 
z
" style="stroke: #1f77b4"/>
    </defs>
    <g clip-path="url(#p3fd9da37a4)">
     <use xlink:href="#me978f9b86a" x="115.363636" y="338.872411" style="fill: #1f77b4; stroke: #1f77b4"/>
     <use xlink:href="#me978f9b86a" x="126.636364" y="336.416563" style="fill: #1f77b4; stroke: #1f77b4"/>
     <use xlink:href="#me978f9b86a" x="137.909091" y="333.213938" style="fill: #1f77b4; stroke: #1f77b4"/>
     <use xlink:href="#me978f9b86a" x="149.181818" y="328.983866" style="fill: #1f77b4; stroke: #1f77b4"/>
     <use xlink:href="#me978f9b86a" x="160.454545" y="325.475513" style="fill: #1f77b4; stroke: #1f77b4"/>
     <use xlink:href="#me978f9b86a" x="171.727273" y="318.523962" style="fill: #1f77b4; stroke: #1f77b4"/>
     <use xlink:href="#me978f9b86a" x="183" y="307.237088" style="fill: #1f77b4; stroke: #1f77b4"/>
     <use xlink:href="#me978f9b86a" x="194.272727" y="298.812029" style="fill: #1f77b4; stroke: #1f77b4"/>
     <use xlink:href="#me978f9b86a" x="205.545455" y="302.78148" style="fill: #1f77b4; stroke: #1f77b4"/>
     <use xlink:href="#me978f9b86a" x="216.818182" y="291.715131" style="fill: #1f77b4; stroke: #1f77b4"/>
     <use xlink:href="#me978f9b86a" x="228.090909" y="282.48315" style="fill: #1f77b4; stroke: #1f77b4"/>
     <use xlink:href="#me978f9b86a" x="239.363636" y="286.723246" style="fill: #1f77b4; stroke: #1f77b4"/>
     <use xlink:href="#me978f9b86a" x="250.636364" y="270.033508" style="fill: #1f77b4; stroke: #1f77b4"/>
     <use xlink:href="#me978f9b86a" x="261.909091" y="274.423962" style="fill: #1f77b4; stroke: #1f77b4"/>
     <use xlink:href="#me978f9b86a" x="273.181818" y="244.11179" style="fill: #1f77b4; stroke: #1f77b4"/>
     <use xlink:href="#me978f9b86a" x="284.454545" y="238.09747" style="fill: #1f77b4; stroke: #1f77b4"/>
     <use xlink:href="#me978f9b86a" x="295.727273" y="251.028258" style="fill: #1f77b4; stroke: #1f77b4"/>
     <use xlink:href="#me978f9b86a" x="307" y="241.67599" style="fill: #1f77b4; stroke: #1f77b4"/>
     <use xlink:href="#me978f9b86a" x="318.272727" y="262.395322" style="fill: #1f77b4; stroke: #1f77b4"/>
     <use xlink:href="#me978f9b86a" x="329.545455" y="235.511313" style="fill: #1f77b4; stroke: #1f77b4"/>
     <use xlink:href="#me978f9b86a" x="340.818182" y="255.057852" style="fill: #1f77b4; stroke: #1f77b4"/>
     <use xlink:href="#me978f9b86a" x="352.090909" y="211.754749" style="fill: #1f77b4; stroke: #1f77b4"/>
     <use xlink:href="#me978f9b86a" x="363.363636" y="207.274081" style="fill: #1f77b4; stroke: #1f77b4"/>
     <use xlink:href="#me978f9b86a" x="374.636364" y="191.396277" style="fill: #1f77b4; stroke: #1f77b4"/>
     <use xlink:href="#me978f9b86a" x="385.909091" y="203.48506" style="fill: #1f77b4; stroke: #1f77b4"/>
     <use xlink:href="#me978f9b86a" x="397.181818" y="179.848783" style="fill: #1f77b4; stroke: #1f77b4"/>
     <use xlink:href="#me978f9b86a" x="408.454545" y="197.500811" style="fill: #1f77b4; stroke: #1f77b4"/>
     <use xlink:href="#me978f9b86a" x="419.727273" y="186.013461" style="fill: #1f77b4; stroke: #1f77b4"/>
     <use xlink:href="#me978f9b86a" x="431" y="169.353795" style="fill: #1f77b4; stroke: #1f77b4"/>
     <use xlink:href="#me978f9b86a" x="442.272727" y="199.665967" style="fill: #1f77b4; stroke: #1f77b4"/>
     <use xlink:href="#me978f9b86a" x="453.545455" y="175.84926" style="fill: #1f77b4; stroke: #1f77b4"/>
     <use xlink:href="#me978f9b86a" x="464.818182" y="145.687446" style="fill: #1f77b4; stroke: #1f77b4"/>
     <use xlink:href="#me978f9b86a" x="476.090909" y="167.338998" style="fill: #1f77b4; stroke: #1f77b4"/>
     <use xlink:href="#me978f9b86a" x="487.363636" y="140.966205" style="fill: #1f77b4; stroke: #1f77b4"/>
     <use xlink:href="#me978f9b86a" x="498.636364" y="182.61537" style="fill: #1f77b4; stroke: #1f77b4"/>
     <use xlink:href="#me978f9b86a" x="509.909091" y="141.417279" style="fill: #1f77b4; stroke: #1f77b4"/>
     <use xlink:href="#me978f9b86a" x="521.181818" y="115.345203" style="fill: #1f77b4; stroke: #1f77b4"/>
     <use xlink:href="#me978f9b86a" x="532.454545" y="140.094129" style="fill: #1f77b4; stroke: #1f77b4"/>
     <use xlink:href="#me978f9b86a" x="543.727273" y="106.774797" style="fill: #1f77b4; stroke: #1f77b4"/>
     <use xlink:href="#me978f9b86a" x="555" y="118.11179" style="fill: #1f77b4; stroke: #1f77b4"/>
     <use xlink:href="#me978f9b86a" x="566.272727" y="131.914654" style="fill: #1f77b4; stroke: #1f77b4"/>
     <use xlink:href="#me978f9b86a" x="577.545455" y="103.43685" style="fill: #1f77b4; stroke: #1f77b4"/>
     <use xlink:href="#me978f9b86a" x="588.818182" y="92.701289" style="fill: #1f77b4; stroke: #1f77b4"/>
     <use xlink:href="#me978f9b86a" x="600.090909" y="91.107494" style="fill: #1f77b4; stroke: #1f77b4"/>
     <use xlink:href="#me978f9b86a" x="611.363636" y="114.022053" style="fill: #1f77b4; stroke: #1f77b4"/>
     <use xlink:href="#me978f9b86a" x="622.636364" y="106.925155" style="fill: #1f77b4; stroke: #1f77b4"/>
    </g>
   </g>
   <g id="line2d_24">
    <path d="M 115.363636 362.062625 
L 126.636364 357.371456 
L 137.909091 355.055943 
L 149.181818 354.700095 
L 160.454545 352.023723 
L 171.727273 353.151408 
L 183 359.000334 
L 194.272727 361.721814 
L 205.545455 348.49031 
L 216.818182 355.346635 
L 228.090909 359.526587 
L 239.363636 348.971456 
L 250.636364 358.534224 
L 261.909091 345.032076 
L 273.181818 369.36 
L 284.454545 362.202959 
L 295.727273 356.218711 
L 307 355.527064 
L 318.272727 333.875513 
L 329.545455 348.821098 
L 340.818182 323.500811 
L 352.090909 361.09031 
L 363.363636 360.970024 
L 374.636364 369.36 
L 385.909091 347.407733 
L 397.181818 369.36 
L 408.454545 343.257852 
L 419.727273 349.512745 
L 431 362.563819 
L 442.272727 327.470263 
L 453.545455 340.130406 
L 464.818182 369.36 
L 476.090909 338.987685 
L 487.363636 361.661671 
L 498.636364 309.818234 
L 509.909091 348.760955 
L 521.181818 369.36 
L 532.454545 337.454033 
L 543.727273 362.77432 
L 555 340.130406 
L 566.272727 324.613461 
L 577.545455 347.407733 
L 588.818182 354.925632 
L 600.090909 347.467876 
L 611.363636 322.899379 
L 622.636364 323.560955 
" clip-path="url(#p3fd9da37a4)" style="fill: none; stroke: #ff7f0e; stroke-width: 1.5; stroke-linecap: square"/>
    <defs>
     <path id="mc50be2279b" d="M 0 3 
C 0.795609 3 1.55874 2.683901 2.12132 2.12132 
C 2.683901 1.55874 3 0.795609 3 0 
C 3 -0.795609 2.683901 -1.55874 2.12132 -2.12132 
C 1.55874 -2.683901 0.795609 -3 0 -3 
C -0.795609 -3 -1.55874 -2.683901 -2.12132 -2.12132 
C -2.683901 -1.55874 -3 -0.795609 -3 0 
C -3 0.795609 -2.683901 1.55874 -2.12132 2.12132 
C -1.55874 2.683901 -0.795609 3 0 3 
z
" style="stroke: #ff7f0e"/>
    </defs>
    <g clip-path="url(#p3fd9da37a4)">
     <use xlink:href="#mc50be2279b" x="115.363636" y="362.062625" style="fill: #ff7f0e; stroke: #ff7f0e"/>
     <use xlink:href="#mc50be2279b" x="126.636364" y="357.371456" style="fill: #ff7f0e; stroke: #ff7f0e"/>
     <use xlink:href="#mc50be2279b" x="137.909091" y="355.055943" style="fill: #ff7f0e; stroke: #ff7f0e"/>
     <use xlink:href="#mc50be2279b" x="149.181818" y="354.700095" style="fill: #ff7f0e; stroke: #ff7f0e"/>
     <use xlink:href="#mc50be2279b" x="160.454545" y="352.023723" style="fill: #ff7f0e; stroke: #ff7f0e"/>
     <use xlink:href="#mc50be2279b" x="171.727273" y="353.151408" style="fill: #ff7f0e; stroke: #ff7f0e"/>
     <use xlink:href="#mc50be2279b" x="183" y="359.000334" style="fill: #ff7f0e; stroke: #ff7f0e"/>
     <use xlink:href="#mc50be2279b" x="194.272727" y="361.721814" style="fill: #ff7f0e; stroke: #ff7f0e"/>
     <use xlink:href="#mc50be2279b" x="205.545455" y="348.49031" style="fill: #ff7f0e; stroke: #ff7f0e"/>
     <use xlink:href="#mc50be2279b" x="216.818182" y="355.346635" style="fill: #ff7f0e; stroke: #ff7f0e"/>
     <use xlink:href="#mc50be2279b" x="228.090909" y="359.526587" style="fill: #ff7f0e; stroke: #ff7f0e"/>
     <use xlink:href="#mc50be2279b" x="239.363636" y="348.971456" style="fill: #ff7f0e; stroke: #ff7f0e"/>
     <use xlink:href="#mc50be2279b" x="250.636364" y="358.534224" style="fill: #ff7f0e; stroke: #ff7f0e"/>
     <use xlink:href="#mc50be2279b" x="261.909091" y="345.032076" style="fill: #ff7f0e; stroke: #ff7f0e"/>
     <use xlink:href="#mc50be2279b" x="273.181818" y="369.36" style="fill: #ff7f0e; stroke: #ff7f0e"/>
     <use xlink:href="#mc50be2279b" x="284.454545" y="362.202959" style="fill: #ff7f0e; stroke: #ff7f0e"/>
     <use xlink:href="#mc50be2279b" x="295.727273" y="356.218711" style="fill: #ff7f0e; stroke: #ff7f0e"/>
     <use xlink:href="#mc50be2279b" x="307" y="355.527064" style="fill: #ff7f0e; stroke: #ff7f0e"/>
     <use xlink:href="#mc50be2279b" x="318.272727" y="333.875513" style="fill: #ff7f0e; stroke: #ff7f0e"/>
     <use xlink:href="#mc50be2279b" x="329.545455" y="348.821098" style="fill: #ff7f0e; stroke: #ff7f0e"/>
     <use xlink:href="#mc50be2279b" x="340.818182" y="323.500811" style="fill: #ff7f0e; stroke: #ff7f0e"/>
     <use xlink:href="#mc50be2279b" x="352.090909" y="361.09031" style="fill: #ff7f0e; stroke: #ff7f0e"/>
     <use xlink:href="#mc50be2279b" x="363.363636" y="360.970024" style="fill: #ff7f0e; stroke: #ff7f0e"/>
     <use xlink:href="#mc50be2279b" x="374.636364" y="369.36" style="fill: #ff7f0e; stroke: #ff7f0e"/>
     <use xlink:href="#mc50be2279b" x="385.909091" y="347.407733" style="fill: #ff7f0e; stroke: #ff7f0e"/>
     <use xlink:href="#mc50be2279b" x="397.181818" y="369.36" style="fill: #ff7f0e; stroke: #ff7f0e"/>
     <use xlink:href="#mc50be2279b" x="408.454545" y="343.257852" style="fill: #ff7f0e; stroke: #ff7f0e"/>
     <use xlink:href="#mc50be2279b" x="419.727273" y="349.512745" style="fill: #ff7f0e; stroke: #ff7f0e"/>
     <use xlink:href="#mc50be2279b" x="431" y="362.563819" style="fill: #ff7f0e; stroke: #ff7f0e"/>
     <use xlink:href="#mc50be2279b" x="442.272727" y="327.470263" style="fill: #ff7f0e; stroke: #ff7f0e"/>
     <use xlink:href="#mc50be2279b" x="453.545455" y="340.130406" style="fill: #ff7f0e; stroke: #ff7f0e"/>
     <use xlink:href="#mc50be2279b" x="464.818182" y="369.36" style="fill: #ff7f0e; stroke: #ff7f0e"/>
     <use xlink:href="#mc50be2279b" x="476.090909" y="338.987685" style="fill: #ff7f0e; stroke: #ff7f0e"/>
     <use xlink:href="#mc50be2279b" x="487.363636" y="361.661671" style="fill: #ff7f0e; stroke: #ff7f0e"/>
     <use xlink:href="#mc50be2279b" x="498.636364" y="309.818234" style="fill: #ff7f0e; stroke: #ff7f0e"/>
     <use xlink:href="#mc50be2279b" x="509.909091" y="348.760955" style="fill: #ff7f0e; stroke: #ff7f0e"/>
     <use xlink:href="#mc50be2279b" x="521.181818" y="369.36" style="fill: #ff7f0e; stroke: #ff7f0e"/>
     <use xlink:href="#mc50be2279b" x="532.454545" y="337.454033" style="fill: #ff7f0e; stroke: #ff7f0e"/>
     <use xlink:href="#mc50be2279b" x="543.727273" y="362.77432" style="fill: #ff7f0e; stroke: #ff7f0e"/>
     <use xlink:href="#mc50be2279b" x="555" y="340.130406" style="fill: #ff7f0e; stroke: #ff7f0e"/>
     <use xlink:href="#mc50be2279b" x="566.272727" y="324.613461" style="fill: #ff7f0e; stroke: #ff7f0e"/>
     <use xlink:href="#mc50be2279b" x="577.545455" y="347.407733" style="fill: #ff7f0e; stroke: #ff7f0e"/>
     <use xlink:href="#mc50be2279b" x="588.818182" y="354.925632" style="fill: #ff7f0e; stroke: #ff7f0e"/>
     <use xlink:href="#mc50be2279b" x="600.090909" y="347.467876" style="fill: #ff7f0e; stroke: #ff7f0e"/>
     <use xlink:href="#mc50be2279b" x="611.363636" y="322.899379" style="fill: #ff7f0e; stroke: #ff7f0e"/>
     <use xlink:href="#mc50be2279b" x="622.636364" y="323.560955" style="fill: #ff7f0e; stroke: #ff7f0e"/>
    </g>
   </g>
   <g id="line2d_25">
    <path d="M 115.363636 337.038043 
L 126.636364 330.176706 
L 137.909091 324.463103 
L 149.181818 319.746874 
L 160.454545 313.782673 
L 171.727273 307.818473 
L 183 301.924439 
L 194.272727 296.496516 
L 205.545455 289.940907 
L 216.818182 283.746158 
L 228.090909 278.543771 
L 239.363636 272.288878 
L 250.636364 264.740907 
L 261.909091 257.493652 
L 273.181818 252.291265 
L 284.454545 242.908926 
L 295.727273 242.548067 
L 307 235.481241 
L 318.272727 231.181002 
L 329.545455 222.069308 
L 340.818182 217.678854 
L 352.090909 209.950453 
L 363.363636 204.898425 
L 374.636364 197.831599 
L 385.909091 188.810119 
L 397.181818 185.923246 
L 408.454545 177.473126 
L 419.727273 173.834463 
L 431 169.143294 
L 442.272727 164.091265 
L 453.545455 153.987208 
L 464.818182 150.980048 
L 476.090909 143.281718 
L 487.363636 139.913699 
L 498.636364 131.583866 
L 509.909091 126.622053 
L 521.181818 121.69031 
L 532.454545 115.85642 
L 543.727273 107.045442 
L 555 100.42969 
L 566.272727 95.558091 
L 577.545455 87.438759 
L 588.818182 84.401527 
L 600.090909 76.282196 
L 611.363636 74.808687 
L 622.636364 66.96 
" clip-path="url(#p3fd9da37a4)" style="fill: none; stroke: #2ca02c; stroke-width: 1.5; stroke-linecap: square"/>
    <defs>
     <path id="mdd9f9e1fb6" d="M 0 3 
C 0.795609 3 1.55874 2.683901 2.12132 2.12132 
C 2.683901 1.55874 3 0.795609 3 0 
C 3 -0.795609 2.683901 -1.55874 2.12132 -2.12132 
C 1.55874 -2.683901 0.795609 -3 0 -3 
C -0.795609 -3 -1.55874 -2.683901 -2.12132 -2.12132 
C -2.683901 -1.55874 -3 -0.795609 -3 0 
C -3 0.795609 -2.683901 1.55874 -2.12132 2.12132 
C -1.55874 2.683901 -0.795609 3 0 3 
z
" style="stroke: #2ca02c"/>
    </defs>
    <g clip-path="url(#p3fd9da37a4)">
     <use xlink:href="#mdd9f9e1fb6" x="115.363636" y="337.038043" style="fill: #2ca02c; stroke: #2ca02c"/>
     <use xlink:href="#mdd9f9e1fb6" x="126.636364" y="330.176706" style="fill: #2ca02c; stroke: #2ca02c"/>
     <use xlink:href="#mdd9f9e1fb6" x="137.909091" y="324.463103" style="fill: #2ca02c; stroke: #2ca02c"/>
     <use xlink:href="#mdd9f9e1fb6" x="149.181818" y="319.746874" style="fill: #2ca02c; stroke: #2ca02c"/>
     <use xlink:href="#mdd9f9e1fb6" x="160.454545" y="313.782673" style="fill: #2ca02c; stroke: #2ca02c"/>
     <use xlink:href="#mdd9f9e1fb6" x="171.727273" y="307.818473" style="fill: #2ca02c; stroke: #2ca02c"/>
     <use xlink:href="#mdd9f9e1fb6" x="183" y="301.924439" style="fill: #2ca02c; stroke: #2ca02c"/>
     <use xlink:href="#mdd9f9e1fb6" x="194.272727" y="296.496516" style="fill: #2ca02c; stroke: #2ca02c"/>
     <use xlink:href="#mdd9f9e1fb6" x="205.545455" y="289.940907" style="fill: #2ca02c; stroke: #2ca02c"/>
     <use xlink:href="#mdd9f9e1fb6" x="216.818182" y="283.746158" style="fill: #2ca02c; stroke: #2ca02c"/>
     <use xlink:href="#mdd9f9e1fb6" x="228.090909" y="278.543771" style="fill: #2ca02c; stroke: #2ca02c"/>
     <use xlink:href="#mdd9f9e1fb6" x="239.363636" y="272.288878" style="fill: #2ca02c; stroke: #2ca02c"/>
     <use xlink:href="#mdd9f9e1fb6" x="250.636364" y="264.740907" style="fill: #2ca02c; stroke: #2ca02c"/>
     <use xlink:href="#mdd9f9e1fb6" x="261.909091" y="257.493652" style="fill: #2ca02c; stroke: #2ca02c"/>
     <use xlink:href="#mdd9f9e1fb6" x="273.181818" y="252.291265" style="fill: #2ca02c; stroke: #2ca02c"/>
     <use xlink:href="#mdd9f9e1fb6" x="284.454545" y="242.908926" style="fill: #2ca02c; stroke: #2ca02c"/>
     <use xlink:href="#mdd9f9e1fb6" x="295.727273" y="242.548067" style="fill: #2ca02c; stroke: #2ca02c"/>
     <use xlink:href="#mdd9f9e1fb6" x="307" y="235.481241" style="fill: #2ca02c; stroke: #2ca02c"/>
     <use xlink:href="#mdd9f9e1fb6" x="318.272727" y="231.181002" style="fill: #2ca02c; stroke: #2ca02c"/>
     <use xlink:href="#mdd9f9e1fb6" x="329.545455" y="222.069308" style="fill: #2ca02c; stroke: #2ca02c"/>
     <use xlink:href="#mdd9f9e1fb6" x="340.818182" y="217.678854" style="fill: #2ca02c; stroke: #2ca02c"/>
     <use xlink:href="#mdd9f9e1fb6" x="352.090909" y="209.950453" style="fill: #2ca02c; stroke: #2ca02c"/>
     <use xlink:href="#mdd9f9e1fb6" x="363.363636" y="204.898425" style="fill: #2ca02c; stroke: #2ca02c"/>
     <use xlink:href="#mdd9f9e1fb6" x="374.636364" y="197.831599" style="fill: #2ca02c; stroke: #2ca02c"/>
     <use xlink:href="#mdd9f9e1fb6" x="385.909091" y="188.810119" style="fill: #2ca02c; stroke: #2ca02c"/>
     <use xlink:href="#mdd9f9e1fb6" x="397.181818" y="185.923246" style="fill: #2ca02c; stroke: #2ca02c"/>
     <use xlink:href="#mdd9f9e1fb6" x="408.454545" y="177.473126" style="fill: #2ca02c; stroke: #2ca02c"/>
     <use xlink:href="#mdd9f9e1fb6" x="419.727273" y="173.834463" style="fill: #2ca02c; stroke: #2ca02c"/>
     <use xlink:href="#mdd9f9e1fb6" x="431" y="169.143294" style="fill: #2ca02c; stroke: #2ca02c"/>
     <use xlink:href="#mdd9f9e1fb6" x="442.272727" y="164.091265" style="fill: #2ca02c; stroke: #2ca02c"/>
     <use xlink:href="#mdd9f9e1fb6" x="453.545455" y="153.987208" style="fill: #2ca02c; stroke: #2ca02c"/>
     <use xlink:href="#mdd9f9e1fb6" x="464.818182" y="150.980048" style="fill: #2ca02c; stroke: #2ca02c"/>
     <use xlink:href="#mdd9f9e1fb6" x="476.090909" y="143.281718" style="fill: #2ca02c; stroke: #2ca02c"/>
     <use xlink:href="#mdd9f9e1fb6" x="487.363636" y="139.913699" style="fill: #2ca02c; stroke: #2ca02c"/>
     <use xlink:href="#mdd9f9e1fb6" x="498.636364" y="131.583866" style="fill: #2ca02c; stroke: #2ca02c"/>
     <use xlink:href="#mdd9f9e1fb6" x="509.909091" y="126.622053" style="fill: #2ca02c; stroke: #2ca02c"/>
     <use xlink:href="#mdd9f9e1fb6" x="521.181818" y="121.69031" style="fill: #2ca02c; stroke: #2ca02c"/>
     <use xlink:href="#mdd9f9e1fb6" x="532.454545" y="115.85642" style="fill: #2ca02c; stroke: #2ca02c"/>
     <use xlink:href="#mdd9f9e1fb6" x="543.727273" y="107.045442" style="fill: #2ca02c; stroke: #2ca02c"/>
     <use xlink:href="#mdd9f9e1fb6" x="555" y="100.42969" style="fill: #2ca02c; stroke: #2ca02c"/>
     <use xlink:href="#mdd9f9e1fb6" x="566.272727" y="95.558091" style="fill: #2ca02c; stroke: #2ca02c"/>
     <use xlink:href="#mdd9f9e1fb6" x="577.545455" y="87.438759" style="fill: #2ca02c; stroke: #2ca02c"/>
     <use xlink:href="#mdd9f9e1fb6" x="588.818182" y="84.401527" style="fill: #2ca02c; stroke: #2ca02c"/>
     <use xlink:href="#mdd9f9e1fb6" x="600.090909" y="76.282196" style="fill: #2ca02c; stroke: #2ca02c"/>
     <use xlink:href="#mdd9f9e1fb6" x="611.363636" y="74.808687" style="fill: #2ca02c; stroke: #2ca02c"/>
     <use xlink:href="#mdd9f9e1fb6" x="622.636364" y="66.96" style="fill: #2ca02c; stroke: #2ca02c"/>
    </g>
   </g>
   <g id="patch_3">
    <path d="M 90 384.48 
L 90 51.84 
" style="fill: none; stroke: #000000; stroke-width: 0.8; stroke-linejoin: miter; stroke-linecap: square"/>
   </g>
   <g id="patch_4">
    <path d="M 648 384.48 
L 648 51.84 
" style="fill: none; stroke: #000000; stroke-width: 0.8; stroke-linejoin: miter; stroke-linecap: square"/>
   </g>
   <g id="patch_5">
    <path d="M 90 384.48 
L 648 384.48 
" style="fill: none; stroke: #000000; stroke-width: 0.8; stroke-linejoin: miter; stroke-linecap: square"/>
   </g>
   <g id="patch_6">
    <path d="M 90 51.84 
L 648 51.84 
" style="fill: none; stroke: #000000; stroke-width: 0.8; stroke-linejoin: miter; stroke-linecap: square"/>
   </g>
   <g id="text_14">
    <!-- Tempo médio pelo Número de Entradas (Dyn) -->
    <g transform="translate(231.687187 45.84) scale(0.12 -0.12)">
     <defs>
      <path id="DejaVuSans-6c" d="M 603 4863 
L 1178 4863 
L 1178 0 
L 603 0 
L 603 4863 
z
" transform="scale(0.015625)"/>
      <path id="DejaVuSans-4e" d="M 628 4666 
L 1478 4666 
L 3547 763 
L 3547 4666 
L 4159 4666 
L 4159 0 
L 3309 0 
L 1241 3903 
L 1241 0 
L 628 0 
L 628 4666 
z
" transform="scale(0.015625)"/>
      <path id="DejaVuSans-fa" d="M 544 1381 
L 544 3500 
L 1119 3500 
L 1119 1403 
Q 1119 906 1312 657 
Q 1506 409 1894 409 
Q 2359 409 2629 706 
Q 2900 1003 2900 1516 
L 2900 3500 
L 3475 3500 
L 3475 0 
L 2900 0 
L 2900 538 
Q 2691 219 2414 64 
Q 2138 -91 1772 -91 
Q 1169 -91 856 284 
Q 544 659 544 1381 
z
M 1991 3584 
L 1991 3584 
z
M 2419 5119 
L 3041 5119 
L 2022 3944 
L 1544 3944 
L 2419 5119 
z
" transform="scale(0.015625)"/>
      <path id="DejaVuSans-44" d="M 1259 4147 
L 1259 519 
L 2022 519 
Q 2988 519 3436 956 
Q 3884 1394 3884 2338 
Q 3884 3275 3436 3711 
Q 2988 4147 2022 4147 
L 1259 4147 
z
M 628 4666 
L 1925 4666 
Q 3281 4666 3915 4102 
Q 4550 3538 4550 2338 
Q 4550 1131 3912 565 
Q 3275 0 1925 0 
L 628 0 
L 628 4666 
z
" transform="scale(0.015625)"/>
      <path id="DejaVuSans-79" d="M 2059 -325 
Q 1816 -950 1584 -1140 
Q 1353 -1331 966 -1331 
L 506 -1331 
L 506 -850 
L 844 -850 
Q 1081 -850 1212 -737 
Q 1344 -625 1503 -206 
L 1606 56 
L 191 3500 
L 800 3500 
L 1894 763 
L 2988 3500 
L 3597 3500 
L 2059 -325 
z
" transform="scale(0.015625)"/>
     </defs>
     <use xlink:href="#DejaVuSans-54"/>
     <use xlink:href="#DejaVuSans-65" x="44.083984"/>
     <use xlink:href="#DejaVuSans-6d" x="105.607422"/>
     <use xlink:href="#DejaVuSans-70" x="203.019531"/>
     <use xlink:href="#DejaVuSans-6f" x="266.496094"/>
     <use xlink:href="#DejaVuSans-20" x="327.677734"/>
     <use xlink:href="#DejaVuSans-6d" x="359.464844"/>
     <use xlink:href="#DejaVuSans-e9" x="456.876953"/>
     <use xlink:href="#DejaVuSans-64" x="518.400391"/>
     <use xlink:href="#DejaVuSans-69" x="581.876953"/>
     <use xlink:href="#DejaVuSans-6f" x="609.660156"/>
     <use xlink:href="#DejaVuSans-20" x="670.841797"/>
     <use xlink:href="#DejaVuSans-70" x="702.628906"/>
     <use xlink:href="#DejaVuSans-65" x="766.105469"/>
     <use xlink:href="#DejaVuSans-6c" x="827.628906"/>
     <use xlink:href="#DejaVuSans-6f" x="855.412109"/>
     <use xlink:href="#DejaVuSans-20" x="916.59375"/>
     <use xlink:href="#DejaVuSans-4e" x="948.380859"/>
     <use xlink:href="#DejaVuSans-fa" x="1023.185547"/>
     <use xlink:href="#DejaVuSans-6d" x="1086.564453"/>
     <use xlink:href="#DejaVuSans-65" x="1183.976562"/>
     <use xlink:href="#DejaVuSans-72" x="1245.5"/>
     <use xlink:href="#DejaVuSans-6f" x="1284.363281"/>
     <use xlink:href="#DejaVuSans-20" x="1345.544922"/>
     <use xlink:href="#DejaVuSans-64" x="1377.332031"/>
     <use xlink:href="#DejaVuSans-65" x="1440.808594"/>
     <use xlink:href="#DejaVuSans-20" x="1502.332031"/>
     <use xlink:href="#DejaVuSans-45" x="1534.119141"/>
     <use xlink:href="#DejaVuSans-6e" x="1597.302734"/>
     <use xlink:href="#DejaVuSans-74" x="1660.681641"/>
     <use xlink:href="#DejaVuSans-72" x="1699.890625"/>
     <use xlink:href="#DejaVuSans-61" x="1741.003906"/>
     <use xlink:href="#DejaVuSans-64" x="1802.283203"/>
     <use xlink:href="#DejaVuSans-61" x="1865.759766"/>
     <use xlink:href="#DejaVuSans-73" x="1927.039062"/>
     <use xlink:href="#DejaVuSans-20" x="1979.138672"/>
     <use xlink:href="#DejaVuSans-28" x="2010.925781"/>
     <use xlink:href="#DejaVuSans-44" x="2049.939453"/>
     <use xlink:href="#DejaVuSans-79" x="2126.941406"/>
     <use xlink:href="#DejaVuSans-6e" x="2186.121094"/>
     <use xlink:href="#DejaVuSans-29" x="2249.5"/>
    </g>
   </g>
   <g id="legend_1">
    <g id="patch_7">
     <path d="M 97 104.674375 
L 220.904688 104.674375 
Q 222.904688 104.674375 222.904688 102.674375 
L 222.904688 58.84 
Q 222.904688 56.84 220.904688 56.84 
L 97 56.84 
Q 95 56.84 95 58.84 
L 95 102.674375 
Q 95 104.674375 97 104.674375 
z
" style="fill: #ffffff; opacity: 0.8; stroke: #cccccc; stroke-linejoin: miter"/>
    </g>
    <g id="line2d_26">
     <path d="M 99 65.338437 
L 109 65.338437 
L 119 65.338437 
" style="fill: none; stroke: #1f77b4; stroke-width: 1.5; stroke-linecap: square"/>
     <g>
      <use xlink:href="#me978f9b86a" x="109" y="65.338437" style="fill: #1f77b4; stroke: #1f77b4"/>
     </g>
    </g>
    <g id="text_15">
     <!-- Tempo de Usuário -->
     <g transform="translate(127 68.838437) scale(0.1 -0.1)">
      <defs>
       <path id="DejaVuSans-55" d="M 556 4666 
L 1191 4666 
L 1191 1831 
Q 1191 1081 1462 751 
Q 1734 422 2344 422 
Q 2950 422 3222 751 
Q 3494 1081 3494 1831 
L 3494 4666 
L 4128 4666 
L 4128 1753 
Q 4128 841 3676 375 
Q 3225 -91 2344 -91 
Q 1459 -91 1007 375 
Q 556 841 556 1753 
L 556 4666 
z
" transform="scale(0.015625)"/>
       <path id="DejaVuSans-e1" d="M 2194 1759 
Q 1497 1759 1228 1600 
Q 959 1441 959 1056 
Q 959 750 1161 570 
Q 1363 391 1709 391 
Q 2188 391 2477 730 
Q 2766 1069 2766 1631 
L 2766 1759 
L 2194 1759 
z
M 3341 1997 
L 3341 0 
L 2766 0 
L 2766 531 
Q 2569 213 2275 61 
Q 1981 -91 1556 -91 
Q 1019 -91 701 211 
Q 384 513 384 1019 
Q 384 1609 779 1909 
Q 1175 2209 1959 2209 
L 2766 2209 
L 2766 2266 
Q 2766 2663 2505 2880 
Q 2244 3097 1772 3097 
Q 1472 3097 1187 3025 
Q 903 2953 641 2809 
L 641 3341 
Q 956 3463 1253 3523 
Q 1550 3584 1831 3584 
Q 2591 3584 2966 3190 
Q 3341 2797 3341 1997 
z
M 2291 5119 
L 2913 5119 
L 1894 3944 
L 1416 3944 
L 2291 5119 
z
" transform="scale(0.015625)"/>
      </defs>
      <use xlink:href="#DejaVuSans-54"/>
      <use xlink:href="#DejaVuSans-65" x="44.083984"/>
      <use xlink:href="#DejaVuSans-6d" x="105.607422"/>
      <use xlink:href="#DejaVuSans-70" x="203.019531"/>
      <use xlink:href="#DejaVuSans-6f" x="266.496094"/>
      <use xlink:href="#DejaVuSans-20" x="327.677734"/>
      <use xlink:href="#DejaVuSans-64" x="359.464844"/>
      <use xlink:href="#DejaVuSans-65" x="422.941406"/>
      <use xlink:href="#DejaVuSans-20" x="484.464844"/>
      <use xlink:href="#DejaVuSans-55" x="516.251953"/>
      <use xlink:href="#DejaVuSans-73" x="589.445312"/>
      <use xlink:href="#DejaVuSans-75" x="641.544922"/>
      <use xlink:href="#DejaVuSans-e1" x="704.923828"/>
      <use xlink:href="#DejaVuSans-72" x="766.203125"/>
      <use xlink:href="#DejaVuSans-69" x="807.316406"/>
      <use xlink:href="#DejaVuSans-6f" x="835.099609"/>
     </g>
    </g>
    <g id="line2d_27">
     <path d="M 99 80.016563 
L 109 80.016563 
L 119 80.016563 
" style="fill: none; stroke: #ff7f0e; stroke-width: 1.5; stroke-linecap: square"/>
     <g>
      <use xlink:href="#mc50be2279b" x="109" y="80.016563" style="fill: #ff7f0e; stroke: #ff7f0e"/>
     </g>
    </g>
    <g id="text_16">
     <!-- Tempo de Sistema -->
     <g transform="translate(127 83.516563) scale(0.1 -0.1)">
      <defs>
       <path id="DejaVuSans-53" d="M 3425 4513 
L 3425 3897 
Q 3066 4069 2747 4153 
Q 2428 4238 2131 4238 
Q 1616 4238 1336 4038 
Q 1056 3838 1056 3469 
Q 1056 3159 1242 3001 
Q 1428 2844 1947 2747 
L 2328 2669 
Q 3034 2534 3370 2195 
Q 3706 1856 3706 1288 
Q 3706 609 3251 259 
Q 2797 -91 1919 -91 
Q 1588 -91 1214 -16 
Q 841 59 441 206 
L 441 856 
Q 825 641 1194 531 
Q 1563 422 1919 422 
Q 2459 422 2753 634 
Q 3047 847 3047 1241 
Q 3047 1584 2836 1778 
Q 2625 1972 2144 2069 
L 1759 2144 
Q 1053 2284 737 2584 
Q 422 2884 422 3419 
Q 422 4038 858 4394 
Q 1294 4750 2059 4750 
Q 2388 4750 2728 4690 
Q 3069 4631 3425 4513 
z
" transform="scale(0.015625)"/>
      </defs>
      <use xlink:href="#DejaVuSans-54"/>
      <use xlink:href="#DejaVuSans-65" x="44.083984"/>
      <use xlink:href="#DejaVuSans-6d" x="105.607422"/>
      <use xlink:href="#DejaVuSans-70" x="203.019531"/>
      <use xlink:href="#DejaVuSans-6f" x="266.496094"/>
      <use xlink:href="#DejaVuSans-20" x="327.677734"/>
      <use xlink:href="#DejaVuSans-64" x="359.464844"/>
      <use xlink:href="#DejaVuSans-65" x="422.941406"/>
      <use xlink:href="#DejaVuSans-20" x="484.464844"/>
      <use xlink:href="#DejaVuSans-53" x="516.251953"/>
      <use xlink:href="#DejaVuSans-69" x="579.728516"/>
      <use xlink:href="#DejaVuSans-73" x="607.511719"/>
      <use xlink:href="#DejaVuSans-74" x="659.611328"/>
      <use xlink:href="#DejaVuSans-65" x="698.820312"/>
      <use xlink:href="#DejaVuSans-6d" x="760.34375"/>
      <use xlink:href="#DejaVuSans-61" x="857.755859"/>
     </g>
    </g>
    <g id="line2d_28">
     <path d="M 99 95.094688 
L 109 95.094688 
L 119 95.094688 
" style="fill: none; stroke: #2ca02c; stroke-width: 1.5; stroke-linecap: square"/>
     <g>
      <use xlink:href="#mdd9f9e1fb6" x="109" y="95.094688" style="fill: #2ca02c; stroke: #2ca02c"/>
     </g>
    </g>
    <g id="text_17">
     <!-- Tempo de Relógio -->
     <g transform="translate(127 98.594688) scale(0.1 -0.1)">
      <defs>
       <path id="DejaVuSans-52" d="M 2841 2188 
Q 3044 2119 3236 1894 
Q 3428 1669 3622 1275 
L 4263 0 
L 3584 0 
L 2988 1197 
Q 2756 1666 2539 1819 
Q 2322 1972 1947 1972 
L 1259 1972 
L 1259 0 
L 628 0 
L 628 4666 
L 2053 4666 
Q 2853 4666 3247 4331 
Q 3641 3997 3641 3322 
Q 3641 2881 3436 2590 
Q 3231 2300 2841 2188 
z
M 1259 4147 
L 1259 2491 
L 2053 2491 
Q 2509 2491 2742 2702 
Q 2975 2913 2975 3322 
Q 2975 3731 2742 3939 
Q 2509 4147 2053 4147 
L 1259 4147 
z
" transform="scale(0.015625)"/>
       <path id="DejaVuSans-f3" d="M 1959 3097 
Q 1497 3097 1228 2736 
Q 959 2375 959 1747 
Q 959 1119 1226 758 
Q 1494 397 1959 397 
Q 2419 397 2687 759 
Q 2956 1122 2956 1747 
Q 2956 2369 2687 2733 
Q 2419 3097 1959 3097 
z
M 1959 3584 
Q 2709 3584 3137 3096 
Q 3566 2609 3566 1747 
Q 3566 888 3137 398 
Q 2709 -91 1959 -91 
Q 1206 -91 779 398 
Q 353 888 353 1747 
Q 353 2609 779 3096 
Q 1206 3584 1959 3584 
z
M 2394 5119 
L 3016 5119 
L 1997 3944 
L 1519 3944 
L 2394 5119 
z
" transform="scale(0.015625)"/>
      </defs>
      <use xlink:href="#DejaVuSans-54"/>
      <use xlink:href="#DejaVuSans-65" x="44.083984"/>
      <use xlink:href="#DejaVuSans-6d" x="105.607422"/>
      <use xlink:href="#DejaVuSans-70" x="203.019531"/>
      <use xlink:href="#DejaVuSans-6f" x="266.496094"/>
      <use xlink:href="#DejaVuSans-20" x="327.677734"/>
      <use xlink:href="#DejaVuSans-64" x="359.464844"/>
      <use xlink:href="#DejaVuSans-65" x="422.941406"/>
      <use xlink:href="#DejaVuSans-20" x="484.464844"/>
      <use xlink:href="#DejaVuSans-52" x="516.251953"/>
      <use xlink:href="#DejaVuSans-65" x="581.234375"/>
      <use xlink:href="#DejaVuSans-6c" x="642.757812"/>
      <use xlink:href="#DejaVuSans-f3" x="670.541016"/>
      <use xlink:href="#DejaVuSans-67" x="731.722656"/>
      <use xlink:href="#DejaVuSans-69" x="795.199219"/>
      <use xlink:href="#DejaVuSans-6f" x="822.982422"/>
     </g>
    </g>
   </g>
  </g>
 </g>
 <defs>
  <clipPath id="p3fd9da37a4">
   <rect x="90" y="51.84" width="558" height="332.64"/>
  </clipPath>
 </defs>
</svg>
