<?xml version="1.0" encoding="utf-8" standalone="no"?>
<!DOCTYPE svg PUBLIC "-//W3C//DTD SVG 1.1//EN"
  "http://www.w3.org/Graphics/SVG/1.1/DTD/svg11.dtd">
<svg xmlns:xlink="http://www.w3.org/1999/xlink" width="720pt" height="432pt" viewBox="0 0 720 432" xmlns="http://www.w3.org/2000/svg" version="1.1">
 <metadata>
  <rdf:RDF xmlns:dc="http://purl.org/dc/elements/1.1/" xmlns:cc="http://creativecommons.org/ns#" xmlns:rdf="http://www.w3.org/1999/02/22-rdf-syntax-ns#">
   <cc:Work>
    <dc:type rdf:resource="http://purl.org/dc/dcmitype/StillImage"/>
    <dc:date>2024-08-15T14:02:45.975378</dc:date>
    <dc:format>image/svg+xml</dc:format>
    <dc:creator>
     <cc:Agent>
      <dc:title>Matplotlib v3.8.4, https://matplotlib.org/</dc:title>
     </cc:Agent>
    </dc:creator>
   </cc:Work>
  </rdf:RDF>
 </metadata>
 <defs>
  <style type="text/css">*{stroke-linejoin: round; stroke-linecap: butt}</style>
 </defs>
 <g id="figure_1">
  <g id="patch_1">
   <path d="M 0 432 
L 720 432 
L 720 0 
L 0 0 
z
" style="fill: #ffffff"/>
  </g>
  <g id="axes_1">
   <g id="patch_2">
    <path d="M 90 384.48 
L 648 384.48 
L 648 51.84 
L 90 51.84 
z
" style="fill: #ffffff"/>
   </g>
   <g id="matplotlib.axis_1">
    <g id="xtick_1">
     <g id="line2d_1">
      <path d="M 114.328386 384.48 
L 114.328386 51.84 
" clip-path="url(#p20060634fe)" style="fill: none; stroke: #b0b0b0; stroke-width: 0.8; stroke-linecap: square"/>
     </g>
     <g id="line2d_2">
      <defs>
       <path id="m4c59cc95af" d="M 0 0 
L 0 3.5 
" style="stroke: #000000; stroke-width: 0.8"/>
      </defs>
      <g>
       <use xlink:href="#m4c59cc95af" x="114.328386" y="384.48" style="stroke: #000000; stroke-width: 0.8"/>
      </g>
     </g>
     <g id="text_1">
      <!-- 0 -->
      <g transform="translate(111.147136 399.078438) scale(0.1 -0.1)">
       <defs>
        <path id="DejaVuSans-30" d="M 2034 4250 
Q 1547 4250 1301 3770 
Q 1056 3291 1056 2328 
Q 1056 1369 1301 889 
Q 1547 409 2034 409 
Q 2525 409 2770 889 
Q 3016 1369 3016 2328 
Q 3016 3291 2770 3770 
Q 2525 4250 2034 4250 
z
M 2034 4750 
Q 2819 4750 3233 4129 
Q 3647 3509 3647 2328 
Q 3647 1150 3233 529 
Q 2819 -91 2034 -91 
Q 1250 -91 836 529 
Q 422 1150 422 2328 
Q 422 3509 836 4129 
Q 1250 4750 2034 4750 
z
" transform="scale(0.015625)"/>
       </defs>
       <use xlink:href="#DejaVuSans-30"/>
      </g>
     </g>
    </g>
    <g id="xtick_2">
     <g id="line2d_3">
      <path d="M 217.853432 384.48 
L 217.853432 51.84 
" clip-path="url(#p20060634fe)" style="fill: none; stroke: #b0b0b0; stroke-width: 0.8; stroke-linecap: square"/>
     </g>
     <g id="line2d_4">
      <g>
       <use xlink:href="#m4c59cc95af" x="217.853432" y="384.48" style="stroke: #000000; stroke-width: 0.8"/>
      </g>
     </g>
     <g id="text_2">
      <!-- 100000 -->
      <g transform="translate(198.765932 399.078438) scale(0.1 -0.1)">
       <defs>
        <path id="DejaVuSans-31" d="M 794 531 
L 1825 531 
L 1825 4091 
L 703 3866 
L 703 4441 
L 1819 4666 
L 2450 4666 
L 2450 531 
L 3481 531 
L 3481 0 
L 794 0 
L 794 531 
z
" transform="scale(0.015625)"/>
       </defs>
       <use xlink:href="#DejaVuSans-31"/>
       <use xlink:href="#DejaVuSans-30" x="63.623047"/>
       <use xlink:href="#DejaVuSans-30" x="127.246094"/>
       <use xlink:href="#DejaVuSans-30" x="190.869141"/>
       <use xlink:href="#DejaVuSans-30" x="254.492188"/>
       <use xlink:href="#DejaVuSans-30" x="318.115234"/>
      </g>
     </g>
    </g>
    <g id="xtick_3">
     <g id="line2d_5">
      <path d="M 321.378479 384.48 
L 321.378479 51.84 
" clip-path="url(#p20060634fe)" style="fill: none; stroke: #b0b0b0; stroke-width: 0.8; stroke-linecap: square"/>
     </g>
     <g id="line2d_6">
      <g>
       <use xlink:href="#m4c59cc95af" x="321.378479" y="384.48" style="stroke: #000000; stroke-width: 0.8"/>
      </g>
     </g>
     <g id="text_3">
      <!-- 200000 -->
      <g transform="translate(302.290979 399.078438) scale(0.1 -0.1)">
       <defs>
        <path id="DejaVuSans-32" d="M 1228 531 
L 3431 531 
L 3431 0 
L 469 0 
L 469 531 
Q 828 903 1448 1529 
Q 2069 2156 2228 2338 
Q 2531 2678 2651 2914 
Q 2772 3150 2772 3378 
Q 2772 3750 2511 3984 
Q 2250 4219 1831 4219 
Q 1534 4219 1204 4116 
Q 875 4013 500 3803 
L 500 4441 
Q 881 4594 1212 4672 
Q 1544 4750 1819 4750 
Q 2544 4750 2975 4387 
Q 3406 4025 3406 3419 
Q 3406 3131 3298 2873 
Q 3191 2616 2906 2266 
Q 2828 2175 2409 1742 
Q 1991 1309 1228 531 
z
" transform="scale(0.015625)"/>
       </defs>
       <use xlink:href="#DejaVuSans-32"/>
       <use xlink:href="#DejaVuSans-30" x="63.623047"/>
       <use xlink:href="#DejaVuSans-30" x="127.246094"/>
       <use xlink:href="#DejaVuSans-30" x="190.869141"/>
       <use xlink:href="#DejaVuSans-30" x="254.492188"/>
       <use xlink:href="#DejaVuSans-30" x="318.115234"/>
      </g>
     </g>
    </g>
    <g id="xtick_4">
     <g id="line2d_7">
      <path d="M 424.903525 384.48 
L 424.903525 51.84 
" clip-path="url(#p20060634fe)" style="fill: none; stroke: #b0b0b0; stroke-width: 0.8; stroke-linecap: square"/>
     </g>
     <g id="line2d_8">
      <g>
       <use xlink:href="#m4c59cc95af" x="424.903525" y="384.48" style="stroke: #000000; stroke-width: 0.8"/>
      </g>
     </g>
     <g id="text_4">
      <!-- 300000 -->
      <g transform="translate(405.816025 399.078438) scale(0.1 -0.1)">
       <defs>
        <path id="DejaVuSans-33" d="M 2597 2516 
Q 3050 2419 3304 2112 
Q 3559 1806 3559 1356 
Q 3559 666 3084 287 
Q 2609 -91 1734 -91 
Q 1441 -91 1130 -33 
Q 819 25 488 141 
L 488 750 
Q 750 597 1062 519 
Q 1375 441 1716 441 
Q 2309 441 2620 675 
Q 2931 909 2931 1356 
Q 2931 1769 2642 2001 
Q 2353 2234 1838 2234 
L 1294 2234 
L 1294 2753 
L 1863 2753 
Q 2328 2753 2575 2939 
Q 2822 3125 2822 3475 
Q 2822 3834 2567 4026 
Q 2313 4219 1838 4219 
Q 1578 4219 1281 4162 
Q 984 4106 628 3988 
L 628 4550 
Q 988 4650 1302 4700 
Q 1616 4750 1894 4750 
Q 2613 4750 3031 4423 
Q 3450 4097 3450 3541 
Q 3450 3153 3228 2886 
Q 3006 2619 2597 2516 
z
" transform="scale(0.015625)"/>
       </defs>
       <use xlink:href="#DejaVuSans-33"/>
       <use xlink:href="#DejaVuSans-30" x="63.623047"/>
       <use xlink:href="#DejaVuSans-30" x="127.246094"/>
       <use xlink:href="#DejaVuSans-30" x="190.869141"/>
       <use xlink:href="#DejaVuSans-30" x="254.492188"/>
       <use xlink:href="#DejaVuSans-30" x="318.115234"/>
      </g>
     </g>
    </g>
    <g id="xtick_5">
     <g id="line2d_9">
      <path d="M 528.428571 384.48 
L 528.428571 51.84 
" clip-path="url(#p20060634fe)" style="fill: none; stroke: #b0b0b0; stroke-width: 0.8; stroke-linecap: square"/>
     </g>
     <g id="line2d_10">
      <g>
       <use xlink:href="#m4c59cc95af" x="528.428571" y="384.48" style="stroke: #000000; stroke-width: 0.8"/>
      </g>
     </g>
     <g id="text_5">
      <!-- 400000 -->
      <g transform="translate(509.341071 399.078438) scale(0.1 -0.1)">
       <defs>
        <path id="DejaVuSans-34" d="M 2419 4116 
L 825 1625 
L 2419 1625 
L 2419 4116 
z
M 2253 4666 
L 3047 4666 
L 3047 1625 
L 3713 1625 
L 3713 1100 
L 3047 1100 
L 3047 0 
L 2419 0 
L 2419 1100 
L 313 1100 
L 313 1709 
L 2253 4666 
z
" transform="scale(0.015625)"/>
       </defs>
       <use xlink:href="#DejaVuSans-34"/>
       <use xlink:href="#DejaVuSans-30" x="63.623047"/>
       <use xlink:href="#DejaVuSans-30" x="127.246094"/>
       <use xlink:href="#DejaVuSans-30" x="190.869141"/>
       <use xlink:href="#DejaVuSans-30" x="254.492188"/>
       <use xlink:href="#DejaVuSans-30" x="318.115234"/>
      </g>
     </g>
    </g>
    <g id="xtick_6">
     <g id="line2d_11">
      <path d="M 631.953618 384.48 
L 631.953618 51.84 
" clip-path="url(#p20060634fe)" style="fill: none; stroke: #b0b0b0; stroke-width: 0.8; stroke-linecap: square"/>
     </g>
     <g id="line2d_12">
      <g>
       <use xlink:href="#m4c59cc95af" x="631.953618" y="384.48" style="stroke: #000000; stroke-width: 0.8"/>
      </g>
     </g>
     <g id="text_6">
      <!-- 500000 -->
      <g transform="translate(612.866118 399.078438) scale(0.1 -0.1)">
       <defs>
        <path id="DejaVuSans-35" d="M 691 4666 
L 3169 4666 
L 3169 4134 
L 1269 4134 
L 1269 2991 
Q 1406 3038 1543 3061 
Q 1681 3084 1819 3084 
Q 2600 3084 3056 2656 
Q 3513 2228 3513 1497 
Q 3513 744 3044 326 
Q 2575 -91 1722 -91 
Q 1428 -91 1123 -41 
Q 819 9 494 109 
L 494 744 
Q 775 591 1075 516 
Q 1375 441 1709 441 
Q 2250 441 2565 725 
Q 2881 1009 2881 1497 
Q 2881 1984 2565 2268 
Q 2250 2553 1709 2553 
Q 1456 2553 1204 2497 
Q 953 2441 691 2322 
L 691 4666 
z
" transform="scale(0.015625)"/>
       </defs>
       <use xlink:href="#DejaVuSans-35"/>
       <use xlink:href="#DejaVuSans-30" x="63.623047"/>
       <use xlink:href="#DejaVuSans-30" x="127.246094"/>
       <use xlink:href="#DejaVuSans-30" x="190.869141"/>
       <use xlink:href="#DejaVuSans-30" x="254.492188"/>
       <use xlink:href="#DejaVuSans-30" x="318.115234"/>
      </g>
     </g>
    </g>
    <g id="text_7">
     <!-- Tamanho das Entradas (n) -->
     <g transform="translate(303.444531 412.756563) scale(0.1 -0.1)">
      <defs>
       <path id="DejaVuSans-54" d="M -19 4666 
L 3928 4666 
L 3928 4134 
L 2272 4134 
L 2272 0 
L 1638 0 
L 1638 4134 
L -19 4134 
L -19 4666 
z
" transform="scale(0.015625)"/>
       <path id="DejaVuSans-61" d="M 2194 1759 
Q 1497 1759 1228 1600 
Q 959 1441 959 1056 
Q 959 750 1161 570 
Q 1363 391 1709 391 
Q 2188 391 2477 730 
Q 2766 1069 2766 1631 
L 2766 1759 
L 2194 1759 
z
M 3341 1997 
L 3341 0 
L 2766 0 
L 2766 531 
Q 2569 213 2275 61 
Q 1981 -91 1556 -91 
Q 1019 -91 701 211 
Q 384 513 384 1019 
Q 384 1609 779 1909 
Q 1175 2209 1959 2209 
L 2766 2209 
L 2766 2266 
Q 2766 2663 2505 2880 
Q 2244 3097 1772 3097 
Q 1472 3097 1187 3025 
Q 903 2953 641 2809 
L 641 3341 
Q 956 3463 1253 3523 
Q 1550 3584 1831 3584 
Q 2591 3584 2966 3190 
Q 3341 2797 3341 1997 
z
" transform="scale(0.015625)"/>
       <path id="DejaVuSans-6d" d="M 3328 2828 
Q 3544 3216 3844 3400 
Q 4144 3584 4550 3584 
Q 5097 3584 5394 3201 
Q 5691 2819 5691 2113 
L 5691 0 
L 5113 0 
L 5113 2094 
Q 5113 2597 4934 2840 
Q 4756 3084 4391 3084 
Q 3944 3084 3684 2787 
Q 3425 2491 3425 1978 
L 3425 0 
L 2847 0 
L 2847 2094 
Q 2847 2600 2669 2842 
Q 2491 3084 2119 3084 
Q 1678 3084 1418 2786 
Q 1159 2488 1159 1978 
L 1159 0 
L 581 0 
L 581 3500 
L 1159 3500 
L 1159 2956 
Q 1356 3278 1631 3431 
Q 1906 3584 2284 3584 
Q 2666 3584 2933 3390 
Q 3200 3197 3328 2828 
z
" transform="scale(0.015625)"/>
       <path id="DejaVuSans-6e" d="M 3513 2113 
L 3513 0 
L 2938 0 
L 2938 2094 
Q 2938 2591 2744 2837 
Q 2550 3084 2163 3084 
Q 1697 3084 1428 2787 
Q 1159 2491 1159 1978 
L 1159 0 
L 581 0 
L 581 3500 
L 1159 3500 
L 1159 2956 
Q 1366 3272 1645 3428 
Q 1925 3584 2291 3584 
Q 2894 3584 3203 3211 
Q 3513 2838 3513 2113 
z
" transform="scale(0.015625)"/>
       <path id="DejaVuSans-68" d="M 3513 2113 
L 3513 0 
L 2938 0 
L 2938 2094 
Q 2938 2591 2744 2837 
Q 2550 3084 2163 3084 
Q 1697 3084 1428 2787 
Q 1159 2491 1159 1978 
L 1159 0 
L 581 0 
L 581 4863 
L 1159 4863 
L 1159 2956 
Q 1366 3272 1645 3428 
Q 1925 3584 2291 3584 
Q 2894 3584 3203 3211 
Q 3513 2838 3513 2113 
z
" transform="scale(0.015625)"/>
       <path id="DejaVuSans-6f" d="M 1959 3097 
Q 1497 3097 1228 2736 
Q 959 2375 959 1747 
Q 959 1119 1226 758 
Q 1494 397 1959 397 
Q 2419 397 2687 759 
Q 2956 1122 2956 1747 
Q 2956 2369 2687 2733 
Q 2419 3097 1959 3097 
z
M 1959 3584 
Q 2709 3584 3137 3096 
Q 3566 2609 3566 1747 
Q 3566 888 3137 398 
Q 2709 -91 1959 -91 
Q 1206 -91 779 398 
Q 353 888 353 1747 
Q 353 2609 779 3096 
Q 1206 3584 1959 3584 
z
" transform="scale(0.015625)"/>
       <path id="DejaVuSans-20" transform="scale(0.015625)"/>
       <path id="DejaVuSans-64" d="M 2906 2969 
L 2906 4863 
L 3481 4863 
L 3481 0 
L 2906 0 
L 2906 525 
Q 2725 213 2448 61 
Q 2172 -91 1784 -91 
Q 1150 -91 751 415 
Q 353 922 353 1747 
Q 353 2572 751 3078 
Q 1150 3584 1784 3584 
Q 2172 3584 2448 3432 
Q 2725 3281 2906 2969 
z
M 947 1747 
Q 947 1113 1208 752 
Q 1469 391 1925 391 
Q 2381 391 2643 752 
Q 2906 1113 2906 1747 
Q 2906 2381 2643 2742 
Q 2381 3103 1925 3103 
Q 1469 3103 1208 2742 
Q 947 2381 947 1747 
z
" transform="scale(0.015625)"/>
       <path id="DejaVuSans-73" d="M 2834 3397 
L 2834 2853 
Q 2591 2978 2328 3040 
Q 2066 3103 1784 3103 
Q 1356 3103 1142 2972 
Q 928 2841 928 2578 
Q 928 2378 1081 2264 
Q 1234 2150 1697 2047 
L 1894 2003 
Q 2506 1872 2764 1633 
Q 3022 1394 3022 966 
Q 3022 478 2636 193 
Q 2250 -91 1575 -91 
Q 1294 -91 989 -36 
Q 684 19 347 128 
L 347 722 
Q 666 556 975 473 
Q 1284 391 1588 391 
Q 1994 391 2212 530 
Q 2431 669 2431 922 
Q 2431 1156 2273 1281 
Q 2116 1406 1581 1522 
L 1381 1569 
Q 847 1681 609 1914 
Q 372 2147 372 2553 
Q 372 3047 722 3315 
Q 1072 3584 1716 3584 
Q 2034 3584 2315 3537 
Q 2597 3491 2834 3397 
z
" transform="scale(0.015625)"/>
       <path id="DejaVuSans-45" d="M 628 4666 
L 3578 4666 
L 3578 4134 
L 1259 4134 
L 1259 2753 
L 3481 2753 
L 3481 2222 
L 1259 2222 
L 1259 531 
L 3634 531 
L 3634 0 
L 628 0 
L 628 4666 
z
" transform="scale(0.015625)"/>
       <path id="DejaVuSans-74" d="M 1172 4494 
L 1172 3500 
L 2356 3500 
L 2356 3053 
L 1172 3053 
L 1172 1153 
Q 1172 725 1289 603 
Q 1406 481 1766 481 
L 2356 481 
L 2356 0 
L 1766 0 
Q 1100 0 847 248 
Q 594 497 594 1153 
L 594 3053 
L 172 3053 
L 172 3500 
L 594 3500 
L 594 4494 
L 1172 4494 
z
" transform="scale(0.015625)"/>
       <path id="DejaVuSans-72" d="M 2631 2963 
Q 2534 3019 2420 3045 
Q 2306 3072 2169 3072 
Q 1681 3072 1420 2755 
Q 1159 2438 1159 1844 
L 1159 0 
L 581 0 
L 581 3500 
L 1159 3500 
L 1159 2956 
Q 1341 3275 1631 3429 
Q 1922 3584 2338 3584 
Q 2397 3584 2469 3576 
Q 2541 3569 2628 3553 
L 2631 2963 
z
" transform="scale(0.015625)"/>
       <path id="DejaVuSans-28" d="M 1984 4856 
Q 1566 4138 1362 3434 
Q 1159 2731 1159 2009 
Q 1159 1288 1364 580 
Q 1569 -128 1984 -844 
L 1484 -844 
Q 1016 -109 783 600 
Q 550 1309 550 2009 
Q 550 2706 781 3412 
Q 1013 4119 1484 4856 
L 1984 4856 
z
" transform="scale(0.015625)"/>
       <path id="DejaVuSans-29" d="M 513 4856 
L 1013 4856 
Q 1481 4119 1714 3412 
Q 1947 2706 1947 2009 
Q 1947 1309 1714 600 
Q 1481 -109 1013 -844 
L 513 -844 
Q 928 -128 1133 580 
Q 1338 1288 1338 2009 
Q 1338 2731 1133 3434 
Q 928 4138 513 4856 
z
" transform="scale(0.015625)"/>
      </defs>
      <use xlink:href="#DejaVuSans-54"/>
      <use xlink:href="#DejaVuSans-61" x="44.583984"/>
      <use xlink:href="#DejaVuSans-6d" x="105.863281"/>
      <use xlink:href="#DejaVuSans-61" x="203.275391"/>
      <use xlink:href="#DejaVuSans-6e" x="264.554688"/>
      <use xlink:href="#DejaVuSans-68" x="327.933594"/>
      <use xlink:href="#DejaVuSans-6f" x="391.3125"/>
      <use xlink:href="#DejaVuSans-20" x="452.494141"/>
      <use xlink:href="#DejaVuSans-64" x="484.28125"/>
      <use xlink:href="#DejaVuSans-61" x="547.757812"/>
      <use xlink:href="#DejaVuSans-73" x="609.037109"/>
      <use xlink:href="#DejaVuSans-20" x="661.136719"/>
      <use xlink:href="#DejaVuSans-45" x="692.923828"/>
      <use xlink:href="#DejaVuSans-6e" x="756.107422"/>
      <use xlink:href="#DejaVuSans-74" x="819.486328"/>
      <use xlink:href="#DejaVuSans-72" x="858.695312"/>
      <use xlink:href="#DejaVuSans-61" x="899.808594"/>
      <use xlink:href="#DejaVuSans-64" x="961.087891"/>
      <use xlink:href="#DejaVuSans-61" x="1024.564453"/>
      <use xlink:href="#DejaVuSans-73" x="1085.84375"/>
      <use xlink:href="#DejaVuSans-20" x="1137.943359"/>
      <use xlink:href="#DejaVuSans-28" x="1169.730469"/>
      <use xlink:href="#DejaVuSans-6e" x="1208.744141"/>
      <use xlink:href="#DejaVuSans-29" x="1272.123047"/>
     </g>
    </g>
   </g>
   <g id="matplotlib.axis_2">
    <g id="ytick_1">
     <g id="line2d_13">
      <path d="M 90 370.015241 
L 648 370.015241 
" clip-path="url(#p20060634fe)" style="fill: none; stroke: #b0b0b0; stroke-width: 0.8; stroke-linecap: square"/>
     </g>
     <g id="line2d_14">
      <defs>
       <path id="md1f4601a8d" d="M 0 0 
L -3.5 0 
" style="stroke: #000000; stroke-width: 0.8"/>
      </defs>
      <g>
       <use xlink:href="#md1f4601a8d" x="90" y="370.015241" style="stroke: #000000; stroke-width: 0.8"/>
      </g>
     </g>
     <g id="text_8">
      <!-- 0.0000 -->
      <g transform="translate(48.009375 373.814459) scale(0.1 -0.1)">
       <defs>
        <path id="DejaVuSans-2e" d="M 684 794 
L 1344 794 
L 1344 0 
L 684 0 
L 684 794 
z
" transform="scale(0.015625)"/>
       </defs>
       <use xlink:href="#DejaVuSans-30"/>
       <use xlink:href="#DejaVuSans-2e" x="63.623047"/>
       <use xlink:href="#DejaVuSans-30" x="95.410156"/>
       <use xlink:href="#DejaVuSans-30" x="159.033203"/>
       <use xlink:href="#DejaVuSans-30" x="222.65625"/>
       <use xlink:href="#DejaVuSans-30" x="286.279297"/>
      </g>
     </g>
    </g>
    <g id="ytick_2">
     <g id="line2d_15">
      <path d="M 90 318.623814 
L 648 318.623814 
" clip-path="url(#p20060634fe)" style="fill: none; stroke: #b0b0b0; stroke-width: 0.8; stroke-linecap: square"/>
     </g>
     <g id="line2d_16">
      <g>
       <use xlink:href="#md1f4601a8d" x="90" y="318.623814" style="stroke: #000000; stroke-width: 0.8"/>
      </g>
     </g>
     <g id="text_9">
      <!-- 0.0002 -->
      <g transform="translate(48.009375 322.423033) scale(0.1 -0.1)">
       <use xlink:href="#DejaVuSans-30"/>
       <use xlink:href="#DejaVuSans-2e" x="63.623047"/>
       <use xlink:href="#DejaVuSans-30" x="95.410156"/>
       <use xlink:href="#DejaVuSans-30" x="159.033203"/>
       <use xlink:href="#DejaVuSans-30" x="222.65625"/>
       <use xlink:href="#DejaVuSans-32" x="286.279297"/>
      </g>
     </g>
    </g>
    <g id="ytick_3">
     <g id="line2d_17">
      <path d="M 90 267.232388 
L 648 267.232388 
" clip-path="url(#p20060634fe)" style="fill: none; stroke: #b0b0b0; stroke-width: 0.8; stroke-linecap: square"/>
     </g>
     <g id="line2d_18">
      <g>
       <use xlink:href="#md1f4601a8d" x="90" y="267.232388" style="stroke: #000000; stroke-width: 0.8"/>
      </g>
     </g>
     <g id="text_10">
      <!-- 0.0004 -->
      <g transform="translate(48.009375 271.031607) scale(0.1 -0.1)">
       <use xlink:href="#DejaVuSans-30"/>
       <use xlink:href="#DejaVuSans-2e" x="63.623047"/>
       <use xlink:href="#DejaVuSans-30" x="95.410156"/>
       <use xlink:href="#DejaVuSans-30" x="159.033203"/>
       <use xlink:href="#DejaVuSans-30" x="222.65625"/>
       <use xlink:href="#DejaVuSans-34" x="286.279297"/>
      </g>
     </g>
    </g>
    <g id="ytick_4">
     <g id="line2d_19">
      <path d="M 90 215.840962 
L 648 215.840962 
" clip-path="url(#p20060634fe)" style="fill: none; stroke: #b0b0b0; stroke-width: 0.8; stroke-linecap: square"/>
     </g>
     <g id="line2d_20">
      <g>
       <use xlink:href="#md1f4601a8d" x="90" y="215.840962" style="stroke: #000000; stroke-width: 0.8"/>
      </g>
     </g>
     <g id="text_11">
      <!-- 0.0006 -->
      <g transform="translate(48.009375 219.640181) scale(0.1 -0.1)">
       <defs>
        <path id="DejaVuSans-36" d="M 2113 2584 
Q 1688 2584 1439 2293 
Q 1191 2003 1191 1497 
Q 1191 994 1439 701 
Q 1688 409 2113 409 
Q 2538 409 2786 701 
Q 3034 994 3034 1497 
Q 3034 2003 2786 2293 
Q 2538 2584 2113 2584 
z
M 3366 4563 
L 3366 3988 
Q 3128 4100 2886 4159 
Q 2644 4219 2406 4219 
Q 1781 4219 1451 3797 
Q 1122 3375 1075 2522 
Q 1259 2794 1537 2939 
Q 1816 3084 2150 3084 
Q 2853 3084 3261 2657 
Q 3669 2231 3669 1497 
Q 3669 778 3244 343 
Q 2819 -91 2113 -91 
Q 1303 -91 875 529 
Q 447 1150 447 2328 
Q 447 3434 972 4092 
Q 1497 4750 2381 4750 
Q 2619 4750 2861 4703 
Q 3103 4656 3366 4563 
z
" transform="scale(0.015625)"/>
       </defs>
       <use xlink:href="#DejaVuSans-30"/>
       <use xlink:href="#DejaVuSans-2e" x="63.623047"/>
       <use xlink:href="#DejaVuSans-30" x="95.410156"/>
       <use xlink:href="#DejaVuSans-30" x="159.033203"/>
       <use xlink:href="#DejaVuSans-30" x="222.65625"/>
       <use xlink:href="#DejaVuSans-36" x="286.279297"/>
      </g>
     </g>
    </g>
    <g id="ytick_5">
     <g id="line2d_21">
      <path d="M 90 164.449536 
L 648 164.449536 
" clip-path="url(#p20060634fe)" style="fill: none; stroke: #b0b0b0; stroke-width: 0.8; stroke-linecap: square"/>
     </g>
     <g id="line2d_22">
      <g>
       <use xlink:href="#md1f4601a8d" x="90" y="164.449536" style="stroke: #000000; stroke-width: 0.8"/>
      </g>
     </g>
     <g id="text_12">
      <!-- 0.0008 -->
      <g transform="translate(48.009375 168.248754) scale(0.1 -0.1)">
       <defs>
        <path id="DejaVuSans-38" d="M 2034 2216 
Q 1584 2216 1326 1975 
Q 1069 1734 1069 1313 
Q 1069 891 1326 650 
Q 1584 409 2034 409 
Q 2484 409 2743 651 
Q 3003 894 3003 1313 
Q 3003 1734 2745 1975 
Q 2488 2216 2034 2216 
z
M 1403 2484 
Q 997 2584 770 2862 
Q 544 3141 544 3541 
Q 544 4100 942 4425 
Q 1341 4750 2034 4750 
Q 2731 4750 3128 4425 
Q 3525 4100 3525 3541 
Q 3525 3141 3298 2862 
Q 3072 2584 2669 2484 
Q 3125 2378 3379 2068 
Q 3634 1759 3634 1313 
Q 3634 634 3220 271 
Q 2806 -91 2034 -91 
Q 1263 -91 848 271 
Q 434 634 434 1313 
Q 434 1759 690 2068 
Q 947 2378 1403 2484 
z
M 1172 3481 
Q 1172 3119 1398 2916 
Q 1625 2713 2034 2713 
Q 2441 2713 2670 2916 
Q 2900 3119 2900 3481 
Q 2900 3844 2670 4047 
Q 2441 4250 2034 4250 
Q 1625 4250 1398 4047 
Q 1172 3844 1172 3481 
z
" transform="scale(0.015625)"/>
       </defs>
       <use xlink:href="#DejaVuSans-30"/>
       <use xlink:href="#DejaVuSans-2e" x="63.623047"/>
       <use xlink:href="#DejaVuSans-30" x="95.410156"/>
       <use xlink:href="#DejaVuSans-30" x="159.033203"/>
       <use xlink:href="#DejaVuSans-30" x="222.65625"/>
       <use xlink:href="#DejaVuSans-38" x="286.279297"/>
      </g>
     </g>
    </g>
    <g id="ytick_6">
     <g id="line2d_23">
      <path d="M 90 113.058109 
L 648 113.058109 
" clip-path="url(#p20060634fe)" style="fill: none; stroke: #b0b0b0; stroke-width: 0.8; stroke-linecap: square"/>
     </g>
     <g id="line2d_24">
      <g>
       <use xlink:href="#md1f4601a8d" x="90" y="113.058109" style="stroke: #000000; stroke-width: 0.8"/>
      </g>
     </g>
     <g id="text_13">
      <!-- 0.0010 -->
      <g transform="translate(48.009375 116.857328) scale(0.1 -0.1)">
       <use xlink:href="#DejaVuSans-30"/>
       <use xlink:href="#DejaVuSans-2e" x="63.623047"/>
       <use xlink:href="#DejaVuSans-30" x="95.410156"/>
       <use xlink:href="#DejaVuSans-30" x="159.033203"/>
       <use xlink:href="#DejaVuSans-31" x="222.65625"/>
       <use xlink:href="#DejaVuSans-30" x="286.279297"/>
      </g>
     </g>
    </g>
    <g id="ytick_7">
     <g id="line2d_25">
      <path d="M 90 61.666683 
L 648 61.666683 
" clip-path="url(#p20060634fe)" style="fill: none; stroke: #b0b0b0; stroke-width: 0.8; stroke-linecap: square"/>
     </g>
     <g id="line2d_26">
      <g>
       <use xlink:href="#md1f4601a8d" x="90" y="61.666683" style="stroke: #000000; stroke-width: 0.8"/>
      </g>
     </g>
     <g id="text_14">
      <!-- 0.0012 -->
      <g transform="translate(48.009375 65.465902) scale(0.1 -0.1)">
       <use xlink:href="#DejaVuSans-30"/>
       <use xlink:href="#DejaVuSans-2e" x="63.623047"/>
       <use xlink:href="#DejaVuSans-30" x="95.410156"/>
       <use xlink:href="#DejaVuSans-30" x="159.033203"/>
       <use xlink:href="#DejaVuSans-31" x="222.65625"/>
       <use xlink:href="#DejaVuSans-32" x="286.279297"/>
      </g>
     </g>
    </g>
    <g id="text_15">
     <!-- Tempo médio (segundos) -->
     <g transform="translate(41.929687 281.224844) rotate(-90) scale(0.1 -0.1)">
      <defs>
       <path id="DejaVuSans-65" d="M 3597 1894 
L 3597 1613 
L 953 1613 
Q 991 1019 1311 708 
Q 1631 397 2203 397 
Q 2534 397 2845 478 
Q 3156 559 3463 722 
L 3463 178 
Q 3153 47 2828 -22 
Q 2503 -91 2169 -91 
Q 1331 -91 842 396 
Q 353 884 353 1716 
Q 353 2575 817 3079 
Q 1281 3584 2069 3584 
Q 2775 3584 3186 3129 
Q 3597 2675 3597 1894 
z
M 3022 2063 
Q 3016 2534 2758 2815 
Q 2500 3097 2075 3097 
Q 1594 3097 1305 2825 
Q 1016 2553 972 2059 
L 3022 2063 
z
" transform="scale(0.015625)"/>
       <path id="DejaVuSans-70" d="M 1159 525 
L 1159 -1331 
L 581 -1331 
L 581 3500 
L 1159 3500 
L 1159 2969 
Q 1341 3281 1617 3432 
Q 1894 3584 2278 3584 
Q 2916 3584 3314 3078 
Q 3713 2572 3713 1747 
Q 3713 922 3314 415 
Q 2916 -91 2278 -91 
Q 1894 -91 1617 61 
Q 1341 213 1159 525 
z
M 3116 1747 
Q 3116 2381 2855 2742 
Q 2594 3103 2138 3103 
Q 1681 3103 1420 2742 
Q 1159 2381 1159 1747 
Q 1159 1113 1420 752 
Q 1681 391 2138 391 
Q 2594 391 2855 752 
Q 3116 1113 3116 1747 
z
" transform="scale(0.015625)"/>
       <path id="DejaVuSans-e9" d="M 3597 1894 
L 3597 1613 
L 953 1613 
Q 991 1019 1311 708 
Q 1631 397 2203 397 
Q 2534 397 2845 478 
Q 3156 559 3463 722 
L 3463 178 
Q 3153 47 2828 -22 
Q 2503 -91 2169 -91 
Q 1331 -91 842 396 
Q 353 884 353 1716 
Q 353 2575 817 3079 
Q 1281 3584 2069 3584 
Q 2775 3584 3186 3129 
Q 3597 2675 3597 1894 
z
M 3022 2063 
Q 3016 2534 2758 2815 
Q 2500 3097 2075 3097 
Q 1594 3097 1305 2825 
Q 1016 2553 972 2059 
L 3022 2063 
z
M 2469 5119 
L 3091 5119 
L 2072 3944 
L 1594 3944 
L 2469 5119 
z
" transform="scale(0.015625)"/>
       <path id="DejaVuSans-69" d="M 603 3500 
L 1178 3500 
L 1178 0 
L 603 0 
L 603 3500 
z
M 603 4863 
L 1178 4863 
L 1178 4134 
L 603 4134 
L 603 4863 
z
" transform="scale(0.015625)"/>
       <path id="DejaVuSans-67" d="M 2906 1791 
Q 2906 2416 2648 2759 
Q 2391 3103 1925 3103 
Q 1463 3103 1205 2759 
Q 947 2416 947 1791 
Q 947 1169 1205 825 
Q 1463 481 1925 481 
Q 2391 481 2648 825 
Q 2906 1169 2906 1791 
z
M 3481 434 
Q 3481 -459 3084 -895 
Q 2688 -1331 1869 -1331 
Q 1566 -1331 1297 -1286 
Q 1028 -1241 775 -1147 
L 775 -588 
Q 1028 -725 1275 -790 
Q 1522 -856 1778 -856 
Q 2344 -856 2625 -561 
Q 2906 -266 2906 331 
L 2906 616 
Q 2728 306 2450 153 
Q 2172 0 1784 0 
Q 1141 0 747 490 
Q 353 981 353 1791 
Q 353 2603 747 3093 
Q 1141 3584 1784 3584 
Q 2172 3584 2450 3431 
Q 2728 3278 2906 2969 
L 2906 3500 
L 3481 3500 
L 3481 434 
z
" transform="scale(0.015625)"/>
       <path id="DejaVuSans-75" d="M 544 1381 
L 544 3500 
L 1119 3500 
L 1119 1403 
Q 1119 906 1312 657 
Q 1506 409 1894 409 
Q 2359 409 2629 706 
Q 2900 1003 2900 1516 
L 2900 3500 
L 3475 3500 
L 3475 0 
L 2900 0 
L 2900 538 
Q 2691 219 2414 64 
Q 2138 -91 1772 -91 
Q 1169 -91 856 284 
Q 544 659 544 1381 
z
M 1991 3584 
L 1991 3584 
z
" transform="scale(0.015625)"/>
      </defs>
      <use xlink:href="#DejaVuSans-54"/>
      <use xlink:href="#DejaVuSans-65" x="44.083984"/>
      <use xlink:href="#DejaVuSans-6d" x="105.607422"/>
      <use xlink:href="#DejaVuSans-70" x="203.019531"/>
      <use xlink:href="#DejaVuSans-6f" x="266.496094"/>
      <use xlink:href="#DejaVuSans-20" x="327.677734"/>
      <use xlink:href="#DejaVuSans-6d" x="359.464844"/>
      <use xlink:href="#DejaVuSans-e9" x="456.876953"/>
      <use xlink:href="#DejaVuSans-64" x="518.400391"/>
      <use xlink:href="#DejaVuSans-69" x="581.876953"/>
      <use xlink:href="#DejaVuSans-6f" x="609.660156"/>
      <use xlink:href="#DejaVuSans-20" x="670.841797"/>
      <use xlink:href="#DejaVuSans-28" x="702.628906"/>
      <use xlink:href="#DejaVuSans-73" x="741.642578"/>
      <use xlink:href="#DejaVuSans-65" x="793.742188"/>
      <use xlink:href="#DejaVuSans-67" x="855.265625"/>
      <use xlink:href="#DejaVuSans-75" x="918.742188"/>
      <use xlink:href="#DejaVuSans-6e" x="982.121094"/>
      <use xlink:href="#DejaVuSans-64" x="1045.5"/>
      <use xlink:href="#DejaVuSans-6f" x="1108.976562"/>
      <use xlink:href="#DejaVuSans-73" x="1170.158203"/>
      <use xlink:href="#DejaVuSans-29" x="1222.257812"/>
     </g>
    </g>
   </g>
   <g id="line2d_27">
    <path d="M 115.363636 366.854668 
L 125.716141 360.379348 
L 136.068646 354.919009 
L 146.42115 347.878384 
L 156.773655 339.976952 
L 167.12616 342.340958 
L 177.478664 326.075571 
L 187.831169 325.535961 
L 198.183673 325.009199 
L 208.536178 320.550993 
L 218.888683 324.508133 
L 229.241187 325.330396 
L 239.593692 309.103553 
L 249.946197 304.516868 
L 260.298701 302.178558 
L 270.651206 278.024588 
L 281.003711 291.848881 
L 291.356215 274.941102 
L 301.70872 269.840503 
L 312.061224 261.720658 
L 322.413729 274.478579 
L 332.766234 262.144637 
L 343.118738 249.643673 
L 353.471243 246.444556 
L 363.823748 256.453036 
L 374.176252 234.85579 
L 384.528757 238.761538 
L 394.881262 223.665307 
L 405.233766 239.725127 
L 415.586271 243.96492 
L 425.938776 221.121431 
L 436.29128 235.318312 
L 446.643785 211.061559 
L 456.996289 205.793938 
L 467.348794 201.46421 
L 477.701299 239.339692 
L 488.053803 234.508897 
L 498.406308 220.568973 
L 508.758813 145.60173 
L 519.111317 175.896976 
L 529.463822 170.924855 
L 539.816327 191.674144 
L 550.168831 200.423534 
L 560.521336 168.098327 
L 570.87384 218.539012 
L 581.226345 188.526419 
L 591.57885 142.209896 
L 601.931354 122.308566 
L 612.283859 146.835124 
L 622.636364 126.381337 
" clip-path="url(#p20060634fe)" style="fill: none; stroke: #1f77b4; stroke-width: 1.5; stroke-linecap: square"/>
    <defs>
     <path id="mfc2e1e5f83" d="M 0 3 
C 0.795609 3 1.55874 2.683901 2.12132 2.12132 
C 2.683901 1.55874 3 0.795609 3 0 
C 3 -0.795609 2.683901 -1.55874 2.12132 -2.12132 
C 1.55874 -2.683901 0.795609 -3 0 -3 
C -0.795609 -3 -1.55874 -2.683901 -2.12132 -2.12132 
C -2.683901 -1.55874 -3 -0.795609 -3 0 
C -3 0.795609 -2.683901 1.55874 -2.12132 2.12132 
C -1.55874 2.683901 -0.795609 3 0 3 
z
" style="stroke: #1f77b4"/>
    </defs>
    <g clip-path="url(#p20060634fe)">
     <use xlink:href="#mfc2e1e5f83" x="115.363636" y="366.854668" style="fill: #1f77b4; stroke: #1f77b4"/>
     <use xlink:href="#mfc2e1e5f83" x="125.716141" y="360.379348" style="fill: #1f77b4; stroke: #1f77b4"/>
     <use xlink:href="#mfc2e1e5f83" x="136.068646" y="354.919009" style="fill: #1f77b4; stroke: #1f77b4"/>
     <use xlink:href="#mfc2e1e5f83" x="146.42115" y="347.878384" style="fill: #1f77b4; stroke: #1f77b4"/>
     <use xlink:href="#mfc2e1e5f83" x="156.773655" y="339.976952" style="fill: #1f77b4; stroke: #1f77b4"/>
     <use xlink:href="#mfc2e1e5f83" x="167.12616" y="342.340958" style="fill: #1f77b4; stroke: #1f77b4"/>
     <use xlink:href="#mfc2e1e5f83" x="177.478664" y="326.075571" style="fill: #1f77b4; stroke: #1f77b4"/>
     <use xlink:href="#mfc2e1e5f83" x="187.831169" y="325.535961" style="fill: #1f77b4; stroke: #1f77b4"/>
     <use xlink:href="#mfc2e1e5f83" x="198.183673" y="325.009199" style="fill: #1f77b4; stroke: #1f77b4"/>
     <use xlink:href="#mfc2e1e5f83" x="208.536178" y="320.550993" style="fill: #1f77b4; stroke: #1f77b4"/>
     <use xlink:href="#mfc2e1e5f83" x="218.888683" y="324.508133" style="fill: #1f77b4; stroke: #1f77b4"/>
     <use xlink:href="#mfc2e1e5f83" x="229.241187" y="325.330396" style="fill: #1f77b4; stroke: #1f77b4"/>
     <use xlink:href="#mfc2e1e5f83" x="239.593692" y="309.103553" style="fill: #1f77b4; stroke: #1f77b4"/>
     <use xlink:href="#mfc2e1e5f83" x="249.946197" y="304.516868" style="fill: #1f77b4; stroke: #1f77b4"/>
     <use xlink:href="#mfc2e1e5f83" x="260.298701" y="302.178558" style="fill: #1f77b4; stroke: #1f77b4"/>
     <use xlink:href="#mfc2e1e5f83" x="270.651206" y="278.024588" style="fill: #1f77b4; stroke: #1f77b4"/>
     <use xlink:href="#mfc2e1e5f83" x="281.003711" y="291.848881" style="fill: #1f77b4; stroke: #1f77b4"/>
     <use xlink:href="#mfc2e1e5f83" x="291.356215" y="274.941102" style="fill: #1f77b4; stroke: #1f77b4"/>
     <use xlink:href="#mfc2e1e5f83" x="301.70872" y="269.840503" style="fill: #1f77b4; stroke: #1f77b4"/>
     <use xlink:href="#mfc2e1e5f83" x="312.061224" y="261.720658" style="fill: #1f77b4; stroke: #1f77b4"/>
     <use xlink:href="#mfc2e1e5f83" x="322.413729" y="274.478579" style="fill: #1f77b4; stroke: #1f77b4"/>
     <use xlink:href="#mfc2e1e5f83" x="332.766234" y="262.144637" style="fill: #1f77b4; stroke: #1f77b4"/>
     <use xlink:href="#mfc2e1e5f83" x="343.118738" y="249.643673" style="fill: #1f77b4; stroke: #1f77b4"/>
     <use xlink:href="#mfc2e1e5f83" x="353.471243" y="246.444556" style="fill: #1f77b4; stroke: #1f77b4"/>
     <use xlink:href="#mfc2e1e5f83" x="363.823748" y="256.453036" style="fill: #1f77b4; stroke: #1f77b4"/>
     <use xlink:href="#mfc2e1e5f83" x="374.176252" y="234.85579" style="fill: #1f77b4; stroke: #1f77b4"/>
     <use xlink:href="#mfc2e1e5f83" x="384.528757" y="238.761538" style="fill: #1f77b4; stroke: #1f77b4"/>
     <use xlink:href="#mfc2e1e5f83" x="394.881262" y="223.665307" style="fill: #1f77b4; stroke: #1f77b4"/>
     <use xlink:href="#mfc2e1e5f83" x="405.233766" y="239.725127" style="fill: #1f77b4; stroke: #1f77b4"/>
     <use xlink:href="#mfc2e1e5f83" x="415.586271" y="243.96492" style="fill: #1f77b4; stroke: #1f77b4"/>
     <use xlink:href="#mfc2e1e5f83" x="425.938776" y="221.121431" style="fill: #1f77b4; stroke: #1f77b4"/>
     <use xlink:href="#mfc2e1e5f83" x="436.29128" y="235.318312" style="fill: #1f77b4; stroke: #1f77b4"/>
     <use xlink:href="#mfc2e1e5f83" x="446.643785" y="211.061559" style="fill: #1f77b4; stroke: #1f77b4"/>
     <use xlink:href="#mfc2e1e5f83" x="456.996289" y="205.793938" style="fill: #1f77b4; stroke: #1f77b4"/>
     <use xlink:href="#mfc2e1e5f83" x="467.348794" y="201.46421" style="fill: #1f77b4; stroke: #1f77b4"/>
     <use xlink:href="#mfc2e1e5f83" x="477.701299" y="239.339692" style="fill: #1f77b4; stroke: #1f77b4"/>
     <use xlink:href="#mfc2e1e5f83" x="488.053803" y="234.508897" style="fill: #1f77b4; stroke: #1f77b4"/>
     <use xlink:href="#mfc2e1e5f83" x="498.406308" y="220.568973" style="fill: #1f77b4; stroke: #1f77b4"/>
     <use xlink:href="#mfc2e1e5f83" x="508.758813" y="145.60173" style="fill: #1f77b4; stroke: #1f77b4"/>
     <use xlink:href="#mfc2e1e5f83" x="519.111317" y="175.896976" style="fill: #1f77b4; stroke: #1f77b4"/>
     <use xlink:href="#mfc2e1e5f83" x="529.463822" y="170.924855" style="fill: #1f77b4; stroke: #1f77b4"/>
     <use xlink:href="#mfc2e1e5f83" x="539.816327" y="191.674144" style="fill: #1f77b4; stroke: #1f77b4"/>
     <use xlink:href="#mfc2e1e5f83" x="550.168831" y="200.423534" style="fill: #1f77b4; stroke: #1f77b4"/>
     <use xlink:href="#mfc2e1e5f83" x="560.521336" y="168.098327" style="fill: #1f77b4; stroke: #1f77b4"/>
     <use xlink:href="#mfc2e1e5f83" x="570.87384" y="218.539012" style="fill: #1f77b4; stroke: #1f77b4"/>
     <use xlink:href="#mfc2e1e5f83" x="581.226345" y="188.526419" style="fill: #1f77b4; stroke: #1f77b4"/>
     <use xlink:href="#mfc2e1e5f83" x="591.57885" y="142.209896" style="fill: #1f77b4; stroke: #1f77b4"/>
     <use xlink:href="#mfc2e1e5f83" x="601.931354" y="122.308566" style="fill: #1f77b4; stroke: #1f77b4"/>
     <use xlink:href="#mfc2e1e5f83" x="612.283859" y="146.835124" style="fill: #1f77b4; stroke: #1f77b4"/>
     <use xlink:href="#mfc2e1e5f83" x="622.636364" y="126.381337" style="fill: #1f77b4; stroke: #1f77b4"/>
    </g>
   </g>
   <g id="line2d_28">
    <path d="M 115.363636 369.36 
L 125.716141 369.090195 
L 136.068646 365.467099 
L 146.42115 367.908192 
L 156.773655 368.679064 
L 167.12616 363.231572 
L 177.478664 363.9639 
L 187.831169 365.646969 
L 198.183673 365.094512 
L 208.536178 364.477815 
L 218.888683 348.73919 
L 229.241187 346.503663 
L 239.593692 349.073234 
L 249.946197 353.814094 
L 260.298701 347.377317 
L 270.651206 365.197294 
L 281.003711 344.203897 
L 291.356215 342.906263 
L 301.70872 352.773417 
L 312.061224 357.758386 
L 322.413729 338.293883 
L 332.766234 343.098981 
L 343.118738 342.353805 
L 353.471243 347.428709 
L 363.823748 332.036977 
L 374.176252 346.439424 
L 384.528757 337.304598 
L 394.881262 344.717811 
L 405.233766 326.49955 
L 415.586271 316.067091 
L 425.938776 332.640826 
L 436.29128 297.630417 
L 446.643785 330.45669 
L 456.996289 329.223296 
L 467.348794 327.835728 
L 477.701299 281.00529 
L 488.053803 280.247267 
L 498.406308 289.561963 
L 508.758813 358.182365 
L 519.111317 321.655909 
L 529.463822 320.396819 
L 539.816327 293.287841 
L 550.168831 278.769763 
L 560.521336 303.386257 
L 570.87384 247.086949 
L 581.226345 272.063182 
L 591.57885 313.202019 
L 601.931354 326.589485 
L 612.283859 295.561912 
L 622.636364 309.527532 
" clip-path="url(#p20060634fe)" style="fill: none; stroke: #ff7f0e; stroke-width: 1.5; stroke-linecap: square"/>
    <defs>
     <path id="mfa9ca83659" d="M 0 3 
C 0.795609 3 1.55874 2.683901 2.12132 2.12132 
C 2.683901 1.55874 3 0.795609 3 0 
C 3 -0.795609 2.683901 -1.55874 2.12132 -2.12132 
C 1.55874 -2.683901 0.795609 -3 0 -3 
C -0.795609 -3 -1.55874 -2.683901 -2.12132 -2.12132 
C -2.683901 -1.55874 -3 -0.795609 -3 0 
C -3 0.795609 -2.683901 1.55874 -2.12132 2.12132 
C -1.55874 2.683901 -0.795609 3 0 3 
z
" style="stroke: #ff7f0e"/>
    </defs>
    <g clip-path="url(#p20060634fe)">
     <use xlink:href="#mfa9ca83659" x="115.363636" y="369.36" style="fill: #ff7f0e; stroke: #ff7f0e"/>
     <use xlink:href="#mfa9ca83659" x="125.716141" y="369.090195" style="fill: #ff7f0e; stroke: #ff7f0e"/>
     <use xlink:href="#mfa9ca83659" x="136.068646" y="365.467099" style="fill: #ff7f0e; stroke: #ff7f0e"/>
     <use xlink:href="#mfa9ca83659" x="146.42115" y="367.908192" style="fill: #ff7f0e; stroke: #ff7f0e"/>
     <use xlink:href="#mfa9ca83659" x="156.773655" y="368.679064" style="fill: #ff7f0e; stroke: #ff7f0e"/>
     <use xlink:href="#mfa9ca83659" x="167.12616" y="363.231572" style="fill: #ff7f0e; stroke: #ff7f0e"/>
     <use xlink:href="#mfa9ca83659" x="177.478664" y="363.9639" style="fill: #ff7f0e; stroke: #ff7f0e"/>
     <use xlink:href="#mfa9ca83659" x="187.831169" y="365.646969" style="fill: #ff7f0e; stroke: #ff7f0e"/>
     <use xlink:href="#mfa9ca83659" x="198.183673" y="365.094512" style="fill: #ff7f0e; stroke: #ff7f0e"/>
     <use xlink:href="#mfa9ca83659" x="208.536178" y="364.477815" style="fill: #ff7f0e; stroke: #ff7f0e"/>
     <use xlink:href="#mfa9ca83659" x="218.888683" y="348.73919" style="fill: #ff7f0e; stroke: #ff7f0e"/>
     <use xlink:href="#mfa9ca83659" x="229.241187" y="346.503663" style="fill: #ff7f0e; stroke: #ff7f0e"/>
     <use xlink:href="#mfa9ca83659" x="239.593692" y="349.073234" style="fill: #ff7f0e; stroke: #ff7f0e"/>
     <use xlink:href="#mfa9ca83659" x="249.946197" y="353.814094" style="fill: #ff7f0e; stroke: #ff7f0e"/>
     <use xlink:href="#mfa9ca83659" x="260.298701" y="347.377317" style="fill: #ff7f0e; stroke: #ff7f0e"/>
     <use xlink:href="#mfa9ca83659" x="270.651206" y="365.197294" style="fill: #ff7f0e; stroke: #ff7f0e"/>
     <use xlink:href="#mfa9ca83659" x="281.003711" y="344.203897" style="fill: #ff7f0e; stroke: #ff7f0e"/>
     <use xlink:href="#mfa9ca83659" x="291.356215" y="342.906263" style="fill: #ff7f0e; stroke: #ff7f0e"/>
     <use xlink:href="#mfa9ca83659" x="301.70872" y="352.773417" style="fill: #ff7f0e; stroke: #ff7f0e"/>
     <use xlink:href="#mfa9ca83659" x="312.061224" y="357.758386" style="fill: #ff7f0e; stroke: #ff7f0e"/>
     <use xlink:href="#mfa9ca83659" x="322.413729" y="338.293883" style="fill: #ff7f0e; stroke: #ff7f0e"/>
     <use xlink:href="#mfa9ca83659" x="332.766234" y="343.098981" style="fill: #ff7f0e; stroke: #ff7f0e"/>
     <use xlink:href="#mfa9ca83659" x="343.118738" y="342.353805" style="fill: #ff7f0e; stroke: #ff7f0e"/>
     <use xlink:href="#mfa9ca83659" x="353.471243" y="347.428709" style="fill: #ff7f0e; stroke: #ff7f0e"/>
     <use xlink:href="#mfa9ca83659" x="363.823748" y="332.036977" style="fill: #ff7f0e; stroke: #ff7f0e"/>
     <use xlink:href="#mfa9ca83659" x="374.176252" y="346.439424" style="fill: #ff7f0e; stroke: #ff7f0e"/>
     <use xlink:href="#mfa9ca83659" x="384.528757" y="337.304598" style="fill: #ff7f0e; stroke: #ff7f0e"/>
     <use xlink:href="#mfa9ca83659" x="394.881262" y="344.717811" style="fill: #ff7f0e; stroke: #ff7f0e"/>
     <use xlink:href="#mfa9ca83659" x="405.233766" y="326.49955" style="fill: #ff7f0e; stroke: #ff7f0e"/>
     <use xlink:href="#mfa9ca83659" x="415.586271" y="316.067091" style="fill: #ff7f0e; stroke: #ff7f0e"/>
     <use xlink:href="#mfa9ca83659" x="425.938776" y="332.640826" style="fill: #ff7f0e; stroke: #ff7f0e"/>
     <use xlink:href="#mfa9ca83659" x="436.29128" y="297.630417" style="fill: #ff7f0e; stroke: #ff7f0e"/>
     <use xlink:href="#mfa9ca83659" x="446.643785" y="330.45669" style="fill: #ff7f0e; stroke: #ff7f0e"/>
     <use xlink:href="#mfa9ca83659" x="456.996289" y="329.223296" style="fill: #ff7f0e; stroke: #ff7f0e"/>
     <use xlink:href="#mfa9ca83659" x="467.348794" y="327.835728" style="fill: #ff7f0e; stroke: #ff7f0e"/>
     <use xlink:href="#mfa9ca83659" x="477.701299" y="281.00529" style="fill: #ff7f0e; stroke: #ff7f0e"/>
     <use xlink:href="#mfa9ca83659" x="488.053803" y="280.247267" style="fill: #ff7f0e; stroke: #ff7f0e"/>
     <use xlink:href="#mfa9ca83659" x="498.406308" y="289.561963" style="fill: #ff7f0e; stroke: #ff7f0e"/>
     <use xlink:href="#mfa9ca83659" x="508.758813" y="358.182365" style="fill: #ff7f0e; stroke: #ff7f0e"/>
     <use xlink:href="#mfa9ca83659" x="519.111317" y="321.655909" style="fill: #ff7f0e; stroke: #ff7f0e"/>
     <use xlink:href="#mfa9ca83659" x="529.463822" y="320.396819" style="fill: #ff7f0e; stroke: #ff7f0e"/>
     <use xlink:href="#mfa9ca83659" x="539.816327" y="293.287841" style="fill: #ff7f0e; stroke: #ff7f0e"/>
     <use xlink:href="#mfa9ca83659" x="550.168831" y="278.769763" style="fill: #ff7f0e; stroke: #ff7f0e"/>
     <use xlink:href="#mfa9ca83659" x="560.521336" y="303.386257" style="fill: #ff7f0e; stroke: #ff7f0e"/>
     <use xlink:href="#mfa9ca83659" x="570.87384" y="247.086949" style="fill: #ff7f0e; stroke: #ff7f0e"/>
     <use xlink:href="#mfa9ca83659" x="581.226345" y="272.063182" style="fill: #ff7f0e; stroke: #ff7f0e"/>
     <use xlink:href="#mfa9ca83659" x="591.57885" y="313.202019" style="fill: #ff7f0e; stroke: #ff7f0e"/>
     <use xlink:href="#mfa9ca83659" x="601.931354" y="326.589485" style="fill: #ff7f0e; stroke: #ff7f0e"/>
     <use xlink:href="#mfa9ca83659" x="612.283859" y="295.561912" style="fill: #ff7f0e; stroke: #ff7f0e"/>
     <use xlink:href="#mfa9ca83659" x="622.636364" y="309.527532" style="fill: #ff7f0e; stroke: #ff7f0e"/>
    </g>
   </g>
   <g id="line2d_29">
    <path d="M 115.363636 367.792561 
L 125.716141 361.098828 
L 136.068646 351.578567 
L 146.42115 347.621427 
L 156.773655 340.156822 
L 167.12616 336.957706 
L 177.478664 322.144127 
L 187.831169 322.401084 
L 198.183673 321.437495 
L 208.536178 316.079939 
L 218.888683 304.568259 
L 229.241187 302.936582 
L 239.593692 289.651898 
L 249.946197 289.793224 
L 260.298701 280.876812 
L 270.651206 274.735536 
L 281.003711 267.656367 
L 291.356215 249.283933 
L 301.70872 253.832074 
L 312.061224 250.79998 
L 322.413729 243.862137 
L 332.766234 235.986401 
L 343.118738 222.98437 
L 353.471243 225.14281 
L 363.823748 219.669623 
L 374.176252 212.192171 
L 384.528757 206.975941 
L 394.881262 199.37001 
L 405.233766 196.646264 
L 415.586271 191.237317 
L 425.938776 184.376561 
L 436.29128 163.922774 
L 446.643785 172.261032 
L 456.996289 165.670082 
L 467.348794 159.888547 
L 477.701299 151.53744 
L 488.053803 144.471119 
L 498.406308 140.539675 
L 508.758813 134.102898 
L 519.111317 128.244276 
L 529.463822 122.616915 
L 539.816327 115.023831 
L 550.168831 110.000319 
L 560.521336 102.702737 
L 570.87384 96.163178 
L 581.226345 91.47371 
L 591.57885 86.450198 
L 601.931354 79.640834 
L 612.283859 73.088428 
L 622.636364 66.96 
" clip-path="url(#p20060634fe)" style="fill: none; stroke: #2ca02c; stroke-width: 1.5; stroke-linecap: square"/>
    <defs>
     <path id="mb3ef31fb3a" d="M 0 3 
C 0.795609 3 1.55874 2.683901 2.12132 2.12132 
C 2.683901 1.55874 3 0.795609 3 0 
C 3 -0.795609 2.683901 -1.55874 2.12132 -2.12132 
C 1.55874 -2.683901 0.795609 -3 0 -3 
C -0.795609 -3 -1.55874 -2.683901 -2.12132 -2.12132 
C -2.683901 -1.55874 -3 -0.795609 -3 0 
C -3 0.795609 -2.683901 1.55874 -2.12132 2.12132 
C -1.55874 2.683901 -0.795609 3 0 3 
z
" style="stroke: #2ca02c"/>
    </defs>
    <g clip-path="url(#p20060634fe)">
     <use xlink:href="#mb3ef31fb3a" x="115.363636" y="367.792561" style="fill: #2ca02c; stroke: #2ca02c"/>
     <use xlink:href="#mb3ef31fb3a" x="125.716141" y="361.098828" style="fill: #2ca02c; stroke: #2ca02c"/>
     <use xlink:href="#mb3ef31fb3a" x="136.068646" y="351.578567" style="fill: #2ca02c; stroke: #2ca02c"/>
     <use xlink:href="#mb3ef31fb3a" x="146.42115" y="347.621427" style="fill: #2ca02c; stroke: #2ca02c"/>
     <use xlink:href="#mb3ef31fb3a" x="156.773655" y="340.156822" style="fill: #2ca02c; stroke: #2ca02c"/>
     <use xlink:href="#mb3ef31fb3a" x="167.12616" y="336.957706" style="fill: #2ca02c; stroke: #2ca02c"/>
     <use xlink:href="#mb3ef31fb3a" x="177.478664" y="322.144127" style="fill: #2ca02c; stroke: #2ca02c"/>
     <use xlink:href="#mb3ef31fb3a" x="187.831169" y="322.401084" style="fill: #2ca02c; stroke: #2ca02c"/>
     <use xlink:href="#mb3ef31fb3a" x="198.183673" y="321.437495" style="fill: #2ca02c; stroke: #2ca02c"/>
     <use xlink:href="#mb3ef31fb3a" x="208.536178" y="316.079939" style="fill: #2ca02c; stroke: #2ca02c"/>
     <use xlink:href="#mb3ef31fb3a" x="218.888683" y="304.568259" style="fill: #2ca02c; stroke: #2ca02c"/>
     <use xlink:href="#mb3ef31fb3a" x="229.241187" y="302.936582" style="fill: #2ca02c; stroke: #2ca02c"/>
     <use xlink:href="#mb3ef31fb3a" x="239.593692" y="289.651898" style="fill: #2ca02c; stroke: #2ca02c"/>
     <use xlink:href="#mb3ef31fb3a" x="249.946197" y="289.793224" style="fill: #2ca02c; stroke: #2ca02c"/>
     <use xlink:href="#mb3ef31fb3a" x="260.298701" y="280.876812" style="fill: #2ca02c; stroke: #2ca02c"/>
     <use xlink:href="#mb3ef31fb3a" x="270.651206" y="274.735536" style="fill: #2ca02c; stroke: #2ca02c"/>
     <use xlink:href="#mb3ef31fb3a" x="281.003711" y="267.656367" style="fill: #2ca02c; stroke: #2ca02c"/>
     <use xlink:href="#mb3ef31fb3a" x="291.356215" y="249.283933" style="fill: #2ca02c; stroke: #2ca02c"/>
     <use xlink:href="#mb3ef31fb3a" x="301.70872" y="253.832074" style="fill: #2ca02c; stroke: #2ca02c"/>
     <use xlink:href="#mb3ef31fb3a" x="312.061224" y="250.79998" style="fill: #2ca02c; stroke: #2ca02c"/>
     <use xlink:href="#mb3ef31fb3a" x="322.413729" y="243.862137" style="fill: #2ca02c; stroke: #2ca02c"/>
     <use xlink:href="#mb3ef31fb3a" x="332.766234" y="235.986401" style="fill: #2ca02c; stroke: #2ca02c"/>
     <use xlink:href="#mb3ef31fb3a" x="343.118738" y="222.98437" style="fill: #2ca02c; stroke: #2ca02c"/>
     <use xlink:href="#mb3ef31fb3a" x="353.471243" y="225.14281" style="fill: #2ca02c; stroke: #2ca02c"/>
     <use xlink:href="#mb3ef31fb3a" x="363.823748" y="219.669623" style="fill: #2ca02c; stroke: #2ca02c"/>
     <use xlink:href="#mb3ef31fb3a" x="374.176252" y="212.192171" style="fill: #2ca02c; stroke: #2ca02c"/>
     <use xlink:href="#mb3ef31fb3a" x="384.528757" y="206.975941" style="fill: #2ca02c; stroke: #2ca02c"/>
     <use xlink:href="#mb3ef31fb3a" x="394.881262" y="199.37001" style="fill: #2ca02c; stroke: #2ca02c"/>
     <use xlink:href="#mb3ef31fb3a" x="405.233766" y="196.646264" style="fill: #2ca02c; stroke: #2ca02c"/>
     <use xlink:href="#mb3ef31fb3a" x="415.586271" y="191.237317" style="fill: #2ca02c; stroke: #2ca02c"/>
     <use xlink:href="#mb3ef31fb3a" x="425.938776" y="184.376561" style="fill: #2ca02c; stroke: #2ca02c"/>
     <use xlink:href="#mb3ef31fb3a" x="436.29128" y="163.922774" style="fill: #2ca02c; stroke: #2ca02c"/>
     <use xlink:href="#mb3ef31fb3a" x="446.643785" y="172.261032" style="fill: #2ca02c; stroke: #2ca02c"/>
     <use xlink:href="#mb3ef31fb3a" x="456.996289" y="165.670082" style="fill: #2ca02c; stroke: #2ca02c"/>
     <use xlink:href="#mb3ef31fb3a" x="467.348794" y="159.888547" style="fill: #2ca02c; stroke: #2ca02c"/>
     <use xlink:href="#mb3ef31fb3a" x="477.701299" y="151.53744" style="fill: #2ca02c; stroke: #2ca02c"/>
     <use xlink:href="#mb3ef31fb3a" x="488.053803" y="144.471119" style="fill: #2ca02c; stroke: #2ca02c"/>
     <use xlink:href="#mb3ef31fb3a" x="498.406308" y="140.539675" style="fill: #2ca02c; stroke: #2ca02c"/>
     <use xlink:href="#mb3ef31fb3a" x="508.758813" y="134.102898" style="fill: #2ca02c; stroke: #2ca02c"/>
     <use xlink:href="#mb3ef31fb3a" x="519.111317" y="128.244276" style="fill: #2ca02c; stroke: #2ca02c"/>
     <use xlink:href="#mb3ef31fb3a" x="529.463822" y="122.616915" style="fill: #2ca02c; stroke: #2ca02c"/>
     <use xlink:href="#mb3ef31fb3a" x="539.816327" y="115.023831" style="fill: #2ca02c; stroke: #2ca02c"/>
     <use xlink:href="#mb3ef31fb3a" x="550.168831" y="110.000319" style="fill: #2ca02c; stroke: #2ca02c"/>
     <use xlink:href="#mb3ef31fb3a" x="560.521336" y="102.702737" style="fill: #2ca02c; stroke: #2ca02c"/>
     <use xlink:href="#mb3ef31fb3a" x="570.87384" y="96.163178" style="fill: #2ca02c; stroke: #2ca02c"/>
     <use xlink:href="#mb3ef31fb3a" x="581.226345" y="91.47371" style="fill: #2ca02c; stroke: #2ca02c"/>
     <use xlink:href="#mb3ef31fb3a" x="591.57885" y="86.450198" style="fill: #2ca02c; stroke: #2ca02c"/>
     <use xlink:href="#mb3ef31fb3a" x="601.931354" y="79.640834" style="fill: #2ca02c; stroke: #2ca02c"/>
     <use xlink:href="#mb3ef31fb3a" x="612.283859" y="73.088428" style="fill: #2ca02c; stroke: #2ca02c"/>
     <use xlink:href="#mb3ef31fb3a" x="622.636364" y="66.96" style="fill: #2ca02c; stroke: #2ca02c"/>
    </g>
   </g>
   <g id="patch_3">
    <path d="M 90 384.48 
L 90 51.84 
" style="fill: none; stroke: #000000; stroke-width: 0.8; stroke-linejoin: miter; stroke-linecap: square"/>
   </g>
   <g id="patch_4">
    <path d="M 648 384.48 
L 648 51.84 
" style="fill: none; stroke: #000000; stroke-width: 0.8; stroke-linejoin: miter; stroke-linecap: square"/>
   </g>
   <g id="patch_5">
    <path d="M 90 384.48 
L 648 384.48 
" style="fill: none; stroke: #000000; stroke-width: 0.8; stroke-linejoin: miter; stroke-linecap: square"/>
   </g>
   <g id="patch_6">
    <path d="M 90 51.84 
L 648 51.84 
" style="fill: none; stroke: #000000; stroke-width: 0.8; stroke-linejoin: miter; stroke-linecap: square"/>
   </g>
   <g id="text_16">
    <!-- Tempo médio pelo Número de Entradas (Naive) -->
    <g transform="translate(226.585313 45.84) scale(0.12 -0.12)">
     <defs>
      <path id="DejaVuSans-6c" d="M 603 4863 
L 1178 4863 
L 1178 0 
L 603 0 
L 603 4863 
z
" transform="scale(0.015625)"/>
      <path id="DejaVuSans-4e" d="M 628 4666 
L 1478 4666 
L 3547 763 
L 3547 4666 
L 4159 4666 
L 4159 0 
L 3309 0 
L 1241 3903 
L 1241 0 
L 628 0 
L 628 4666 
z
" transform="scale(0.015625)"/>
      <path id="DejaVuSans-fa" d="M 544 1381 
L 544 3500 
L 1119 3500 
L 1119 1403 
Q 1119 906 1312 657 
Q 1506 409 1894 409 
Q 2359 409 2629 706 
Q 2900 1003 2900 1516 
L 2900 3500 
L 3475 3500 
L 3475 0 
L 2900 0 
L 2900 538 
Q 2691 219 2414 64 
Q 2138 -91 1772 -91 
Q 1169 -91 856 284 
Q 544 659 544 1381 
z
M 1991 3584 
L 1991 3584 
z
M 2419 5119 
L 3041 5119 
L 2022 3944 
L 1544 3944 
L 2419 5119 
z
" transform="scale(0.015625)"/>
      <path id="DejaVuSans-76" d="M 191 3500 
L 800 3500 
L 1894 563 
L 2988 3500 
L 3597 3500 
L 2284 0 
L 1503 0 
L 191 3500 
z
" transform="scale(0.015625)"/>
     </defs>
     <use xlink:href="#DejaVuSans-54"/>
     <use xlink:href="#DejaVuSans-65" x="44.083984"/>
     <use xlink:href="#DejaVuSans-6d" x="105.607422"/>
     <use xlink:href="#DejaVuSans-70" x="203.019531"/>
     <use xlink:href="#DejaVuSans-6f" x="266.496094"/>
     <use xlink:href="#DejaVuSans-20" x="327.677734"/>
     <use xlink:href="#DejaVuSans-6d" x="359.464844"/>
     <use xlink:href="#DejaVuSans-e9" x="456.876953"/>
     <use xlink:href="#DejaVuSans-64" x="518.400391"/>
     <use xlink:href="#DejaVuSans-69" x="581.876953"/>
     <use xlink:href="#DejaVuSans-6f" x="609.660156"/>
     <use xlink:href="#DejaVuSans-20" x="670.841797"/>
     <use xlink:href="#DejaVuSans-70" x="702.628906"/>
     <use xlink:href="#DejaVuSans-65" x="766.105469"/>
     <use xlink:href="#DejaVuSans-6c" x="827.628906"/>
     <use xlink:href="#DejaVuSans-6f" x="855.412109"/>
     <use xlink:href="#DejaVuSans-20" x="916.59375"/>
     <use xlink:href="#DejaVuSans-4e" x="948.380859"/>
     <use xlink:href="#DejaVuSans-fa" x="1023.185547"/>
     <use xlink:href="#DejaVuSans-6d" x="1086.564453"/>
     <use xlink:href="#DejaVuSans-65" x="1183.976562"/>
     <use xlink:href="#DejaVuSans-72" x="1245.5"/>
     <use xlink:href="#DejaVuSans-6f" x="1284.363281"/>
     <use xlink:href="#DejaVuSans-20" x="1345.544922"/>
     <use xlink:href="#DejaVuSans-64" x="1377.332031"/>
     <use xlink:href="#DejaVuSans-65" x="1440.808594"/>
     <use xlink:href="#DejaVuSans-20" x="1502.332031"/>
     <use xlink:href="#DejaVuSans-45" x="1534.119141"/>
     <use xlink:href="#DejaVuSans-6e" x="1597.302734"/>
     <use xlink:href="#DejaVuSans-74" x="1660.681641"/>
     <use xlink:href="#DejaVuSans-72" x="1699.890625"/>
     <use xlink:href="#DejaVuSans-61" x="1741.003906"/>
     <use xlink:href="#DejaVuSans-64" x="1802.283203"/>
     <use xlink:href="#DejaVuSans-61" x="1865.759766"/>
     <use xlink:href="#DejaVuSans-73" x="1927.039062"/>
     <use xlink:href="#DejaVuSans-20" x="1979.138672"/>
     <use xlink:href="#DejaVuSans-28" x="2010.925781"/>
     <use xlink:href="#DejaVuSans-4e" x="2049.939453"/>
     <use xlink:href="#DejaVuSans-61" x="2124.744141"/>
     <use xlink:href="#DejaVuSans-69" x="2186.023438"/>
     <use xlink:href="#DejaVuSans-76" x="2213.806641"/>
     <use xlink:href="#DejaVuSans-65" x="2272.986328"/>
     <use xlink:href="#DejaVuSans-29" x="2334.509766"/>
    </g>
   </g>
   <g id="legend_1">
    <g id="patch_7">
     <path d="M 97 104.674375 
L 220.904688 104.674375 
Q 222.904688 104.674375 222.904688 102.674375 
L 222.904688 58.84 
Q 222.904688 56.84 220.904688 56.84 
L 97 56.84 
Q 95 56.84 95 58.84 
L 95 102.674375 
Q 95 104.674375 97 104.674375 
z
" style="fill: #ffffff; opacity: 0.8; stroke: #cccccc; stroke-linejoin: miter"/>
    </g>
    <g id="line2d_30">
     <path d="M 99 65.338437 
L 109 65.338437 
L 119 65.338437 
" style="fill: none; stroke: #1f77b4; stroke-width: 1.5; stroke-linecap: square"/>
     <g>
      <use xlink:href="#mfc2e1e5f83" x="109" y="65.338437" style="fill: #1f77b4; stroke: #1f77b4"/>
     </g>
    </g>
    <g id="text_17">
     <!-- Tempo de Usuário -->
     <g transform="translate(127 68.838437) scale(0.1 -0.1)">
      <defs>
       <path id="DejaVuSans-55" d="M 556 4666 
L 1191 4666 
L 1191 1831 
Q 1191 1081 1462 751 
Q 1734 422 2344 422 
Q 2950 422 3222 751 
Q 3494 1081 3494 1831 
L 3494 4666 
L 4128 4666 
L 4128 1753 
Q 4128 841 3676 375 
Q 3225 -91 2344 -91 
Q 1459 -91 1007 375 
Q 556 841 556 1753 
L 556 4666 
z
" transform="scale(0.015625)"/>
       <path id="DejaVuSans-e1" d="M 2194 1759 
Q 1497 1759 1228 1600 
Q 959 1441 959 1056 
Q 959 750 1161 570 
Q 1363 391 1709 391 
Q 2188 391 2477 730 
Q 2766 1069 2766 1631 
L 2766 1759 
L 2194 1759 
z
M 3341 1997 
L 3341 0 
L 2766 0 
L 2766 531 
Q 2569 213 2275 61 
Q 1981 -91 1556 -91 
Q 1019 -91 701 211 
Q 384 513 384 1019 
Q 384 1609 779 1909 
Q 1175 2209 1959 2209 
L 2766 2209 
L 2766 2266 
Q 2766 2663 2505 2880 
Q 2244 3097 1772 3097 
Q 1472 3097 1187 3025 
Q 903 2953 641 2809 
L 641 3341 
Q 956 3463 1253 3523 
Q 1550 3584 1831 3584 
Q 2591 3584 2966 3190 
Q 3341 2797 3341 1997 
z
M 2291 5119 
L 2913 5119 
L 1894 3944 
L 1416 3944 
L 2291 5119 
z
" transform="scale(0.015625)"/>
      </defs>
      <use xlink:href="#DejaVuSans-54"/>
      <use xlink:href="#DejaVuSans-65" x="44.083984"/>
      <use xlink:href="#DejaVuSans-6d" x="105.607422"/>
      <use xlink:href="#DejaVuSans-70" x="203.019531"/>
      <use xlink:href="#DejaVuSans-6f" x="266.496094"/>
      <use xlink:href="#DejaVuSans-20" x="327.677734"/>
      <use xlink:href="#DejaVuSans-64" x="359.464844"/>
      <use xlink:href="#DejaVuSans-65" x="422.941406"/>
      <use xlink:href="#DejaVuSans-20" x="484.464844"/>
      <use xlink:href="#DejaVuSans-55" x="516.251953"/>
      <use xlink:href="#DejaVuSans-73" x="589.445312"/>
      <use xlink:href="#DejaVuSans-75" x="641.544922"/>
      <use xlink:href="#DejaVuSans-e1" x="704.923828"/>
      <use xlink:href="#DejaVuSans-72" x="766.203125"/>
      <use xlink:href="#DejaVuSans-69" x="807.316406"/>
      <use xlink:href="#DejaVuSans-6f" x="835.099609"/>
     </g>
    </g>
    <g id="line2d_31">
     <path d="M 99 80.016563 
L 109 80.016563 
L 119 80.016563 
" style="fill: none; stroke: #ff7f0e; stroke-width: 1.5; stroke-linecap: square"/>
     <g>
      <use xlink:href="#mfa9ca83659" x="109" y="80.016563" style="fill: #ff7f0e; stroke: #ff7f0e"/>
     </g>
    </g>
    <g id="text_18">
     <!-- Tempo de Sistema -->
     <g transform="translate(127 83.516563) scale(0.1 -0.1)">
      <defs>
       <path id="DejaVuSans-53" d="M 3425 4513 
L 3425 3897 
Q 3066 4069 2747 4153 
Q 2428 4238 2131 4238 
Q 1616 4238 1336 4038 
Q 1056 3838 1056 3469 
Q 1056 3159 1242 3001 
Q 1428 2844 1947 2747 
L 2328 2669 
Q 3034 2534 3370 2195 
Q 3706 1856 3706 1288 
Q 3706 609 3251 259 
Q 2797 -91 1919 -91 
Q 1588 -91 1214 -16 
Q 841 59 441 206 
L 441 856 
Q 825 641 1194 531 
Q 1563 422 1919 422 
Q 2459 422 2753 634 
Q 3047 847 3047 1241 
Q 3047 1584 2836 1778 
Q 2625 1972 2144 2069 
L 1759 2144 
Q 1053 2284 737 2584 
Q 422 2884 422 3419 
Q 422 4038 858 4394 
Q 1294 4750 2059 4750 
Q 2388 4750 2728 4690 
Q 3069 4631 3425 4513 
z
" transform="scale(0.015625)"/>
      </defs>
      <use xlink:href="#DejaVuSans-54"/>
      <use xlink:href="#DejaVuSans-65" x="44.083984"/>
      <use xlink:href="#DejaVuSans-6d" x="105.607422"/>
      <use xlink:href="#DejaVuSans-70" x="203.019531"/>
      <use xlink:href="#DejaVuSans-6f" x="266.496094"/>
      <use xlink:href="#DejaVuSans-20" x="327.677734"/>
      <use xlink:href="#DejaVuSans-64" x="359.464844"/>
      <use xlink:href="#DejaVuSans-65" x="422.941406"/>
      <use xlink:href="#DejaVuSans-20" x="484.464844"/>
      <use xlink:href="#DejaVuSans-53" x="516.251953"/>
      <use xlink:href="#DejaVuSans-69" x="579.728516"/>
      <use xlink:href="#DejaVuSans-73" x="607.511719"/>
      <use xlink:href="#DejaVuSans-74" x="659.611328"/>
      <use xlink:href="#DejaVuSans-65" x="698.820312"/>
      <use xlink:href="#DejaVuSans-6d" x="760.34375"/>
      <use xlink:href="#DejaVuSans-61" x="857.755859"/>
     </g>
    </g>
    <g id="line2d_32">
     <path d="M 99 95.094688 
L 109 95.094688 
L 119 95.094688 
" style="fill: none; stroke: #2ca02c; stroke-width: 1.5; stroke-linecap: square"/>
     <g>
      <use xlink:href="#mb3ef31fb3a" x="109" y="95.094688" style="fill: #2ca02c; stroke: #2ca02c"/>
     </g>
    </g>
    <g id="text_19">
     <!-- Tempo de Relógio -->
     <g transform="translate(127 98.594688) scale(0.1 -0.1)">
      <defs>
       <path id="DejaVuSans-52" d="M 2841 2188 
Q 3044 2119 3236 1894 
Q 3428 1669 3622 1275 
L 4263 0 
L 3584 0 
L 2988 1197 
Q 2756 1666 2539 1819 
Q 2322 1972 1947 1972 
L 1259 1972 
L 1259 0 
L 628 0 
L 628 4666 
L 2053 4666 
Q 2853 4666 3247 4331 
Q 3641 3997 3641 3322 
Q 3641 2881 3436 2590 
Q 3231 2300 2841 2188 
z
M 1259 4147 
L 1259 2491 
L 2053 2491 
Q 2509 2491 2742 2702 
Q 2975 2913 2975 3322 
Q 2975 3731 2742 3939 
Q 2509 4147 2053 4147 
L 1259 4147 
z
" transform="scale(0.015625)"/>
       <path id="DejaVuSans-f3" d="M 1959 3097 
Q 1497 3097 1228 2736 
Q 959 2375 959 1747 
Q 959 1119 1226 758 
Q 1494 397 1959 397 
Q 2419 397 2687 759 
Q 2956 1122 2956 1747 
Q 2956 2369 2687 2733 
Q 2419 3097 1959 3097 
z
M 1959 3584 
Q 2709 3584 3137 3096 
Q 3566 2609 3566 1747 
Q 3566 888 3137 398 
Q 2709 -91 1959 -91 
Q 1206 -91 779 398 
Q 353 888 353 1747 
Q 353 2609 779 3096 
Q 1206 3584 1959 3584 
z
M 2394 5119 
L 3016 5119 
L 1997 3944 
L 1519 3944 
L 2394 5119 
z
" transform="scale(0.015625)"/>
      </defs>
      <use xlink:href="#DejaVuSans-54"/>
      <use xlink:href="#DejaVuSans-65" x="44.083984"/>
      <use xlink:href="#DejaVuSans-6d" x="105.607422"/>
      <use xlink:href="#DejaVuSans-70" x="203.019531"/>
      <use xlink:href="#DejaVuSans-6f" x="266.496094"/>
      <use xlink:href="#DejaVuSans-20" x="327.677734"/>
      <use xlink:href="#DejaVuSans-64" x="359.464844"/>
      <use xlink:href="#DejaVuSans-65" x="422.941406"/>
      <use xlink:href="#DejaVuSans-20" x="484.464844"/>
      <use xlink:href="#DejaVuSans-52" x="516.251953"/>
      <use xlink:href="#DejaVuSans-65" x="581.234375"/>
      <use xlink:href="#DejaVuSans-6c" x="642.757812"/>
      <use xlink:href="#DejaVuSans-f3" x="670.541016"/>
      <use xlink:href="#DejaVuSans-67" x="731.722656"/>
      <use xlink:href="#DejaVuSans-69" x="795.199219"/>
      <use xlink:href="#DejaVuSans-6f" x="822.982422"/>
     </g>
    </g>
   </g>
  </g>
 </g>
 <defs>
  <clipPath id="p20060634fe">
   <rect x="90" y="51.84" width="558" height="332.64"/>
  </clipPath>
 </defs>
</svg>
