<?xml version="1.0" encoding="utf-8" standalone="no"?>
<!DOCTYPE svg PUBLIC "-//W3C//DTD SVG 1.1//EN"
  "http://www.w3.org/Graphics/SVG/1.1/DTD/svg11.dtd">
<svg xmlns:xlink="http://www.w3.org/1999/xlink" width="720pt" height="432pt" viewBox="0 0 720 432" xmlns="http://www.w3.org/2000/svg" version="1.1">
 <metadata>
  <rdf:RDF xmlns:dc="http://purl.org/dc/elements/1.1/" xmlns:cc="http://creativecommons.org/ns#" xmlns:rdf="http://www.w3.org/1999/02/22-rdf-syntax-ns#">
   <cc:Work>
    <dc:type rdf:resource="http://purl.org/dc/dcmitype/StillImage"/>
    <dc:date>2024-08-15T15:39:53.157791</dc:date>
    <dc:format>image/svg+xml</dc:format>
    <dc:creator>
     <cc:Agent>
      <dc:title>Matplotlib v3.8.4, https://matplotlib.org/</dc:title>
     </cc:Agent>
    </dc:creator>
   </cc:Work>
  </rdf:RDF>
 </metadata>
 <defs>
  <style type="text/css">*{stroke-linejoin: round; stroke-linecap: butt}</style>
 </defs>
 <g id="figure_1">
  <g id="patch_1">
   <path d="M 0 432 
L 720 432 
L 720 0 
L 0 0 
z
" style="fill: #ffffff"/>
  </g>
  <g id="axes_1">
   <g id="patch_2">
    <path d="M 90 384.48 
L 648 384.48 
L 648 51.84 
L 90 51.84 
z
" style="fill: #ffffff"/>
   </g>
   <g id="matplotlib.axis_1">
    <g id="xtick_1">
     <g id="line2d_1">
      <path d="M 114.328386 384.48 
L 114.328386 51.84 
" clip-path="url(#p195c501ac5)" style="fill: none; stroke: #b0b0b0; stroke-width: 0.8; stroke-linecap: square"/>
     </g>
     <g id="line2d_2">
      <defs>
       <path id="m9a6ba4cbe4" d="M 0 0 
L 0 3.5 
" style="stroke: #000000; stroke-width: 0.8"/>
      </defs>
      <g>
       <use xlink:href="#m9a6ba4cbe4" x="114.328386" y="384.48" style="stroke: #000000; stroke-width: 0.8"/>
      </g>
     </g>
     <g id="text_1">
      <!-- 0 -->
      <g transform="translate(111.147136 399.078438) scale(0.1 -0.1)">
       <defs>
        <path id="DejaVuSans-30" d="M 2034 4250 
Q 1547 4250 1301 3770 
Q 1056 3291 1056 2328 
Q 1056 1369 1301 889 
Q 1547 409 2034 409 
Q 2525 409 2770 889 
Q 3016 1369 3016 2328 
Q 3016 3291 2770 3770 
Q 2525 4250 2034 4250 
z
M 2034 4750 
Q 2819 4750 3233 4129 
Q 3647 3509 3647 2328 
Q 3647 1150 3233 529 
Q 2819 -91 2034 -91 
Q 1250 -91 836 529 
Q 422 1150 422 2328 
Q 422 3509 836 4129 
Q 1250 4750 2034 4750 
z
" transform="scale(0.015625)"/>
       </defs>
       <use xlink:href="#DejaVuSans-30"/>
      </g>
     </g>
    </g>
    <g id="xtick_2">
     <g id="line2d_3">
      <path d="M 217.853432 384.48 
L 217.853432 51.84 
" clip-path="url(#p195c501ac5)" style="fill: none; stroke: #b0b0b0; stroke-width: 0.8; stroke-linecap: square"/>
     </g>
     <g id="line2d_4">
      <g>
       <use xlink:href="#m9a6ba4cbe4" x="217.853432" y="384.48" style="stroke: #000000; stroke-width: 0.8"/>
      </g>
     </g>
     <g id="text_2">
      <!-- 100000 -->
      <g transform="translate(198.765932 399.078438) scale(0.1 -0.1)">
       <defs>
        <path id="DejaVuSans-31" d="M 794 531 
L 1825 531 
L 1825 4091 
L 703 3866 
L 703 4441 
L 1819 4666 
L 2450 4666 
L 2450 531 
L 3481 531 
L 3481 0 
L 794 0 
L 794 531 
z
" transform="scale(0.015625)"/>
       </defs>
       <use xlink:href="#DejaVuSans-31"/>
       <use xlink:href="#DejaVuSans-30" x="63.623047"/>
       <use xlink:href="#DejaVuSans-30" x="127.246094"/>
       <use xlink:href="#DejaVuSans-30" x="190.869141"/>
       <use xlink:href="#DejaVuSans-30" x="254.492188"/>
       <use xlink:href="#DejaVuSans-30" x="318.115234"/>
      </g>
     </g>
    </g>
    <g id="xtick_3">
     <g id="line2d_5">
      <path d="M 321.378479 384.48 
L 321.378479 51.84 
" clip-path="url(#p195c501ac5)" style="fill: none; stroke: #b0b0b0; stroke-width: 0.8; stroke-linecap: square"/>
     </g>
     <g id="line2d_6">
      <g>
       <use xlink:href="#m9a6ba4cbe4" x="321.378479" y="384.48" style="stroke: #000000; stroke-width: 0.8"/>
      </g>
     </g>
     <g id="text_3">
      <!-- 200000 -->
      <g transform="translate(302.290979 399.078438) scale(0.1 -0.1)">
       <defs>
        <path id="DejaVuSans-32" d="M 1228 531 
L 3431 531 
L 3431 0 
L 469 0 
L 469 531 
Q 828 903 1448 1529 
Q 2069 2156 2228 2338 
Q 2531 2678 2651 2914 
Q 2772 3150 2772 3378 
Q 2772 3750 2511 3984 
Q 2250 4219 1831 4219 
Q 1534 4219 1204 4116 
Q 875 4013 500 3803 
L 500 4441 
Q 881 4594 1212 4672 
Q 1544 4750 1819 4750 
Q 2544 4750 2975 4387 
Q 3406 4025 3406 3419 
Q 3406 3131 3298 2873 
Q 3191 2616 2906 2266 
Q 2828 2175 2409 1742 
Q 1991 1309 1228 531 
z
" transform="scale(0.015625)"/>
       </defs>
       <use xlink:href="#DejaVuSans-32"/>
       <use xlink:href="#DejaVuSans-30" x="63.623047"/>
       <use xlink:href="#DejaVuSans-30" x="127.246094"/>
       <use xlink:href="#DejaVuSans-30" x="190.869141"/>
       <use xlink:href="#DejaVuSans-30" x="254.492188"/>
       <use xlink:href="#DejaVuSans-30" x="318.115234"/>
      </g>
     </g>
    </g>
    <g id="xtick_4">
     <g id="line2d_7">
      <path d="M 424.903525 384.48 
L 424.903525 51.84 
" clip-path="url(#p195c501ac5)" style="fill: none; stroke: #b0b0b0; stroke-width: 0.8; stroke-linecap: square"/>
     </g>
     <g id="line2d_8">
      <g>
       <use xlink:href="#m9a6ba4cbe4" x="424.903525" y="384.48" style="stroke: #000000; stroke-width: 0.8"/>
      </g>
     </g>
     <g id="text_4">
      <!-- 300000 -->
      <g transform="translate(405.816025 399.078438) scale(0.1 -0.1)">
       <defs>
        <path id="DejaVuSans-33" d="M 2597 2516 
Q 3050 2419 3304 2112 
Q 3559 1806 3559 1356 
Q 3559 666 3084 287 
Q 2609 -91 1734 -91 
Q 1441 -91 1130 -33 
Q 819 25 488 141 
L 488 750 
Q 750 597 1062 519 
Q 1375 441 1716 441 
Q 2309 441 2620 675 
Q 2931 909 2931 1356 
Q 2931 1769 2642 2001 
Q 2353 2234 1838 2234 
L 1294 2234 
L 1294 2753 
L 1863 2753 
Q 2328 2753 2575 2939 
Q 2822 3125 2822 3475 
Q 2822 3834 2567 4026 
Q 2313 4219 1838 4219 
Q 1578 4219 1281 4162 
Q 984 4106 628 3988 
L 628 4550 
Q 988 4650 1302 4700 
Q 1616 4750 1894 4750 
Q 2613 4750 3031 4423 
Q 3450 4097 3450 3541 
Q 3450 3153 3228 2886 
Q 3006 2619 2597 2516 
z
" transform="scale(0.015625)"/>
       </defs>
       <use xlink:href="#DejaVuSans-33"/>
       <use xlink:href="#DejaVuSans-30" x="63.623047"/>
       <use xlink:href="#DejaVuSans-30" x="127.246094"/>
       <use xlink:href="#DejaVuSans-30" x="190.869141"/>
       <use xlink:href="#DejaVuSans-30" x="254.492188"/>
       <use xlink:href="#DejaVuSans-30" x="318.115234"/>
      </g>
     </g>
    </g>
    <g id="xtick_5">
     <g id="line2d_9">
      <path d="M 528.428571 384.48 
L 528.428571 51.84 
" clip-path="url(#p195c501ac5)" style="fill: none; stroke: #b0b0b0; stroke-width: 0.8; stroke-linecap: square"/>
     </g>
     <g id="line2d_10">
      <g>
       <use xlink:href="#m9a6ba4cbe4" x="528.428571" y="384.48" style="stroke: #000000; stroke-width: 0.8"/>
      </g>
     </g>
     <g id="text_5">
      <!-- 400000 -->
      <g transform="translate(509.341071 399.078438) scale(0.1 -0.1)">
       <defs>
        <path id="DejaVuSans-34" d="M 2419 4116 
L 825 1625 
L 2419 1625 
L 2419 4116 
z
M 2253 4666 
L 3047 4666 
L 3047 1625 
L 3713 1625 
L 3713 1100 
L 3047 1100 
L 3047 0 
L 2419 0 
L 2419 1100 
L 313 1100 
L 313 1709 
L 2253 4666 
z
" transform="scale(0.015625)"/>
       </defs>
       <use xlink:href="#DejaVuSans-34"/>
       <use xlink:href="#DejaVuSans-30" x="63.623047"/>
       <use xlink:href="#DejaVuSans-30" x="127.246094"/>
       <use xlink:href="#DejaVuSans-30" x="190.869141"/>
       <use xlink:href="#DejaVuSans-30" x="254.492188"/>
       <use xlink:href="#DejaVuSans-30" x="318.115234"/>
      </g>
     </g>
    </g>
    <g id="xtick_6">
     <g id="line2d_11">
      <path d="M 631.953618 384.48 
L 631.953618 51.84 
" clip-path="url(#p195c501ac5)" style="fill: none; stroke: #b0b0b0; stroke-width: 0.8; stroke-linecap: square"/>
     </g>
     <g id="line2d_12">
      <g>
       <use xlink:href="#m9a6ba4cbe4" x="631.953618" y="384.48" style="stroke: #000000; stroke-width: 0.8"/>
      </g>
     </g>
     <g id="text_6">
      <!-- 500000 -->
      <g transform="translate(612.866118 399.078438) scale(0.1 -0.1)">
       <defs>
        <path id="DejaVuSans-35" d="M 691 4666 
L 3169 4666 
L 3169 4134 
L 1269 4134 
L 1269 2991 
Q 1406 3038 1543 3061 
Q 1681 3084 1819 3084 
Q 2600 3084 3056 2656 
Q 3513 2228 3513 1497 
Q 3513 744 3044 326 
Q 2575 -91 1722 -91 
Q 1428 -91 1123 -41 
Q 819 9 494 109 
L 494 744 
Q 775 591 1075 516 
Q 1375 441 1709 441 
Q 2250 441 2565 725 
Q 2881 1009 2881 1497 
Q 2881 1984 2565 2268 
Q 2250 2553 1709 2553 
Q 1456 2553 1204 2497 
Q 953 2441 691 2322 
L 691 4666 
z
" transform="scale(0.015625)"/>
       </defs>
       <use xlink:href="#DejaVuSans-35"/>
       <use xlink:href="#DejaVuSans-30" x="63.623047"/>
       <use xlink:href="#DejaVuSans-30" x="127.246094"/>
       <use xlink:href="#DejaVuSans-30" x="190.869141"/>
       <use xlink:href="#DejaVuSans-30" x="254.492188"/>
       <use xlink:href="#DejaVuSans-30" x="318.115234"/>
      </g>
     </g>
    </g>
    <g id="text_7">
     <!-- Tamanho das Entradas (n) -->
     <g transform="translate(303.444531 412.756563) scale(0.1 -0.1)">
      <defs>
       <path id="DejaVuSans-54" d="M -19 4666 
L 3928 4666 
L 3928 4134 
L 2272 4134 
L 2272 0 
L 1638 0 
L 1638 4134 
L -19 4134 
L -19 4666 
z
" transform="scale(0.015625)"/>
       <path id="DejaVuSans-61" d="M 2194 1759 
Q 1497 1759 1228 1600 
Q 959 1441 959 1056 
Q 959 750 1161 570 
Q 1363 391 1709 391 
Q 2188 391 2477 730 
Q 2766 1069 2766 1631 
L 2766 1759 
L 2194 1759 
z
M 3341 1997 
L 3341 0 
L 2766 0 
L 2766 531 
Q 2569 213 2275 61 
Q 1981 -91 1556 -91 
Q 1019 -91 701 211 
Q 384 513 384 1019 
Q 384 1609 779 1909 
Q 1175 2209 1959 2209 
L 2766 2209 
L 2766 2266 
Q 2766 2663 2505 2880 
Q 2244 3097 1772 3097 
Q 1472 3097 1187 3025 
Q 903 2953 641 2809 
L 641 3341 
Q 956 3463 1253 3523 
Q 1550 3584 1831 3584 
Q 2591 3584 2966 3190 
Q 3341 2797 3341 1997 
z
" transform="scale(0.015625)"/>
       <path id="DejaVuSans-6d" d="M 3328 2828 
Q 3544 3216 3844 3400 
Q 4144 3584 4550 3584 
Q 5097 3584 5394 3201 
Q 5691 2819 5691 2113 
L 5691 0 
L 5113 0 
L 5113 2094 
Q 5113 2597 4934 2840 
Q 4756 3084 4391 3084 
Q 3944 3084 3684 2787 
Q 3425 2491 3425 1978 
L 3425 0 
L 2847 0 
L 2847 2094 
Q 2847 2600 2669 2842 
Q 2491 3084 2119 3084 
Q 1678 3084 1418 2786 
Q 1159 2488 1159 1978 
L 1159 0 
L 581 0 
L 581 3500 
L 1159 3500 
L 1159 2956 
Q 1356 3278 1631 3431 
Q 1906 3584 2284 3584 
Q 2666 3584 2933 3390 
Q 3200 3197 3328 2828 
z
" transform="scale(0.015625)"/>
       <path id="DejaVuSans-6e" d="M 3513 2113 
L 3513 0 
L 2938 0 
L 2938 2094 
Q 2938 2591 2744 2837 
Q 2550 3084 2163 3084 
Q 1697 3084 1428 2787 
Q 1159 2491 1159 1978 
L 1159 0 
L 581 0 
L 581 3500 
L 1159 3500 
L 1159 2956 
Q 1366 3272 1645 3428 
Q 1925 3584 2291 3584 
Q 2894 3584 3203 3211 
Q 3513 2838 3513 2113 
z
" transform="scale(0.015625)"/>
       <path id="DejaVuSans-68" d="M 3513 2113 
L 3513 0 
L 2938 0 
L 2938 2094 
Q 2938 2591 2744 2837 
Q 2550 3084 2163 3084 
Q 1697 3084 1428 2787 
Q 1159 2491 1159 1978 
L 1159 0 
L 581 0 
L 581 4863 
L 1159 4863 
L 1159 2956 
Q 1366 3272 1645 3428 
Q 1925 3584 2291 3584 
Q 2894 3584 3203 3211 
Q 3513 2838 3513 2113 
z
" transform="scale(0.015625)"/>
       <path id="DejaVuSans-6f" d="M 1959 3097 
Q 1497 3097 1228 2736 
Q 959 2375 959 1747 
Q 959 1119 1226 758 
Q 1494 397 1959 397 
Q 2419 397 2687 759 
Q 2956 1122 2956 1747 
Q 2956 2369 2687 2733 
Q 2419 3097 1959 3097 
z
M 1959 3584 
Q 2709 3584 3137 3096 
Q 3566 2609 3566 1747 
Q 3566 888 3137 398 
Q 2709 -91 1959 -91 
Q 1206 -91 779 398 
Q 353 888 353 1747 
Q 353 2609 779 3096 
Q 1206 3584 1959 3584 
z
" transform="scale(0.015625)"/>
       <path id="DejaVuSans-20" transform="scale(0.015625)"/>
       <path id="DejaVuSans-64" d="M 2906 2969 
L 2906 4863 
L 3481 4863 
L 3481 0 
L 2906 0 
L 2906 525 
Q 2725 213 2448 61 
Q 2172 -91 1784 -91 
Q 1150 -91 751 415 
Q 353 922 353 1747 
Q 353 2572 751 3078 
Q 1150 3584 1784 3584 
Q 2172 3584 2448 3432 
Q 2725 3281 2906 2969 
z
M 947 1747 
Q 947 1113 1208 752 
Q 1469 391 1925 391 
Q 2381 391 2643 752 
Q 2906 1113 2906 1747 
Q 2906 2381 2643 2742 
Q 2381 3103 1925 3103 
Q 1469 3103 1208 2742 
Q 947 2381 947 1747 
z
" transform="scale(0.015625)"/>
       <path id="DejaVuSans-73" d="M 2834 3397 
L 2834 2853 
Q 2591 2978 2328 3040 
Q 2066 3103 1784 3103 
Q 1356 3103 1142 2972 
Q 928 2841 928 2578 
Q 928 2378 1081 2264 
Q 1234 2150 1697 2047 
L 1894 2003 
Q 2506 1872 2764 1633 
Q 3022 1394 3022 966 
Q 3022 478 2636 193 
Q 2250 -91 1575 -91 
Q 1294 -91 989 -36 
Q 684 19 347 128 
L 347 722 
Q 666 556 975 473 
Q 1284 391 1588 391 
Q 1994 391 2212 530 
Q 2431 669 2431 922 
Q 2431 1156 2273 1281 
Q 2116 1406 1581 1522 
L 1381 1569 
Q 847 1681 609 1914 
Q 372 2147 372 2553 
Q 372 3047 722 3315 
Q 1072 3584 1716 3584 
Q 2034 3584 2315 3537 
Q 2597 3491 2834 3397 
z
" transform="scale(0.015625)"/>
       <path id="DejaVuSans-45" d="M 628 4666 
L 3578 4666 
L 3578 4134 
L 1259 4134 
L 1259 2753 
L 3481 2753 
L 3481 2222 
L 1259 2222 
L 1259 531 
L 3634 531 
L 3634 0 
L 628 0 
L 628 4666 
z
" transform="scale(0.015625)"/>
       <path id="DejaVuSans-74" d="M 1172 4494 
L 1172 3500 
L 2356 3500 
L 2356 3053 
L 1172 3053 
L 1172 1153 
Q 1172 725 1289 603 
Q 1406 481 1766 481 
L 2356 481 
L 2356 0 
L 1766 0 
Q 1100 0 847 248 
Q 594 497 594 1153 
L 594 3053 
L 172 3053 
L 172 3500 
L 594 3500 
L 594 4494 
L 1172 4494 
z
" transform="scale(0.015625)"/>
       <path id="DejaVuSans-72" d="M 2631 2963 
Q 2534 3019 2420 3045 
Q 2306 3072 2169 3072 
Q 1681 3072 1420 2755 
Q 1159 2438 1159 1844 
L 1159 0 
L 581 0 
L 581 3500 
L 1159 3500 
L 1159 2956 
Q 1341 3275 1631 3429 
Q 1922 3584 2338 3584 
Q 2397 3584 2469 3576 
Q 2541 3569 2628 3553 
L 2631 2963 
z
" transform="scale(0.015625)"/>
       <path id="DejaVuSans-28" d="M 1984 4856 
Q 1566 4138 1362 3434 
Q 1159 2731 1159 2009 
Q 1159 1288 1364 580 
Q 1569 -128 1984 -844 
L 1484 -844 
Q 1016 -109 783 600 
Q 550 1309 550 2009 
Q 550 2706 781 3412 
Q 1013 4119 1484 4856 
L 1984 4856 
z
" transform="scale(0.015625)"/>
       <path id="DejaVuSans-29" d="M 513 4856 
L 1013 4856 
Q 1481 4119 1714 3412 
Q 1947 2706 1947 2009 
Q 1947 1309 1714 600 
Q 1481 -109 1013 -844 
L 513 -844 
Q 928 -128 1133 580 
Q 1338 1288 1338 2009 
Q 1338 2731 1133 3434 
Q 928 4138 513 4856 
z
" transform="scale(0.015625)"/>
      </defs>
      <use xlink:href="#DejaVuSans-54"/>
      <use xlink:href="#DejaVuSans-61" x="44.583984"/>
      <use xlink:href="#DejaVuSans-6d" x="105.863281"/>
      <use xlink:href="#DejaVuSans-61" x="203.275391"/>
      <use xlink:href="#DejaVuSans-6e" x="264.554688"/>
      <use xlink:href="#DejaVuSans-68" x="327.933594"/>
      <use xlink:href="#DejaVuSans-6f" x="391.3125"/>
      <use xlink:href="#DejaVuSans-20" x="452.494141"/>
      <use xlink:href="#DejaVuSans-64" x="484.28125"/>
      <use xlink:href="#DejaVuSans-61" x="547.757812"/>
      <use xlink:href="#DejaVuSans-73" x="609.037109"/>
      <use xlink:href="#DejaVuSans-20" x="661.136719"/>
      <use xlink:href="#DejaVuSans-45" x="692.923828"/>
      <use xlink:href="#DejaVuSans-6e" x="756.107422"/>
      <use xlink:href="#DejaVuSans-74" x="819.486328"/>
      <use xlink:href="#DejaVuSans-72" x="858.695312"/>
      <use xlink:href="#DejaVuSans-61" x="899.808594"/>
      <use xlink:href="#DejaVuSans-64" x="961.087891"/>
      <use xlink:href="#DejaVuSans-61" x="1024.564453"/>
      <use xlink:href="#DejaVuSans-73" x="1085.84375"/>
      <use xlink:href="#DejaVuSans-20" x="1137.943359"/>
      <use xlink:href="#DejaVuSans-28" x="1169.730469"/>
      <use xlink:href="#DejaVuSans-6e" x="1208.744141"/>
      <use xlink:href="#DejaVuSans-29" x="1272.123047"/>
     </g>
    </g>
   </g>
   <g id="matplotlib.axis_2">
    <g id="ytick_1">
     <g id="line2d_13">
      <path d="M 90 372.218866 
L 648 372.218866 
" clip-path="url(#p195c501ac5)" style="fill: none; stroke: #b0b0b0; stroke-width: 0.8; stroke-linecap: square"/>
     </g>
     <g id="line2d_14">
      <defs>
       <path id="mc1275e0b7e" d="M 0 0 
L -3.5 0 
" style="stroke: #000000; stroke-width: 0.8"/>
      </defs>
      <g>
       <use xlink:href="#mc1275e0b7e" x="90" y="372.218866" style="stroke: #000000; stroke-width: 0.8"/>
      </g>
     </g>
     <g id="text_8">
      <!-- 0.0000 -->
      <g transform="translate(48.009375 376.018084) scale(0.1 -0.1)">
       <defs>
        <path id="DejaVuSans-2e" d="M 684 794 
L 1344 794 
L 1344 0 
L 684 0 
L 684 794 
z
" transform="scale(0.015625)"/>
       </defs>
       <use xlink:href="#DejaVuSans-30"/>
       <use xlink:href="#DejaVuSans-2e" x="63.623047"/>
       <use xlink:href="#DejaVuSans-30" x="95.410156"/>
       <use xlink:href="#DejaVuSans-30" x="159.033203"/>
       <use xlink:href="#DejaVuSans-30" x="222.65625"/>
       <use xlink:href="#DejaVuSans-30" x="286.279297"/>
      </g>
     </g>
    </g>
    <g id="ytick_2">
     <g id="line2d_15">
      <path d="M 90 332.234732 
L 648 332.234732 
" clip-path="url(#p195c501ac5)" style="fill: none; stroke: #b0b0b0; stroke-width: 0.8; stroke-linecap: square"/>
     </g>
     <g id="line2d_16">
      <g>
       <use xlink:href="#mc1275e0b7e" x="90" y="332.234732" style="stroke: #000000; stroke-width: 0.8"/>
      </g>
     </g>
     <g id="text_9">
      <!-- 0.0001 -->
      <g transform="translate(48.009375 336.033951) scale(0.1 -0.1)">
       <use xlink:href="#DejaVuSans-30"/>
       <use xlink:href="#DejaVuSans-2e" x="63.623047"/>
       <use xlink:href="#DejaVuSans-30" x="95.410156"/>
       <use xlink:href="#DejaVuSans-30" x="159.033203"/>
       <use xlink:href="#DejaVuSans-30" x="222.65625"/>
       <use xlink:href="#DejaVuSans-31" x="286.279297"/>
      </g>
     </g>
    </g>
    <g id="ytick_3">
     <g id="line2d_17">
      <path d="M 90 292.250599 
L 648 292.250599 
" clip-path="url(#p195c501ac5)" style="fill: none; stroke: #b0b0b0; stroke-width: 0.8; stroke-linecap: square"/>
     </g>
     <g id="line2d_18">
      <g>
       <use xlink:href="#mc1275e0b7e" x="90" y="292.250599" style="stroke: #000000; stroke-width: 0.8"/>
      </g>
     </g>
     <g id="text_10">
      <!-- 0.0002 -->
      <g transform="translate(48.009375 296.049818) scale(0.1 -0.1)">
       <use xlink:href="#DejaVuSans-30"/>
       <use xlink:href="#DejaVuSans-2e" x="63.623047"/>
       <use xlink:href="#DejaVuSans-30" x="95.410156"/>
       <use xlink:href="#DejaVuSans-30" x="159.033203"/>
       <use xlink:href="#DejaVuSans-30" x="222.65625"/>
       <use xlink:href="#DejaVuSans-32" x="286.279297"/>
      </g>
     </g>
    </g>
    <g id="ytick_4">
     <g id="line2d_19">
      <path d="M 90 252.266466 
L 648 252.266466 
" clip-path="url(#p195c501ac5)" style="fill: none; stroke: #b0b0b0; stroke-width: 0.8; stroke-linecap: square"/>
     </g>
     <g id="line2d_20">
      <g>
       <use xlink:href="#mc1275e0b7e" x="90" y="252.266466" style="stroke: #000000; stroke-width: 0.8"/>
      </g>
     </g>
     <g id="text_11">
      <!-- 0.0003 -->
      <g transform="translate(48.009375 256.065684) scale(0.1 -0.1)">
       <use xlink:href="#DejaVuSans-30"/>
       <use xlink:href="#DejaVuSans-2e" x="63.623047"/>
       <use xlink:href="#DejaVuSans-30" x="95.410156"/>
       <use xlink:href="#DejaVuSans-30" x="159.033203"/>
       <use xlink:href="#DejaVuSans-30" x="222.65625"/>
       <use xlink:href="#DejaVuSans-33" x="286.279297"/>
      </g>
     </g>
    </g>
    <g id="ytick_5">
     <g id="line2d_21">
      <path d="M 90 212.282332 
L 648 212.282332 
" clip-path="url(#p195c501ac5)" style="fill: none; stroke: #b0b0b0; stroke-width: 0.8; stroke-linecap: square"/>
     </g>
     <g id="line2d_22">
      <g>
       <use xlink:href="#mc1275e0b7e" x="90" y="212.282332" style="stroke: #000000; stroke-width: 0.8"/>
      </g>
     </g>
     <g id="text_12">
      <!-- 0.0004 -->
      <g transform="translate(48.009375 216.081551) scale(0.1 -0.1)">
       <use xlink:href="#DejaVuSans-30"/>
       <use xlink:href="#DejaVuSans-2e" x="63.623047"/>
       <use xlink:href="#DejaVuSans-30" x="95.410156"/>
       <use xlink:href="#DejaVuSans-30" x="159.033203"/>
       <use xlink:href="#DejaVuSans-30" x="222.65625"/>
       <use xlink:href="#DejaVuSans-34" x="286.279297"/>
      </g>
     </g>
    </g>
    <g id="ytick_6">
     <g id="line2d_23">
      <path d="M 90 172.298199 
L 648 172.298199 
" clip-path="url(#p195c501ac5)" style="fill: none; stroke: #b0b0b0; stroke-width: 0.8; stroke-linecap: square"/>
     </g>
     <g id="line2d_24">
      <g>
       <use xlink:href="#mc1275e0b7e" x="90" y="172.298199" style="stroke: #000000; stroke-width: 0.8"/>
      </g>
     </g>
     <g id="text_13">
      <!-- 0.0005 -->
      <g transform="translate(48.009375 176.097418) scale(0.1 -0.1)">
       <use xlink:href="#DejaVuSans-30"/>
       <use xlink:href="#DejaVuSans-2e" x="63.623047"/>
       <use xlink:href="#DejaVuSans-30" x="95.410156"/>
       <use xlink:href="#DejaVuSans-30" x="159.033203"/>
       <use xlink:href="#DejaVuSans-30" x="222.65625"/>
       <use xlink:href="#DejaVuSans-35" x="286.279297"/>
      </g>
     </g>
    </g>
    <g id="ytick_7">
     <g id="line2d_25">
      <path d="M 90 132.314066 
L 648 132.314066 
" clip-path="url(#p195c501ac5)" style="fill: none; stroke: #b0b0b0; stroke-width: 0.8; stroke-linecap: square"/>
     </g>
     <g id="line2d_26">
      <g>
       <use xlink:href="#mc1275e0b7e" x="90" y="132.314066" style="stroke: #000000; stroke-width: 0.8"/>
      </g>
     </g>
     <g id="text_14">
      <!-- 0.0006 -->
      <g transform="translate(48.009375 136.113285) scale(0.1 -0.1)">
       <defs>
        <path id="DejaVuSans-36" d="M 2113 2584 
Q 1688 2584 1439 2293 
Q 1191 2003 1191 1497 
Q 1191 994 1439 701 
Q 1688 409 2113 409 
Q 2538 409 2786 701 
Q 3034 994 3034 1497 
Q 3034 2003 2786 2293 
Q 2538 2584 2113 2584 
z
M 3366 4563 
L 3366 3988 
Q 3128 4100 2886 4159 
Q 2644 4219 2406 4219 
Q 1781 4219 1451 3797 
Q 1122 3375 1075 2522 
Q 1259 2794 1537 2939 
Q 1816 3084 2150 3084 
Q 2853 3084 3261 2657 
Q 3669 2231 3669 1497 
Q 3669 778 3244 343 
Q 2819 -91 2113 -91 
Q 1303 -91 875 529 
Q 447 1150 447 2328 
Q 447 3434 972 4092 
Q 1497 4750 2381 4750 
Q 2619 4750 2861 4703 
Q 3103 4656 3366 4563 
z
" transform="scale(0.015625)"/>
       </defs>
       <use xlink:href="#DejaVuSans-30"/>
       <use xlink:href="#DejaVuSans-2e" x="63.623047"/>
       <use xlink:href="#DejaVuSans-30" x="95.410156"/>
       <use xlink:href="#DejaVuSans-30" x="159.033203"/>
       <use xlink:href="#DejaVuSans-30" x="222.65625"/>
       <use xlink:href="#DejaVuSans-36" x="286.279297"/>
      </g>
     </g>
    </g>
    <g id="ytick_8">
     <g id="line2d_27">
      <path d="M 90 92.329933 
L 648 92.329933 
" clip-path="url(#p195c501ac5)" style="fill: none; stroke: #b0b0b0; stroke-width: 0.8; stroke-linecap: square"/>
     </g>
     <g id="line2d_28">
      <g>
       <use xlink:href="#mc1275e0b7e" x="90" y="92.329933" style="stroke: #000000; stroke-width: 0.8"/>
      </g>
     </g>
     <g id="text_15">
      <!-- 0.0007 -->
      <g transform="translate(48.009375 96.129151) scale(0.1 -0.1)">
       <defs>
        <path id="DejaVuSans-37" d="M 525 4666 
L 3525 4666 
L 3525 4397 
L 1831 0 
L 1172 0 
L 2766 4134 
L 525 4134 
L 525 4666 
z
" transform="scale(0.015625)"/>
       </defs>
       <use xlink:href="#DejaVuSans-30"/>
       <use xlink:href="#DejaVuSans-2e" x="63.623047"/>
       <use xlink:href="#DejaVuSans-30" x="95.410156"/>
       <use xlink:href="#DejaVuSans-30" x="159.033203"/>
       <use xlink:href="#DejaVuSans-30" x="222.65625"/>
       <use xlink:href="#DejaVuSans-37" x="286.279297"/>
      </g>
     </g>
    </g>
    <g id="ytick_9">
     <g id="line2d_29">
      <path d="M 90 52.345799 
L 648 52.345799 
" clip-path="url(#p195c501ac5)" style="fill: none; stroke: #b0b0b0; stroke-width: 0.8; stroke-linecap: square"/>
     </g>
     <g id="line2d_30">
      <g>
       <use xlink:href="#mc1275e0b7e" x="90" y="52.345799" style="stroke: #000000; stroke-width: 0.8"/>
      </g>
     </g>
     <g id="text_16">
      <!-- 0.0008 -->
      <g transform="translate(48.009375 56.145018) scale(0.1 -0.1)">
       <defs>
        <path id="DejaVuSans-38" d="M 2034 2216 
Q 1584 2216 1326 1975 
Q 1069 1734 1069 1313 
Q 1069 891 1326 650 
Q 1584 409 2034 409 
Q 2484 409 2743 651 
Q 3003 894 3003 1313 
Q 3003 1734 2745 1975 
Q 2488 2216 2034 2216 
z
M 1403 2484 
Q 997 2584 770 2862 
Q 544 3141 544 3541 
Q 544 4100 942 4425 
Q 1341 4750 2034 4750 
Q 2731 4750 3128 4425 
Q 3525 4100 3525 3541 
Q 3525 3141 3298 2862 
Q 3072 2584 2669 2484 
Q 3125 2378 3379 2068 
Q 3634 1759 3634 1313 
Q 3634 634 3220 271 
Q 2806 -91 2034 -91 
Q 1263 -91 848 271 
Q 434 634 434 1313 
Q 434 1759 690 2068 
Q 947 2378 1403 2484 
z
M 1172 3481 
Q 1172 3119 1398 2916 
Q 1625 2713 2034 2713 
Q 2441 2713 2670 2916 
Q 2900 3119 2900 3481 
Q 2900 3844 2670 4047 
Q 2441 4250 2034 4250 
Q 1625 4250 1398 4047 
Q 1172 3844 1172 3481 
z
" transform="scale(0.015625)"/>
       </defs>
       <use xlink:href="#DejaVuSans-30"/>
       <use xlink:href="#DejaVuSans-2e" x="63.623047"/>
       <use xlink:href="#DejaVuSans-30" x="95.410156"/>
       <use xlink:href="#DejaVuSans-30" x="159.033203"/>
       <use xlink:href="#DejaVuSans-30" x="222.65625"/>
       <use xlink:href="#DejaVuSans-38" x="286.279297"/>
      </g>
     </g>
    </g>
    <g id="text_17">
     <!-- Tempo médio (segundos) -->
     <g transform="translate(41.929687 281.224844) rotate(-90) scale(0.1 -0.1)">
      <defs>
       <path id="DejaVuSans-65" d="M 3597 1894 
L 3597 1613 
L 953 1613 
Q 991 1019 1311 708 
Q 1631 397 2203 397 
Q 2534 397 2845 478 
Q 3156 559 3463 722 
L 3463 178 
Q 3153 47 2828 -22 
Q 2503 -91 2169 -91 
Q 1331 -91 842 396 
Q 353 884 353 1716 
Q 353 2575 817 3079 
Q 1281 3584 2069 3584 
Q 2775 3584 3186 3129 
Q 3597 2675 3597 1894 
z
M 3022 2063 
Q 3016 2534 2758 2815 
Q 2500 3097 2075 3097 
Q 1594 3097 1305 2825 
Q 1016 2553 972 2059 
L 3022 2063 
z
" transform="scale(0.015625)"/>
       <path id="DejaVuSans-70" d="M 1159 525 
L 1159 -1331 
L 581 -1331 
L 581 3500 
L 1159 3500 
L 1159 2969 
Q 1341 3281 1617 3432 
Q 1894 3584 2278 3584 
Q 2916 3584 3314 3078 
Q 3713 2572 3713 1747 
Q 3713 922 3314 415 
Q 2916 -91 2278 -91 
Q 1894 -91 1617 61 
Q 1341 213 1159 525 
z
M 3116 1747 
Q 3116 2381 2855 2742 
Q 2594 3103 2138 3103 
Q 1681 3103 1420 2742 
Q 1159 2381 1159 1747 
Q 1159 1113 1420 752 
Q 1681 391 2138 391 
Q 2594 391 2855 752 
Q 3116 1113 3116 1747 
z
" transform="scale(0.015625)"/>
       <path id="DejaVuSans-e9" d="M 3597 1894 
L 3597 1613 
L 953 1613 
Q 991 1019 1311 708 
Q 1631 397 2203 397 
Q 2534 397 2845 478 
Q 3156 559 3463 722 
L 3463 178 
Q 3153 47 2828 -22 
Q 2503 -91 2169 -91 
Q 1331 -91 842 396 
Q 353 884 353 1716 
Q 353 2575 817 3079 
Q 1281 3584 2069 3584 
Q 2775 3584 3186 3129 
Q 3597 2675 3597 1894 
z
M 3022 2063 
Q 3016 2534 2758 2815 
Q 2500 3097 2075 3097 
Q 1594 3097 1305 2825 
Q 1016 2553 972 2059 
L 3022 2063 
z
M 2469 5119 
L 3091 5119 
L 2072 3944 
L 1594 3944 
L 2469 5119 
z
" transform="scale(0.015625)"/>
       <path id="DejaVuSans-69" d="M 603 3500 
L 1178 3500 
L 1178 0 
L 603 0 
L 603 3500 
z
M 603 4863 
L 1178 4863 
L 1178 4134 
L 603 4134 
L 603 4863 
z
" transform="scale(0.015625)"/>
       <path id="DejaVuSans-67" d="M 2906 1791 
Q 2906 2416 2648 2759 
Q 2391 3103 1925 3103 
Q 1463 3103 1205 2759 
Q 947 2416 947 1791 
Q 947 1169 1205 825 
Q 1463 481 1925 481 
Q 2391 481 2648 825 
Q 2906 1169 2906 1791 
z
M 3481 434 
Q 3481 -459 3084 -895 
Q 2688 -1331 1869 -1331 
Q 1566 -1331 1297 -1286 
Q 1028 -1241 775 -1147 
L 775 -588 
Q 1028 -725 1275 -790 
Q 1522 -856 1778 -856 
Q 2344 -856 2625 -561 
Q 2906 -266 2906 331 
L 2906 616 
Q 2728 306 2450 153 
Q 2172 0 1784 0 
Q 1141 0 747 490 
Q 353 981 353 1791 
Q 353 2603 747 3093 
Q 1141 3584 1784 3584 
Q 2172 3584 2450 3431 
Q 2728 3278 2906 2969 
L 2906 3500 
L 3481 3500 
L 3481 434 
z
" transform="scale(0.015625)"/>
       <path id="DejaVuSans-75" d="M 544 1381 
L 544 3500 
L 1119 3500 
L 1119 1403 
Q 1119 906 1312 657 
Q 1506 409 1894 409 
Q 2359 409 2629 706 
Q 2900 1003 2900 1516 
L 2900 3500 
L 3475 3500 
L 3475 0 
L 2900 0 
L 2900 538 
Q 2691 219 2414 64 
Q 2138 -91 1772 -91 
Q 1169 -91 856 284 
Q 544 659 544 1381 
z
M 1991 3584 
L 1991 3584 
z
" transform="scale(0.015625)"/>
      </defs>
      <use xlink:href="#DejaVuSans-54"/>
      <use xlink:href="#DejaVuSans-65" x="44.083984"/>
      <use xlink:href="#DejaVuSans-6d" x="105.607422"/>
      <use xlink:href="#DejaVuSans-70" x="203.019531"/>
      <use xlink:href="#DejaVuSans-6f" x="266.496094"/>
      <use xlink:href="#DejaVuSans-20" x="327.677734"/>
      <use xlink:href="#DejaVuSans-6d" x="359.464844"/>
      <use xlink:href="#DejaVuSans-e9" x="456.876953"/>
      <use xlink:href="#DejaVuSans-64" x="518.400391"/>
      <use xlink:href="#DejaVuSans-69" x="581.876953"/>
      <use xlink:href="#DejaVuSans-6f" x="609.660156"/>
      <use xlink:href="#DejaVuSans-20" x="670.841797"/>
      <use xlink:href="#DejaVuSans-28" x="702.628906"/>
      <use xlink:href="#DejaVuSans-73" x="741.642578"/>
      <use xlink:href="#DejaVuSans-65" x="793.742188"/>
      <use xlink:href="#DejaVuSans-67" x="855.265625"/>
      <use xlink:href="#DejaVuSans-75" x="918.742188"/>
      <use xlink:href="#DejaVuSans-6e" x="982.121094"/>
      <use xlink:href="#DejaVuSans-64" x="1045.5"/>
      <use xlink:href="#DejaVuSans-6f" x="1108.976562"/>
      <use xlink:href="#DejaVuSans-73" x="1170.158203"/>
      <use xlink:href="#DejaVuSans-29" x="1222.257812"/>
     </g>
    </g>
   </g>
   <g id="line2d_31">
    <path d="M 115.363636 366.421166 
L 125.716141 358.084474 
L 136.068646 350.68741 
L 146.42115 342.510655 
L 156.773655 339.531837 
L 167.12616 330.37547 
L 177.478664 322.718509 
L 187.831169 323.378247 
L 198.183673 312.542547 
L 208.536178 309.363808 
L 218.888683 303.806013 
L 229.241187 296.648854 
L 239.593692 292.430528 
L 249.946197 277.276541 
L 260.298701 277.536438 
L 270.651206 272.938263 
L 281.003711 265.861071 
L 291.356215 259.903435 
L 301.70872 255.365236 
L 312.061224 247.288441 
L 322.413729 239.751432 
L 332.766234 236.072892 
L 343.118738 228.835764 
L 353.471243 225.157223 
L 363.823748 219.639413 
L 374.176252 211.082808 
L 384.528757 207.284316 
L 394.881262 202.906053 
L 405.233766 197.008393 
L 415.586271 191.050758 
L 425.938776 184.213471 
L 436.29128 178.155875 
L 446.643785 173.117874 
L 456.996289 166.140643 
L 467.348794 160.722793 
L 477.701299 153.425688 
L 488.053803 147.268132 
L 498.406308 140.350877 
L 508.758813 133.893439 
L 519.111317 127.875827 
L 529.463822 123.017755 
L 539.816327 114.721047 
L 550.168831 108.743419 
L 560.521336 103.125649 
L 570.87384 94.868925 
L 581.226345 91.350321 
L 591.57885 84.193161 
L 601.931354 74.876858 
L 612.283859 71.338263 
L 622.636364 66.96 
" clip-path="url(#p195c501ac5)" style="fill: none; stroke: #1f77b4; stroke-width: 1.5; stroke-linecap: square"/>
    <defs>
     <path id="mb4209806a8" d="M 0 3 
C 0.795609 3 1.55874 2.683901 2.12132 2.12132 
C 2.683901 1.55874 3 0.795609 3 0 
C 3 -0.795609 2.683901 -1.55874 2.12132 -2.12132 
C 1.55874 -2.683901 0.795609 -3 0 -3 
C -0.795609 -3 -1.55874 -2.683901 -2.12132 -2.12132 
C -2.683901 -1.55874 -3 -0.795609 -3 0 
C -3 0.795609 -2.683901 1.55874 -2.12132 2.12132 
C -1.55874 2.683901 -0.795609 3 0 3 
z
" style="stroke: #1f77b4"/>
    </defs>
    <g clip-path="url(#p195c501ac5)">
     <use xlink:href="#mb4209806a8" x="115.363636" y="366.421166" style="fill: #1f77b4; stroke: #1f77b4"/>
     <use xlink:href="#mb4209806a8" x="125.716141" y="358.084474" style="fill: #1f77b4; stroke: #1f77b4"/>
     <use xlink:href="#mb4209806a8" x="136.068646" y="350.68741" style="fill: #1f77b4; stroke: #1f77b4"/>
     <use xlink:href="#mb4209806a8" x="146.42115" y="342.510655" style="fill: #1f77b4; stroke: #1f77b4"/>
     <use xlink:href="#mb4209806a8" x="156.773655" y="339.531837" style="fill: #1f77b4; stroke: #1f77b4"/>
     <use xlink:href="#mb4209806a8" x="167.12616" y="330.37547" style="fill: #1f77b4; stroke: #1f77b4"/>
     <use xlink:href="#mb4209806a8" x="177.478664" y="322.718509" style="fill: #1f77b4; stroke: #1f77b4"/>
     <use xlink:href="#mb4209806a8" x="187.831169" y="323.378247" style="fill: #1f77b4; stroke: #1f77b4"/>
     <use xlink:href="#mb4209806a8" x="198.183673" y="312.542547" style="fill: #1f77b4; stroke: #1f77b4"/>
     <use xlink:href="#mb4209806a8" x="208.536178" y="309.363808" style="fill: #1f77b4; stroke: #1f77b4"/>
     <use xlink:href="#mb4209806a8" x="218.888683" y="303.806013" style="fill: #1f77b4; stroke: #1f77b4"/>
     <use xlink:href="#mb4209806a8" x="229.241187" y="296.648854" style="fill: #1f77b4; stroke: #1f77b4"/>
     <use xlink:href="#mb4209806a8" x="239.593692" y="292.430528" style="fill: #1f77b4; stroke: #1f77b4"/>
     <use xlink:href="#mb4209806a8" x="249.946197" y="277.276541" style="fill: #1f77b4; stroke: #1f77b4"/>
     <use xlink:href="#mb4209806a8" x="260.298701" y="277.536438" style="fill: #1f77b4; stroke: #1f77b4"/>
     <use xlink:href="#mb4209806a8" x="270.651206" y="272.938263" style="fill: #1f77b4; stroke: #1f77b4"/>
     <use xlink:href="#mb4209806a8" x="281.003711" y="265.861071" style="fill: #1f77b4; stroke: #1f77b4"/>
     <use xlink:href="#mb4209806a8" x="291.356215" y="259.903435" style="fill: #1f77b4; stroke: #1f77b4"/>
     <use xlink:href="#mb4209806a8" x="301.70872" y="255.365236" style="fill: #1f77b4; stroke: #1f77b4"/>
     <use xlink:href="#mb4209806a8" x="312.061224" y="247.288441" style="fill: #1f77b4; stroke: #1f77b4"/>
     <use xlink:href="#mb4209806a8" x="322.413729" y="239.751432" style="fill: #1f77b4; stroke: #1f77b4"/>
     <use xlink:href="#mb4209806a8" x="332.766234" y="236.072892" style="fill: #1f77b4; stroke: #1f77b4"/>
     <use xlink:href="#mb4209806a8" x="343.118738" y="228.835764" style="fill: #1f77b4; stroke: #1f77b4"/>
     <use xlink:href="#mb4209806a8" x="353.471243" y="225.157223" style="fill: #1f77b4; stroke: #1f77b4"/>
     <use xlink:href="#mb4209806a8" x="363.823748" y="219.639413" style="fill: #1f77b4; stroke: #1f77b4"/>
     <use xlink:href="#mb4209806a8" x="374.176252" y="211.082808" style="fill: #1f77b4; stroke: #1f77b4"/>
     <use xlink:href="#mb4209806a8" x="384.528757" y="207.284316" style="fill: #1f77b4; stroke: #1f77b4"/>
     <use xlink:href="#mb4209806a8" x="394.881262" y="202.906053" style="fill: #1f77b4; stroke: #1f77b4"/>
     <use xlink:href="#mb4209806a8" x="405.233766" y="197.008393" style="fill: #1f77b4; stroke: #1f77b4"/>
     <use xlink:href="#mb4209806a8" x="415.586271" y="191.050758" style="fill: #1f77b4; stroke: #1f77b4"/>
     <use xlink:href="#mb4209806a8" x="425.938776" y="184.213471" style="fill: #1f77b4; stroke: #1f77b4"/>
     <use xlink:href="#mb4209806a8" x="436.29128" y="178.155875" style="fill: #1f77b4; stroke: #1f77b4"/>
     <use xlink:href="#mb4209806a8" x="446.643785" y="173.117874" style="fill: #1f77b4; stroke: #1f77b4"/>
     <use xlink:href="#mb4209806a8" x="456.996289" y="166.140643" style="fill: #1f77b4; stroke: #1f77b4"/>
     <use xlink:href="#mb4209806a8" x="467.348794" y="160.722793" style="fill: #1f77b4; stroke: #1f77b4"/>
     <use xlink:href="#mb4209806a8" x="477.701299" y="153.425688" style="fill: #1f77b4; stroke: #1f77b4"/>
     <use xlink:href="#mb4209806a8" x="488.053803" y="147.268132" style="fill: #1f77b4; stroke: #1f77b4"/>
     <use xlink:href="#mb4209806a8" x="498.406308" y="140.350877" style="fill: #1f77b4; stroke: #1f77b4"/>
     <use xlink:href="#mb4209806a8" x="508.758813" y="133.893439" style="fill: #1f77b4; stroke: #1f77b4"/>
     <use xlink:href="#mb4209806a8" x="519.111317" y="127.875827" style="fill: #1f77b4; stroke: #1f77b4"/>
     <use xlink:href="#mb4209806a8" x="529.463822" y="123.017755" style="fill: #1f77b4; stroke: #1f77b4"/>
     <use xlink:href="#mb4209806a8" x="539.816327" y="114.721047" style="fill: #1f77b4; stroke: #1f77b4"/>
     <use xlink:href="#mb4209806a8" x="550.168831" y="108.743419" style="fill: #1f77b4; stroke: #1f77b4"/>
     <use xlink:href="#mb4209806a8" x="560.521336" y="103.125649" style="fill: #1f77b4; stroke: #1f77b4"/>
     <use xlink:href="#mb4209806a8" x="570.87384" y="94.868925" style="fill: #1f77b4; stroke: #1f77b4"/>
     <use xlink:href="#mb4209806a8" x="581.226345" y="91.350321" style="fill: #1f77b4; stroke: #1f77b4"/>
     <use xlink:href="#mb4209806a8" x="591.57885" y="84.193161" style="fill: #1f77b4; stroke: #1f77b4"/>
     <use xlink:href="#mb4209806a8" x="601.931354" y="74.876858" style="fill: #1f77b4; stroke: #1f77b4"/>
     <use xlink:href="#mb4209806a8" x="612.283859" y="71.338263" style="fill: #1f77b4; stroke: #1f77b4"/>
     <use xlink:href="#mb4209806a8" x="622.636364" y="66.96" style="fill: #1f77b4; stroke: #1f77b4"/>
    </g>
   </g>
   <g id="line2d_32">
    <path d="M 115.363636 369.36 
L 125.716141 365.421563 
L 136.068646 361.443142 
L 146.42115 359.983721 
L 156.773655 354.146037 
L 167.12616 352.306767 
L 177.478664 346.688996 
L 187.831169 345.869322 
L 198.183673 336.712955 
L 208.536178 339.331916 
L 218.888683 337.112797 
L 229.241187 326.996811 
L 239.593692 328.016406 
L 249.946197 327.936438 
L 260.298701 326.357065 
L 270.651206 324.517795 
L 281.003711 318.38023 
L 291.356215 316.321047 
L 301.70872 314.761666 
L 312.061224 313.102324 
L 322.413729 308.664086 
L 332.766234 301.366981 
L 343.118738 299.087886 
L 353.471243 301.986735 
L 363.823748 294.929536 
L 374.176252 295.689234 
L 384.528757 289.531678 
L 394.881262 285.453296 
L 405.233766 286.692804 
L 415.586271 284.313749 
L 425.938776 279.795541 
L 436.29128 277.196573 
L 446.643785 274.45766 
L 456.996289 267.540405 
L 467.348794 268.919857 
L 477.701299 262.742309 
L 488.053803 262.062578 
L 498.406308 260.423229 
L 508.758813 256.864641 
L 519.111317 252.666307 
L 529.463822 244.009742 
L 539.816327 243.330012 
L 550.168831 245.329219 
L 560.521336 231.034891 
L 570.87384 231.974518 
L 581.226345 233.873764 
L 591.57885 232.454328 
L 601.931354 228.136041 
L 612.283859 227.05647 
L 622.636364 219.579437 
" clip-path="url(#p195c501ac5)" style="fill: none; stroke: #ff7f0e; stroke-width: 1.5; stroke-linecap: square"/>
    <defs>
     <path id="m977e7c041e" d="M 0 3 
C 0.795609 3 1.55874 2.683901 2.12132 2.12132 
C 2.683901 1.55874 3 0.795609 3 0 
C 3 -0.795609 2.683901 -1.55874 2.12132 -2.12132 
C 1.55874 -2.683901 0.795609 -3 0 -3 
C -0.795609 -3 -1.55874 -2.683901 -2.12132 -2.12132 
C -2.683901 -1.55874 -3 -0.795609 -3 0 
C -3 0.795609 -2.683901 1.55874 -2.12132 2.12132 
C -1.55874 2.683901 -0.795609 3 0 3 
z
" style="stroke: #ff7f0e"/>
    </defs>
    <g clip-path="url(#p195c501ac5)">
     <use xlink:href="#m977e7c041e" x="115.363636" y="369.36" style="fill: #ff7f0e; stroke: #ff7f0e"/>
     <use xlink:href="#m977e7c041e" x="125.716141" y="365.421563" style="fill: #ff7f0e; stroke: #ff7f0e"/>
     <use xlink:href="#m977e7c041e" x="136.068646" y="361.443142" style="fill: #ff7f0e; stroke: #ff7f0e"/>
     <use xlink:href="#m977e7c041e" x="146.42115" y="359.983721" style="fill: #ff7f0e; stroke: #ff7f0e"/>
     <use xlink:href="#m977e7c041e" x="156.773655" y="354.146037" style="fill: #ff7f0e; stroke: #ff7f0e"/>
     <use xlink:href="#m977e7c041e" x="167.12616" y="352.306767" style="fill: #ff7f0e; stroke: #ff7f0e"/>
     <use xlink:href="#m977e7c041e" x="177.478664" y="346.688996" style="fill: #ff7f0e; stroke: #ff7f0e"/>
     <use xlink:href="#m977e7c041e" x="187.831169" y="345.869322" style="fill: #ff7f0e; stroke: #ff7f0e"/>
     <use xlink:href="#m977e7c041e" x="198.183673" y="336.712955" style="fill: #ff7f0e; stroke: #ff7f0e"/>
     <use xlink:href="#m977e7c041e" x="208.536178" y="339.331916" style="fill: #ff7f0e; stroke: #ff7f0e"/>
     <use xlink:href="#m977e7c041e" x="218.888683" y="337.112797" style="fill: #ff7f0e; stroke: #ff7f0e"/>
     <use xlink:href="#m977e7c041e" x="229.241187" y="326.996811" style="fill: #ff7f0e; stroke: #ff7f0e"/>
     <use xlink:href="#m977e7c041e" x="239.593692" y="328.016406" style="fill: #ff7f0e; stroke: #ff7f0e"/>
     <use xlink:href="#m977e7c041e" x="249.946197" y="327.936438" style="fill: #ff7f0e; stroke: #ff7f0e"/>
     <use xlink:href="#m977e7c041e" x="260.298701" y="326.357065" style="fill: #ff7f0e; stroke: #ff7f0e"/>
     <use xlink:href="#m977e7c041e" x="270.651206" y="324.517795" style="fill: #ff7f0e; stroke: #ff7f0e"/>
     <use xlink:href="#m977e7c041e" x="281.003711" y="318.38023" style="fill: #ff7f0e; stroke: #ff7f0e"/>
     <use xlink:href="#m977e7c041e" x="291.356215" y="316.321047" style="fill: #ff7f0e; stroke: #ff7f0e"/>
     <use xlink:href="#m977e7c041e" x="301.70872" y="314.761666" style="fill: #ff7f0e; stroke: #ff7f0e"/>
     <use xlink:href="#m977e7c041e" x="312.061224" y="313.102324" style="fill: #ff7f0e; stroke: #ff7f0e"/>
     <use xlink:href="#m977e7c041e" x="322.413729" y="308.664086" style="fill: #ff7f0e; stroke: #ff7f0e"/>
     <use xlink:href="#m977e7c041e" x="332.766234" y="301.366981" style="fill: #ff7f0e; stroke: #ff7f0e"/>
     <use xlink:href="#m977e7c041e" x="343.118738" y="299.087886" style="fill: #ff7f0e; stroke: #ff7f0e"/>
     <use xlink:href="#m977e7c041e" x="353.471243" y="301.986735" style="fill: #ff7f0e; stroke: #ff7f0e"/>
     <use xlink:href="#m977e7c041e" x="363.823748" y="294.929536" style="fill: #ff7f0e; stroke: #ff7f0e"/>
     <use xlink:href="#m977e7c041e" x="374.176252" y="295.689234" style="fill: #ff7f0e; stroke: #ff7f0e"/>
     <use xlink:href="#m977e7c041e" x="384.528757" y="289.531678" style="fill: #ff7f0e; stroke: #ff7f0e"/>
     <use xlink:href="#m977e7c041e" x="394.881262" y="285.453296" style="fill: #ff7f0e; stroke: #ff7f0e"/>
     <use xlink:href="#m977e7c041e" x="405.233766" y="286.692804" style="fill: #ff7f0e; stroke: #ff7f0e"/>
     <use xlink:href="#m977e7c041e" x="415.586271" y="284.313749" style="fill: #ff7f0e; stroke: #ff7f0e"/>
     <use xlink:href="#m977e7c041e" x="425.938776" y="279.795541" style="fill: #ff7f0e; stroke: #ff7f0e"/>
     <use xlink:href="#m977e7c041e" x="436.29128" y="277.196573" style="fill: #ff7f0e; stroke: #ff7f0e"/>
     <use xlink:href="#m977e7c041e" x="446.643785" y="274.45766" style="fill: #ff7f0e; stroke: #ff7f0e"/>
     <use xlink:href="#m977e7c041e" x="456.996289" y="267.540405" style="fill: #ff7f0e; stroke: #ff7f0e"/>
     <use xlink:href="#m977e7c041e" x="467.348794" y="268.919857" style="fill: #ff7f0e; stroke: #ff7f0e"/>
     <use xlink:href="#m977e7c041e" x="477.701299" y="262.742309" style="fill: #ff7f0e; stroke: #ff7f0e"/>
     <use xlink:href="#m977e7c041e" x="488.053803" y="262.062578" style="fill: #ff7f0e; stroke: #ff7f0e"/>
     <use xlink:href="#m977e7c041e" x="498.406308" y="260.423229" style="fill: #ff7f0e; stroke: #ff7f0e"/>
     <use xlink:href="#m977e7c041e" x="508.758813" y="256.864641" style="fill: #ff7f0e; stroke: #ff7f0e"/>
     <use xlink:href="#m977e7c041e" x="519.111317" y="252.666307" style="fill: #ff7f0e; stroke: #ff7f0e"/>
     <use xlink:href="#m977e7c041e" x="529.463822" y="244.009742" style="fill: #ff7f0e; stroke: #ff7f0e"/>
     <use xlink:href="#m977e7c041e" x="539.816327" y="243.330012" style="fill: #ff7f0e; stroke: #ff7f0e"/>
     <use xlink:href="#m977e7c041e" x="550.168831" y="245.329219" style="fill: #ff7f0e; stroke: #ff7f0e"/>
     <use xlink:href="#m977e7c041e" x="560.521336" y="231.034891" style="fill: #ff7f0e; stroke: #ff7f0e"/>
     <use xlink:href="#m977e7c041e" x="570.87384" y="231.974518" style="fill: #ff7f0e; stroke: #ff7f0e"/>
     <use xlink:href="#m977e7c041e" x="581.226345" y="233.873764" style="fill: #ff7f0e; stroke: #ff7f0e"/>
     <use xlink:href="#m977e7c041e" x="591.57885" y="232.454328" style="fill: #ff7f0e; stroke: #ff7f0e"/>
     <use xlink:href="#m977e7c041e" x="601.931354" y="228.136041" style="fill: #ff7f0e; stroke: #ff7f0e"/>
     <use xlink:href="#m977e7c041e" x="612.283859" y="227.05647" style="fill: #ff7f0e; stroke: #ff7f0e"/>
     <use xlink:href="#m977e7c041e" x="622.636364" y="219.579437" style="fill: #ff7f0e; stroke: #ff7f0e"/>
    </g>
   </g>
   <g id="patch_3">
    <path d="M 90 384.48 
L 90 51.84 
" style="fill: none; stroke: #000000; stroke-width: 0.8; stroke-linejoin: miter; stroke-linecap: square"/>
   </g>
   <g id="patch_4">
    <path d="M 648 384.48 
L 648 51.84 
" style="fill: none; stroke: #000000; stroke-width: 0.8; stroke-linejoin: miter; stroke-linecap: square"/>
   </g>
   <g id="patch_5">
    <path d="M 90 384.48 
L 648 384.48 
" style="fill: none; stroke: #000000; stroke-width: 0.8; stroke-linejoin: miter; stroke-linecap: square"/>
   </g>
   <g id="patch_6">
    <path d="M 90 51.84 
L 648 51.84 
" style="fill: none; stroke: #000000; stroke-width: 0.8; stroke-linejoin: miter; stroke-linecap: square"/>
   </g>
   <g id="text_18">
    <!-- Tempo médio pelo Número de Entradas -->
    <g transform="translate(250.249687 45.84) scale(0.12 -0.12)">
     <defs>
      <path id="DejaVuSans-6c" d="M 603 4863 
L 1178 4863 
L 1178 0 
L 603 0 
L 603 4863 
z
" transform="scale(0.015625)"/>
      <path id="DejaVuSans-4e" d="M 628 4666 
L 1478 4666 
L 3547 763 
L 3547 4666 
L 4159 4666 
L 4159 0 
L 3309 0 
L 1241 3903 
L 1241 0 
L 628 0 
L 628 4666 
z
" transform="scale(0.015625)"/>
      <path id="DejaVuSans-fa" d="M 544 1381 
L 544 3500 
L 1119 3500 
L 1119 1403 
Q 1119 906 1312 657 
Q 1506 409 1894 409 
Q 2359 409 2629 706 
Q 2900 1003 2900 1516 
L 2900 3500 
L 3475 3500 
L 3475 0 
L 2900 0 
L 2900 538 
Q 2691 219 2414 64 
Q 2138 -91 1772 -91 
Q 1169 -91 856 284 
Q 544 659 544 1381 
z
M 1991 3584 
L 1991 3584 
z
M 2419 5119 
L 3041 5119 
L 2022 3944 
L 1544 3944 
L 2419 5119 
z
" transform="scale(0.015625)"/>
     </defs>
     <use xlink:href="#DejaVuSans-54"/>
     <use xlink:href="#DejaVuSans-65" x="44.083984"/>
     <use xlink:href="#DejaVuSans-6d" x="105.607422"/>
     <use xlink:href="#DejaVuSans-70" x="203.019531"/>
     <use xlink:href="#DejaVuSans-6f" x="266.496094"/>
     <use xlink:href="#DejaVuSans-20" x="327.677734"/>
     <use xlink:href="#DejaVuSans-6d" x="359.464844"/>
     <use xlink:href="#DejaVuSans-e9" x="456.876953"/>
     <use xlink:href="#DejaVuSans-64" x="518.400391"/>
     <use xlink:href="#DejaVuSans-69" x="581.876953"/>
     <use xlink:href="#DejaVuSans-6f" x="609.660156"/>
     <use xlink:href="#DejaVuSans-20" x="670.841797"/>
     <use xlink:href="#DejaVuSans-70" x="702.628906"/>
     <use xlink:href="#DejaVuSans-65" x="766.105469"/>
     <use xlink:href="#DejaVuSans-6c" x="827.628906"/>
     <use xlink:href="#DejaVuSans-6f" x="855.412109"/>
     <use xlink:href="#DejaVuSans-20" x="916.59375"/>
     <use xlink:href="#DejaVuSans-4e" x="948.380859"/>
     <use xlink:href="#DejaVuSans-fa" x="1023.185547"/>
     <use xlink:href="#DejaVuSans-6d" x="1086.564453"/>
     <use xlink:href="#DejaVuSans-65" x="1183.976562"/>
     <use xlink:href="#DejaVuSans-72" x="1245.5"/>
     <use xlink:href="#DejaVuSans-6f" x="1284.363281"/>
     <use xlink:href="#DejaVuSans-20" x="1345.544922"/>
     <use xlink:href="#DejaVuSans-64" x="1377.332031"/>
     <use xlink:href="#DejaVuSans-65" x="1440.808594"/>
     <use xlink:href="#DejaVuSans-20" x="1502.332031"/>
     <use xlink:href="#DejaVuSans-45" x="1534.119141"/>
     <use xlink:href="#DejaVuSans-6e" x="1597.302734"/>
     <use xlink:href="#DejaVuSans-74" x="1660.681641"/>
     <use xlink:href="#DejaVuSans-72" x="1699.890625"/>
     <use xlink:href="#DejaVuSans-61" x="1741.003906"/>
     <use xlink:href="#DejaVuSans-64" x="1802.283203"/>
     <use xlink:href="#DejaVuSans-61" x="1865.759766"/>
     <use xlink:href="#DejaVuSans-73" x="1927.039062"/>
    </g>
   </g>
   <g id="legend_1">
    <g id="patch_7">
     <path d="M 97 89.99625 
L 313.085938 89.99625 
Q 315.085938 89.99625 315.085938 87.99625 
L 315.085938 58.84 
Q 315.085938 56.84 313.085938 56.84 
L 97 56.84 
Q 95 56.84 95 58.84 
L 95 87.99625 
Q 95 89.99625 97 89.99625 
z
" style="fill: #ffffff; opacity: 0.8; stroke: #cccccc; stroke-linejoin: miter"/>
    </g>
    <g id="line2d_33">
     <path d="M 99 65.338437 
L 109 65.338437 
L 119 65.338437 
" style="fill: none; stroke: #1f77b4; stroke-width: 1.5; stroke-linecap: square"/>
     <g>
      <use xlink:href="#mb4209806a8" x="109" y="65.338437" style="fill: #1f77b4; stroke: #1f77b4"/>
     </g>
    </g>
    <g id="text_19">
     <!-- Tempo de médio da estratégia BMH -->
     <g transform="translate(127 68.838437) scale(0.1 -0.1)">
      <defs>
       <path id="DejaVuSans-42" d="M 1259 2228 
L 1259 519 
L 2272 519 
Q 2781 519 3026 730 
Q 3272 941 3272 1375 
Q 3272 1813 3026 2020 
Q 2781 2228 2272 2228 
L 1259 2228 
z
M 1259 4147 
L 1259 2741 
L 2194 2741 
Q 2656 2741 2882 2914 
Q 3109 3088 3109 3444 
Q 3109 3797 2882 3972 
Q 2656 4147 2194 4147 
L 1259 4147 
z
M 628 4666 
L 2241 4666 
Q 2963 4666 3353 4366 
Q 3744 4066 3744 3513 
Q 3744 3084 3544 2831 
Q 3344 2578 2956 2516 
Q 3422 2416 3680 2098 
Q 3938 1781 3938 1306 
Q 3938 681 3513 340 
Q 3088 0 2303 0 
L 628 0 
L 628 4666 
z
" transform="scale(0.015625)"/>
       <path id="DejaVuSans-4d" d="M 628 4666 
L 1569 4666 
L 2759 1491 
L 3956 4666 
L 4897 4666 
L 4897 0 
L 4281 0 
L 4281 4097 
L 3078 897 
L 2444 897 
L 1241 4097 
L 1241 0 
L 628 0 
L 628 4666 
z
" transform="scale(0.015625)"/>
       <path id="DejaVuSans-48" d="M 628 4666 
L 1259 4666 
L 1259 2753 
L 3553 2753 
L 3553 4666 
L 4184 4666 
L 4184 0 
L 3553 0 
L 3553 2222 
L 1259 2222 
L 1259 0 
L 628 0 
L 628 4666 
z
" transform="scale(0.015625)"/>
      </defs>
      <use xlink:href="#DejaVuSans-54"/>
      <use xlink:href="#DejaVuSans-65" x="44.083984"/>
      <use xlink:href="#DejaVuSans-6d" x="105.607422"/>
      <use xlink:href="#DejaVuSans-70" x="203.019531"/>
      <use xlink:href="#DejaVuSans-6f" x="266.496094"/>
      <use xlink:href="#DejaVuSans-20" x="327.677734"/>
      <use xlink:href="#DejaVuSans-64" x="359.464844"/>
      <use xlink:href="#DejaVuSans-65" x="422.941406"/>
      <use xlink:href="#DejaVuSans-20" x="484.464844"/>
      <use xlink:href="#DejaVuSans-6d" x="516.251953"/>
      <use xlink:href="#DejaVuSans-e9" x="613.664062"/>
      <use xlink:href="#DejaVuSans-64" x="675.1875"/>
      <use xlink:href="#DejaVuSans-69" x="738.664062"/>
      <use xlink:href="#DejaVuSans-6f" x="766.447266"/>
      <use xlink:href="#DejaVuSans-20" x="827.628906"/>
      <use xlink:href="#DejaVuSans-64" x="859.416016"/>
      <use xlink:href="#DejaVuSans-61" x="922.892578"/>
      <use xlink:href="#DejaVuSans-20" x="984.171875"/>
      <use xlink:href="#DejaVuSans-65" x="1015.958984"/>
      <use xlink:href="#DejaVuSans-73" x="1077.482422"/>
      <use xlink:href="#DejaVuSans-74" x="1129.582031"/>
      <use xlink:href="#DejaVuSans-72" x="1168.791016"/>
      <use xlink:href="#DejaVuSans-61" x="1209.904297"/>
      <use xlink:href="#DejaVuSans-74" x="1271.183594"/>
      <use xlink:href="#DejaVuSans-e9" x="1310.392578"/>
      <use xlink:href="#DejaVuSans-67" x="1371.916016"/>
      <use xlink:href="#DejaVuSans-69" x="1435.392578"/>
      <use xlink:href="#DejaVuSans-61" x="1463.175781"/>
      <use xlink:href="#DejaVuSans-20" x="1524.455078"/>
      <use xlink:href="#DejaVuSans-42" x="1556.242188"/>
      <use xlink:href="#DejaVuSans-4d" x="1624.845703"/>
      <use xlink:href="#DejaVuSans-48" x="1711.125"/>
     </g>
    </g>
    <g id="line2d_34">
     <path d="M 99 80.416562 
L 109 80.416562 
L 119 80.416562 
" style="fill: none; stroke: #ff7f0e; stroke-width: 1.5; stroke-linecap: square"/>
     <g>
      <use xlink:href="#m977e7c041e" x="109" y="80.416562" style="fill: #ff7f0e; stroke: #ff7f0e"/>
     </g>
    </g>
    <g id="text_20">
     <!-- Tempo de médio da estratégia Naive -->
     <g transform="translate(127 83.916562) scale(0.1 -0.1)">
      <defs>
       <path id="DejaVuSans-76" d="M 191 3500 
L 800 3500 
L 1894 563 
L 2988 3500 
L 3597 3500 
L 2284 0 
L 1503 0 
L 191 3500 
z
" transform="scale(0.015625)"/>
      </defs>
      <use xlink:href="#DejaVuSans-54"/>
      <use xlink:href="#DejaVuSans-65" x="44.083984"/>
      <use xlink:href="#DejaVuSans-6d" x="105.607422"/>
      <use xlink:href="#DejaVuSans-70" x="203.019531"/>
      <use xlink:href="#DejaVuSans-6f" x="266.496094"/>
      <use xlink:href="#DejaVuSans-20" x="327.677734"/>
      <use xlink:href="#DejaVuSans-64" x="359.464844"/>
      <use xlink:href="#DejaVuSans-65" x="422.941406"/>
      <use xlink:href="#DejaVuSans-20" x="484.464844"/>
      <use xlink:href="#DejaVuSans-6d" x="516.251953"/>
      <use xlink:href="#DejaVuSans-e9" x="613.664062"/>
      <use xlink:href="#DejaVuSans-64" x="675.1875"/>
      <use xlink:href="#DejaVuSans-69" x="738.664062"/>
      <use xlink:href="#DejaVuSans-6f" x="766.447266"/>
      <use xlink:href="#DejaVuSans-20" x="827.628906"/>
      <use xlink:href="#DejaVuSans-64" x="859.416016"/>
      <use xlink:href="#DejaVuSans-61" x="922.892578"/>
      <use xlink:href="#DejaVuSans-20" x="984.171875"/>
      <use xlink:href="#DejaVuSans-65" x="1015.958984"/>
      <use xlink:href="#DejaVuSans-73" x="1077.482422"/>
      <use xlink:href="#DejaVuSans-74" x="1129.582031"/>
      <use xlink:href="#DejaVuSans-72" x="1168.791016"/>
      <use xlink:href="#DejaVuSans-61" x="1209.904297"/>
      <use xlink:href="#DejaVuSans-74" x="1271.183594"/>
      <use xlink:href="#DejaVuSans-e9" x="1310.392578"/>
      <use xlink:href="#DejaVuSans-67" x="1371.916016"/>
      <use xlink:href="#DejaVuSans-69" x="1435.392578"/>
      <use xlink:href="#DejaVuSans-61" x="1463.175781"/>
      <use xlink:href="#DejaVuSans-20" x="1524.455078"/>
      <use xlink:href="#DejaVuSans-4e" x="1556.242188"/>
      <use xlink:href="#DejaVuSans-61" x="1631.046875"/>
      <use xlink:href="#DejaVuSans-69" x="1692.326172"/>
      <use xlink:href="#DejaVuSans-76" x="1720.109375"/>
      <use xlink:href="#DejaVuSans-65" x="1779.289062"/>
     </g>
    </g>
   </g>
  </g>
 </g>
 <defs>
  <clipPath id="p195c501ac5">
   <rect x="90" y="51.84" width="558" height="332.64"/>
  </clipPath>
 </defs>
</svg>
